SplineFontDB: 3.0
FontName: Merriweather-LightItalic
FullName: Merriweather Light Italic
FamilyName: Merriweather
Weight: Light
Copyright: Copyright (c) 2013, Sorkin Type Co (www.sorkintype.com) with Reserved Font Name 'Merriweather'
Version: 1.001
ItalicAngle: -7
UnderlinePosition: -120
UnderlineWidth: 147
Ascent: 1638
Descent: 410
LayerCount: 2
Layer: 0 1 "Back"  1
Layer: 1 1 "Fore"  0
NeedsXUIDChange: 1
XUID: [1021 631 1661839179 10409962]
FSType: 0
OS2Version: 3
OS2_WeightWidthSlopeOnly: 0
OS2_UseTypoMetrics: 1
CreationTime: 1364465340
ModificationTime: 1364624166
PfmFamily: 17
TTFWeight: 300
TTFWidth: 5
LineGap: 0
VLineGap: 0
Panose: 2 0 8 3 6 0 0 9 0 4
OS2TypoAscent: 376
OS2TypoAOffset: 1
OS2TypoDescent: -150
OS2TypoDOffset: 1
OS2TypoLinegap: 0
OS2WinAscent: 12
OS2WinAOffset: 1
OS2WinDescent: 0
OS2WinDOffset: 1
HheadAscent: 12
HheadAOffset: 1
HheadDescent: 0
HheadDOffset: 1
OS2SubXSize: 1331
OS2SubYSize: 1229
OS2SubXOff: 0
OS2SubYOff: 154
OS2SupXSize: 1331
OS2SupYSize: 1229
OS2SupXOff: 0
OS2SupYOff: 717
OS2StrikeYSize: 102
OS2StrikeYPos: 512
OS2FamilyClass: 512
OS2Vendor: 'STC '
OS2CodePages: 20000093.00000000
OS2UnicodeRanges: a00000af.5000204b.00000000.00000000
Lookup: 1 0 0 "'aalt' Access All Alternates in Latin lookup 0"  {"'aalt' Access All Alternates in Latin lookup 0 subtable"  } ['aalt' ('DFLT' <'dflt' > 'latn' <'AZE ' 'CRT ' 'MOL ' 'ROM ' 'TRK ' 'dflt' > ) ]
Lookup: 3 0 0 "'aalt' Access All Alternates in Latin lookup 1"  {"'aalt' Access All Alternates in Latin lookup 1 subtable"  } ['aalt' ('DFLT' <'dflt' > 'latn' <'AZE ' 'CRT ' 'MOL ' 'ROM ' 'TRK ' 'dflt' > ) ]
Lookup: 1 0 0 "'locl' Localized Forms lookup 2"  {"'locl' Localized Forms lookup 2 subtable"  } ['locl' ('DFLT' <'AZE ' > ) ]
Lookup: 1 0 0 "'locl' Localized Forms lookup 3"  {"'locl' Localized Forms lookup 3 subtable"  } ['locl' ('DFLT' <'TRK ' > ) ]
Lookup: 4 0 0 "'locl' Localized Forms lookup 4"  {"'locl' Localized Forms lookup 4 subtable"  } ['locl' ('DFLT' <'TRK ' > ) ]

StartChar: .notdef
Encoding: 65536 -1 0
Width: 1850
Flags: HW
LayerCount: 2
Fore
SplineSet
221 1416 m 1,0,-1
 1628 1416 l 1,1,-1
 1628 0 l 1,2,-1
 221 0 l 1,3,-1
 221 1416 l 1,0,-1
462 369 m 1,4,5
 465 365 465 365 483 344.5 c 2,6,-1
 562.5 254.5 l 2,7,8
 581 234 581 234 584 230 c 1,9,-1
 922 594 l 1,10,-1
 1275 229 l 1,11,-1
 1390 346 l 1,12,-1
 1035 709 l 1,13,-1
 1391 1061 l 1,14,-1
 1269 1180 l 1,15,-1
 926 818 l 1,16,-1
 578 1182 l 1,17,-1
 461 1062 l 1,18,-1
 812 705 l 1,19,-1
 462 369 l 1,4,5
EndSplineSet
EndChar

StartChar: numbersign
Encoding: 35 35 2
Width: 1405
Flags: HW
LayerCount: 2
Fore
SplineSet
325 365 m 1,0,-1
 111 365 l 1,1,-1
 117 468 l 1,2,-1
 341 468 l 1,3,-1
 413 922 l 1,4,-1
 191 922 l 1,5,-1
 197 1025 l 1,6,-1
 429 1025 l 1,7,-1
 482 1357 l 1,8,-1
 614 1357 l 1,9,-1
 563 1025 l 1,10,-1
 940 1025 l 1,11,-1
 996 1357 l 1,12,-1
 1128 1357 l 1,13,-1
 1074 1025 l 1,14,-1
 1306 1025 l 1,15,-1
 1300 922 l 1,16,-1
 1058 922 l 1,17,-1
 985 468 l 1,18,-1
 1214 468 l 1,19,-1
 1208 365 l 1,20,-1
 969 365 l 1,21,-1
 912 0 l 1,22,-1
 784 0 l 1,23,-1
 836 365 l 1,24,-1
 458 365 l 1,25,-1
 396 0 l 1,26,-1
 266 0 l 1,27,-1
 325 365 l 1,0,-1
852 468 m 1,28,-1
 923 922 l 1,29,-1
 547 922 l 1,30,-1
 474 468 l 1,31,-1
 852 468 l 1,28,-1
EndSplineSet
EndChar

StartChar: ampersand
Encoding: 38 38 3
Width: 1549
Flags: HW
LayerCount: 2
Fore
SplineSet
947 71 m 1,0,1
 785 -17 785 -17 563 -17 c 0,2,3
 351.194 -17 351.194 -17 215.5 72.5 c 0,4,5
 59 175.723 59 175.723 59 366 c 0,6,7
 59 560.5 59 560.5 279 698 c 0,8,9
 343 738 343 738 413 775 c 1,10,11
 350.643 912.842 350.643 912.842 327.5 1062.5 c 0,12,13
 320 1111 320 1111 320 1177 c 128,-1,14
 320 1243 320 1243 354 1316.5 c 128,-1,15
 388 1390 388 1390 447.5 1441.5 c 0,16,17
 571.699 1549 571.699 1549 762 1549 c 0,18,19
 928.675 1549 928.675 1549 1011 1460 c 0,20,21
 1080 1385.41 1080 1385.41 1080 1269 c 0,22,23
 1080 1105.41 1080 1105.41 917 979 c 0,24,25
 829.736 911.326 829.736 911.326 732.868 859.663 c 2,26,-1
 577 775 l 1,27,28
 776.628 421.813 776.628 421.813 1009 214 c 1,29,30
 1105 326.302 1105 326.302 1105 551 c 0,31,32
 1105 623.556 1105 623.556 1082 690 c 1,33,34
 1049 693 1049 693 993.85 693 c 128,-1,35
 938.7 693 938.7 693 876 660 c 1,36,-1
 876 768 l 1,37,38
 888 780 888 780 923.5 795 c 128,-1,39
 959 810 959 810 1003.5 810 c 128,-1,40
 1048 810 1048 810 1080 806 c 128,-1,41
 1112 802 1112 802 1145 797 c 0,42,43
 1230.8 784 1230.8 784 1278.9 784 c 128,-1,44
 1327 784 1327 784 1359 793 c 128,-1,45
 1391 802 1391 802 1413.5 822.5 c 0,46,47
 1457.2 862.311 1457.2 862.311 1471 955 c 1,48,-1
 1534 955 l 1,49,50
 1527.56 735.93 1527.56 735.93 1417 682 c 0,51,52
 1376 662 1376 662 1336 662 c 0,53,54
 1287 662 1287 662 1242 667 c 1,55,56
 1250 632 1250 632 1250 586 c 0,57,58
 1250 325.398 1250 325.398 1074 160 c 1,59,60
 1194.57 68.5294 1194.57 68.5294 1349.76 68.5294 c 0,61,62
 1359.06 68.5294 1359.06 68.5294 1368 69 c 1,63,-1
 1359 -1 l 1,64,65
 1278.93 -20 1278.93 -20 1193 -20 c 0,66,67
 1049.38 -20 1049.38 -20 947 71 c 1,0,1
543 841 m 1,68,69
 727.483 935.735 727.483 935.735 793.742 996.367 c 128,-1,70
 860 1057 860 1057 892 1116.5 c 128,-1,71
 924 1176 924 1176 924 1233 c 128,-1,72
 924 1290 924 1290 916 1327.5 c 128,-1,73
 908 1365 908 1365 887.5 1396 c 0,74,75
 841.21 1466 841.21 1466 742 1466 c 0,76,77
 615.615 1466 615.615 1466 539 1383 c 0,78,79
 464 1301.75 464 1301.75 464 1173 c 0,80,81
 464 1017.23 464 1017.23 543 841 c 1,68,69
452 700 m 1,82,83
 222 549.796 222 549.796 222 369 c 0,84,85
 222 226.489 222 226.489 321 147.5 c 0,86,87
 415.627 72 415.627 72 578 72 c 0,88,89
 768.769 72 768.769 72 887 125 c 1,90,91
 683.513 315.926 683.513 315.926 538 554.5 c 1,92,-1
 452 700 l 1,82,83
EndSplineSet
EndChar

StartChar: quotesingle
Encoding: 39 39 4
Width: 524
Flags: HW
LayerCount: 2
Fore
SplineSet
342 1687 m 1,0,-1
 524 1687 l 1,1,-1
 369 966 l 1,2,-1
 256 966 l 1,3,-1
 342 1687 l 1,0,-1
EndSplineSet
EndChar

StartChar: parenleft
Encoding: 40 40 5
Width: 854
Flags: HW
LayerCount: 2
Fore
SplineSet
223 269.5 m 0,0,1
 203 377 203 377 203 492.5 c 128,-1,2
 203 608 203 608 220 738 c 128,-1,3
 237 868 237 868 283 996 c 128,-1,4
 329 1124 329 1124 388.5 1232.5 c 128,-1,5
 448 1341 448 1341 515 1429 c 128,-1,6
 582 1517 582 1517 643 1582 c 0,7,8
 759.061 1705.67 759.061 1705.67 827 1741 c 1,9,-1
 897 1693 l 1,10,11
 791.353 1628.69 791.353 1628.69 642.5 1407.5 c 0,12,13
 445.833 1115.26 445.833 1115.26 388 763 c 1,14,15
 369 613.375 369 613.375 369 505.688 c 128,-1,16
 369 398 369 398 383.5 301.5 c 128,-1,17
 398 205 398 205 421.5 124 c 128,-1,18
 445 43 445 43 475 -22 c 128,-1,19
 505 -87 505 -87 535.5 -136 c 0,20,21
 591.93 -226.657 591.93 -226.657 643 -268 c 1,22,-1
 557 -319 l 1,23,-1
 543 -319 l 1,24,25
 439.691 -244.388 439.691 -244.388 345 -80.5 c 0,26,27
 261.1 64.7111 261.1 64.7111 223 269.5 c 0,0,1
EndSplineSet
EndChar

StartChar: asterisk
Encoding: 42 42 7
Width: 1366
Flags: HW
LayerCount: 2
Fore
SplineSet
284 963 m 1,0,-1
 603 1099 l 1,1,-1
 727 1147 l 1,2,-1
 614 1197 l 1,3,-1
 322 1340 l 1,4,-1
 413 1473 l 1,5,-1
 665 1272 l 1,6,-1
 757 1192 l 1,7,-1
 749 1319 l 1,8,-1
 746 1653 l 1,9,-1
 899 1652 l 1,10,-1
 836 1319 l 1,11,-1
 808 1192 l 1,12,-1
 917 1272 l 1,13,-1
 1210 1469 l 1,14,-1
 1272 1335 l 1,15,-1
 952 1196 l 1,16,-1
 829 1146 l 1,17,-1
 939 1098 l 1,18,-1
 1226 956 l 1,19,-1
 1134 824 l 1,20,-1
 888 1023 l 1,21,-1
 798 1104 l 1,22,-1
 805 981 l 1,23,-1
 808 647 l 1,24,-1
 654 648 l 1,25,-1
 718 981 l 1,26,-1
 747 1104 l 1,27,-1
 639 1024 l 1,28,-1
 347 829 l 1,29,-1
 284 963 l 1,0,-1
EndSplineSet
EndChar

StartChar: plus
Encoding: 43 43 8
Width: 1366
Flags: HW
LayerCount: 2
Fore
SplineSet
609 536 m 1,0,-1
 636 715 l 1,1,-1
 479 709 l 1,2,-1
 254 709 l 1,3,-1
 268 836 l 1,4,-1
 494 836 l 1,5,-1
 649 827 l 1,6,-1
 665 1005 l 1,7,-1
 692 1235 l 1,8,-1
 835 1235 l 1,9,-1
 809 1005 l 1,10,-1
 779 827 l 1,11,-1
 911 836 l 1,12,-1
 1166 836 l 1,13,-1
 1151 709 l 1,14,-1
 896 709 l 1,15,-1
 767 715 l 1,16,17
 767 699 767 699 765 675 c 2,18,-1
 757 576 l 2,19,20
 755 552 755 552 754 536 c 2,21,-1
 724 295 l 1,22,-1
 580 295 l 1,23,-1
 609 536 l 1,0,-1
EndSplineSet
EndChar

StartChar: comma
Encoding: 44 44 9
Width: 563
Flags: HW
LayerCount: 2
Fore
SplineSet
96 159 m 1,0,-1
 186 265 l 1,1,2
 335.887 228.186 335.887 228.186 369 75.5 c 0,3,4
 378 34 378 34 378 -27 c 128,-1,5
 378 -88 378 -88 350 -164.5 c 128,-1,6
 322 -241 322 -241 272.5 -305 c 0,7,8
 169.641 -437.989 169.641 -437.989 5 -501 c 1,9,-1
 -29 -446 l 1,10,-1
 -27 -428 l 1,11,12
 68.1762 -385.699 68.1762 -385.699 139.5 -287.5 c 0,13,14
 216 -182.174 216 -182.174 216 -69 c 0,15,16
 216 4.11765 216 4.11765 188.5 44.5588 c 0,17,18
 141.346 113.902 141.346 113.902 91 116 c 1,19,-1
 96 159 l 1,0,-1
EndSplineSet
EndChar

StartChar: period
Encoding: 46 46 10
Width: 526
Flags: HW
LayerCount: 2
Fore
SplineSet
202 -18 m 128,-1,1
 156 -18 156 -18 133.734 6.04688 c 128,-1,2
 111.469 30.0938 111.469 30.0938 111.469 68.2988 c 128,-1,3
 111.469 106.504 111.469 106.504 125.734 133.252 c 128,-1,4
 140 160 140 160 157 176 c 0,5,6
 193.125 210 193.125 210 245.062 210 c 128,-1,7
 297 210 297 210 316.155 183.273 c 128,-1,8
 335.309 156.545 335.309 156.545 335.309 135.682 c 0,9,10
 335.309 54.7576 335.309 54.7576 291.655 18.3788 c 128,-1,0
 248 -18 248 -18 202 -18 c 128,-1,1
EndSplineSet
EndChar

StartChar: slash
Encoding: 47 47 11
Width: 854
Flags: HW
LayerCount: 2
Fore
SplineSet
-117 -362 m 1,0,-1
 745 1597 l 1,1,-1
 884 1597 l 1,2,-1
 21 -362 l 1,3,-1
 -117 -362 l 1,0,-1
EndSplineSet
EndChar

StartChar: zero
Encoding: 48 48 12
Width: 1270
Flags: HW
LayerCount: 2
Fore
SplineSet
152.5 270.5 m 128,-1,1
 129 355 129 355 129 478 c 128,-1,2
 129 601 129 601 176.5 731 c 128,-1,3
 224 861 224 861 306.5 957 c 128,-1,4
 389 1053 389 1053 500.5 1107.5 c 128,-1,5
 612 1162 612 1162 733.5 1162 c 128,-1,6
 855 1162 855 1162 933.5 1123.5 c 128,-1,7
 1012 1085 1012 1085 1060.5 1021 c 0,8,9
 1151 901.577 1151 901.577 1151 697 c 0,10,11
 1151 406.35 1151 406.35 983 199.5 c 0,12,13
 903 101 903 101 791.5 42.5 c 128,-1,14
 680 -16 680 -16 557 -16 c 128,-1,15
 434 -16 434 -16 355.5 21.5 c 128,-1,16
 277 59 277 59 226.5 122.5 c 128,-1,0
 176 186 176 186 152.5 270.5 c 128,-1,1
985 682 m 0,17,18
 985 1074 985 1074 719 1074 c 0,19,20
 577.374 1074 577.374 1074 473.5 974.5 c 0,21,22
 340.92 847.502 340.92 847.502 304.5 599.5 c 0,23,24
 294 528 294 528 294 456 c 128,-1,25
 294 384 294 384 308.5 313.5 c 128,-1,26
 323 243 323 243 355 189.5 c 0,27,28
 424.682 73 424.682 73 562 73 c 0,29,30
 763.729 73 763.729 73 880 269 c 0,31,32
 985 446 985 446 985 682 c 0,17,18
EndSplineSet
EndChar

StartChar: one
Encoding: 49 49 13
Width: 954
Flags: HW
LayerCount: 2
Fore
SplineSet
138 70 m 1,0,-1
 356 91 l 1,1,-1
 482 966 l 1,2,3
 357 923.5 l 2,4,5
 269.111 894.622 269.111 894.622 206 882 c 1,6,-1
 194 960 l 1,7,8
 338.313 993.303 338.313 993.303 511.5 1104 c 1,9,-1
 600 1162 l 1,10,-1
 670 1143 l 1,11,-1
 518 92 l 1,12,-1
 751 70 l 1,13,-1
 743 0 l 1,14,-1
 130 0 l 1,15,-1
 138 70 l 1,0,-1
EndSplineSet
Substitution2: "'sups' Superscript in Latin lookup 11 subtable" onesuperior
EndChar

StartChar: two
Encoding: 50 50 14
Width: 1273
Flags: HW
LayerCount: 2
Fore
SplineSet
632 1052 m 0,0,1
 446.667 1052 446.667 1052 260 892 c 1,2,-1
 217 964 l 1,3,4
 335.519 1090.42 335.519 1090.42 532 1143 c 0,5,6
 603 1162 603 1162 691.5 1162 c 128,-1,7
 780 1162 780 1162 850.5 1135 c 128,-1,8
 921 1108 921 1108 966.5 1062.5 c 0,9,10
 1055 974 1055 974 1055 835 c 0,11,12
 1055 582.53 1055 582.53 658 307.5 c 0,13,14
 509.101 204.347 509.101 204.347 307 101 c 1,15,-1
 945 131 l 1,16,-1
 1038 305 l 1,17,-1
 1119 276 l 1,18,-1
 1040 0 l 1,19,-1
 107 0 l 1,20,-1
 93 67 l 1,21,22
 712.272 373.444 712.272 373.444 851.5 674 c 0,23,24
 883 742 883 742 883 809 c 0,25,26
 883 926 883 926 818.5 989 c 128,-1,27
 754 1052 754 1052 632 1052 c 0,0,1
EndSplineSet
Substitution2: "'sups' Superscript in Latin lookup 11 subtable" twosuperior
EndChar

StartChar: three
Encoding: 51 51 15
Width: 1128
Flags: HW
LayerCount: 2
Fore
SplineSet
67 -223 m 1,0,1
 150.6 -234 150.6 -234 232.3 -234 c 128,-1,2
 314 -234 314 -234 412.5 -208 c 128,-1,3
 511 -182 511 -182 587.5 -132.5 c 0,4,5
 757 -22.8235 757 -22.8235 757 155 c 0,6,7
 757 415.346 757 415.346 461 419 c 1,8,9
 452 415 452 415 427 408 c 0,10,11
 351.591 387.369 351.591 387.369 324.295 380.685 c 128,-1,12
 297 374 297 374 289 371 c 1,13,-1
 301 466 l 1,14,15
 625.38 544.422 625.38 544.422 736 714.5 c 0,16,17
 776 776 776 776 776 839.5 c 128,-1,18
 776 903 776 903 760 940.5 c 128,-1,19
 744 978 744 978 715 1002.5 c 0,20,21
 657.592 1051 657.592 1051 557 1051 c 0,22,23
 391.25 1051 391.25 1051 207 917 c 1,24,-1
 173 998 l 1,25,26
 279.54 1100.28 279.54 1100.28 475.5 1145.5 c 0,27,28
 547 1162 547 1162 619 1162 c 128,-1,29
 691 1162 691 1162 750 1145.5 c 128,-1,30
 809 1129 809 1129 854.5 1095 c 0,31,32
 954 1020.65 954 1020.65 954 881 c 0,33,34
 954 753 954 753 839.5 638.5 c 0,35,36
 736.889 535.889 736.889 535.889 586 482 c 1,37,38
 762.81 482 762.81 482 857 390 c 0,39,40
 940 308.93 940 308.93 940 176 c 0,41,42
 940 29.3168 940 29.3168 831.5 -91 c 0,43,44
 679.63 -259.411 679.63 -259.411 397.5 -311 c 0,45,46
 310 -327 310 -327 247.5 -327 c 0,47,48
 152 -327 152 -327 56 -315 c 1,49,-1
 67 -223 l 1,0,1
EndSplineSet
Substitution2: "'sups' Superscript in Latin lookup 11 subtable" threesuperior
EndChar

StartChar: four
Encoding: 52 52 16
Width: 1288
Flags: HW
LayerCount: 2
Fore
SplineSet
45 76 m 1,0,1
 213.5 345 l 1,2,-1
 382.5 628 l 1,3,-1
 556.5 930 l 1,4,-1
 740 1256 l 1,5,-1
 841 1256 l 1,6,-1
 905 1184 l 1,7,-1
 305 246 l 1,8,-1
 202 97 l 1,9,-1
 745 119 l 1,10,-1
 817 602 l 1,11,-1
 972 649 l 1,12,-1
 895 128 l 1,13,-1
 1144 139 l 1,14,-1
 1127 0 l 1,15,-1
 877 0 l 1,16,-1
 822 -375 l 1,17,-1
 670 -375 l 1,18,-1
 727 0 l 1,19,-1
 74 0 l 1,20,-1
 45 76 l 1,0,1
EndSplineSet
EndChar

StartChar: five
Encoding: 53 53 17
Width: 1140
Flags: HW
LayerCount: 2
Fore
SplineSet
69 -255 m 1,0,1
 114 -264 114 -264 174.5 -264 c 128,-1,2
 235 -264 235 -264 311.5 -251.5 c 128,-1,3
 388 -239 388 -239 457.5 -214.5 c 128,-1,4
 527 -190 527 -190 587.5 -153 c 128,-1,5
 648 -116 648 -116 692 -67 c 0,6,7
 786 37.6818 786 37.6818 786 180 c 0,8,9
 786 405.111 786 405.111 616 466.5 c 0,10,11
 562 486 562 486 490.5 486 c 128,-1,12
 419 486 419 486 348 463.5 c 128,-1,13
 277 441 277 441 214 417 c 1,14,-1
 173 449 l 1,15,-1
 336 1146 l 1,16,-1
 909 1146 l 1,17,-1
 929 1162 l 1,18,-1
 1063 1162 l 1,19,-1
 1015 1011 l 1,20,-1
 443 1011 l 1,21,-1
 324 531 l 1,22,23
 450.368 580 450.368 580 556.184 580 c 128,-1,24
 662 580 662 580 736 557.5 c 128,-1,25
 810 535 810 535 861.5 488.5 c 0,26,27
 969 391.437 969 391.437 969 204 c 0,28,29
 969 43.6316 969 43.6316 846 -88 c 0,30,31
 734.359 -207.476 734.359 -207.476 549.5 -278 c 0,32,33
 371.258 -346 371.258 -346 188 -346 c 0,34,35
 109 -346 109 -346 58 -329 c 1,36,-1
 69 -255 l 1,0,1
EndSplineSet
EndChar

StartChar: six
Encoding: 54 54 18
Width: 1292
Flags: HW
LayerCount: 2
Fore
SplineSet
385 843 m 1,0,1
 542.143 975 542.143 975 761 975 c 0,2,3
 943.6 975 943.6 975 1041.5 859.5 c 0,4,5
 1127 758.629 1127 758.629 1127 601 c 0,6,7
 1127 368.347 1127 368.347 974 181 c 0,8,9
 871.481 55.4667 871.481 55.4667 725.5 5.5 c 0,10,11
 651 -20 651 -20 558 -20 c 128,-1,12
 465 -20 465 -20 388 18 c 128,-1,13
 311 56 311 56 259.5 122 c 0,14,15
 156 254.641 156 254.641 156 469 c 0,16,17
 156 834.416 156 834.416 399 1150 c 0,18,19
 554.869 1352.43 554.869 1352.43 777 1475.5 c 0,20,21
 888 1537 888 1537 1011 1571 c 1,22,-1
 1035 1502 l 1,23,24
 803.639 1418.4 803.639 1418.4 629 1238.5 c 0,25,26
 460.242 1064.66 460.242 1064.66 385 843 c 1,0,1
351 696 m 1,27,28
 322 573.786 322 573.786 322 470.893 c 128,-1,29
 322 368 322 368 339 297 c 128,-1,30
 356 226 356 226 390.5 175 c 0,31,32
 462.882 68 462.882 68 603 68 c 0,33,34
 773.485 68 773.485 68 874.5 237.5 c 0,35,36
 960 380.966 960 380.966 960 563 c 0,37,38
 960 787.172 960 787.172 819.5 855 c 0,39,40
 776 876 776 876 710.5 876 c 128,-1,41
 645 876 645 876 583.5 855.5 c 128,-1,42
 522 835 522 835 476 806 c 0,43,44
 408.131 763.213 408.131 763.213 351 696 c 1,27,28
EndSplineSet
EndChar

StartChar: seven
Encoding: 55 55 19
Width: 1120
Flags: HW
LayerCount: 2
Fore
SplineSet
904 1034 m 1,0,-1
 300 1024 l 1,1,-1
 210 813 l 1,2,-1
 107 817 l 1,3,-1
 177 1146 l 1,4,-1
 1039 1146 l 1,5,-1
 1067 1109 l 1,6,-1
 425 -315 l 1,7,-1
 259 -262 l 1,8,-1
 904 1034 l 1,0,-1
EndSplineSet
EndChar

StartChar: eight
Encoding: 56 56 20
Width: 1289
Flags: HW
LayerCount: 2
Fore
SplineSet
1158 1225 m 0,0,1
 1158 989.164 1158 989.164 785 795 c 1,2,-1
 893 713 l 1,3,4
 1086 559.315 1086 559.315 1086 398 c 0,5,6
 1086 209.286 1086 209.286 925 91 c 0,7,8
 773.917 -20 773.917 -20 569 -20 c 0,9,10
 391.686 -20 391.686 -20 273.5 64 c 0,11,12
 139 159.595 139 159.595 139 333 c 0,13,14
 139 599.5 139 599.5 536 798 c 1,15,16
 435.766 878.187 435.766 878.187 396.883 931.094 c 0,17,18
 321 1034.34 321 1034.34 321 1137.17 c 128,-1,19
 321 1240 321 1240 355.5 1315.5 c 128,-1,20
 390 1391 390 1391 450.5 1443 c 0,21,22
 574.99 1550 574.99 1550 778 1550 c 0,23,24
 948.429 1550 948.429 1550 1052 1463 c 0,25,26
 1158 1373.96 1158 1373.96 1158 1225 c 0,0,1
710 848 m 1,27,28
 900.61 933.961 900.61 933.961 974.5 1091.5 c 0,29,30
 1001 1148 1001 1148 1001 1213.5 c 128,-1,31
 1001 1279 1001 1279 983 1327.5 c 128,-1,32
 965 1376 965 1376 932.5 1407.5 c 0,33,34
 868.016 1470 868.016 1470 761 1470 c 0,35,36
 636.367 1470 636.367 1470 557 1387.5 c 0,37,38
 477 1304.34 477 1304.34 477 1171 c 0,39,40
 477 1035.18 477 1035.18 620.5 917 c 0,41,42
 663 882 663 882 710 848 c 1,27,28
337 487.5 m 0,43,44
 310 428 310 428 309.5 361.5 c 128,-1,45
 309 295 309 295 327.5 241 c 128,-1,46
 346 187 346 187 382 148 c 0,47,48
 457.692 66 457.692 66 597 66 c 0,49,50
 730.766 66 730.766 66 821.5 144.5 c 0,51,52
 918 227.989 918 227.989 918 369 c 0,53,54
 918 513.737 918 513.737 727 659.5 c 0,55,56
 670 703 670 703 606 747 c 1,57,58
 413.566 656.229 413.566 656.229 337 487.5 c 0,43,44
EndSplineSet
EndChar

StartChar: nine
Encoding: 57 57 21
Width: 1271
Flags: HW
LayerCount: 2
Fore
SplineSet
229 -363 m 1,0,1
 580.314 -233.885 580.314 -233.885 779.5 88 c 0,2,3
 842 189 842 189 880 297 c 1,4,5
 781.894 210.667 781.894 210.667 628 177.5 c 0,6,7
 570 165 570 165 487 165 c 128,-1,8
 404 165 404 165 334 197.5 c 128,-1,9
 264 230 264 230 220 283 c 0,10,11
 136 384.182 136 384.182 136 546 c 0,12,13
 136 769.889 136 769.889 289.5 957.5 c 0,14,15
 455.182 1160 455.182 1160 697 1160 c 0,16,17
 893.698 1160 893.698 1160 1004 1020.5 c 0,18,19
 1107 890.235 1107 890.235 1107 682 c 0,20,21
 1107 306.301 1107 306.301 863.5 -12 c 0,22,23
 708.354 -214.806 708.354 -214.806 486 -337 c 0,24,25
 375 -398 375 -398 253 -432 c 1,26,-1
 229 -363 l 1,0,1
551 263 m 0,27,28
 615 263 615 263 676 283.5 c 128,-1,29
 737 304 737 304 783.5 333 c 0,30,31
 853.327 376.548 853.327 376.548 912 445 c 1,32,33
 942 556.429 942 556.429 942 666.714 c 128,-1,34
 942 777 942 777 925 846 c 128,-1,35
 908 915 908 915 873.5 965.5 c 0,36,37
 800.059 1073 800.059 1073 660 1073 c 0,38,39
 488.837 1073 488.837 1073 390 906 c 0,40,41
 304 760.69 304 760.69 304 589 c 0,42,43
 304 436.333 304 436.333 369.5 349 c 0,44,45
 434 263 434 263 551 263 c 0,27,28
EndSplineSet
EndChar

StartChar: less
Encoding: 60 60 24
Width: 1368
Flags: HW
LayerCount: 2
Fore
SplineSet
210 802 m 1,0,-1
 1220 1324 l 1,1,-1
 1201 1168 l 1,2,-1
 361 751 l 1,3,-1
 1103 333 l 1,4,-1
 1085 176 l 1,5,-1
 197 699 l 1,6,-1
 210 802 l 1,0,-1
EndSplineSet
EndChar

StartChar: equal
Encoding: 61 61 25
Width: 1063
Flags: HW
LayerCount: 2
Fore
SplineSet
166 990 m 1,0,-1
 981 990 l 1,1,-1
 967 865 l 1,2,-1
 152 865 l 1,3,-1
 166 990 l 1,0,-1
96 480 m 1,4,-1
 911 480 l 1,5,-1
 897 355 l 1,6,-1
 82 355 l 1,7,-1
 96 480 l 1,4,-1
EndSplineSet
EndChar

StartChar: question
Encoding: 63 63 27
Width: 1020
Flags: HW
LayerCount: 2
Fore
SplineSet
386 464 m 1,0,1
 331.846 518.154 331.846 518.154 312 645.5 c 0,2,3
 306 684 306 684 306 727.5 c 128,-1,4
 306 771 306 771 329 811 c 128,-1,5
 352 851 352 851 392.5 886 c 128,-1,6
 433 921 433 921 487 953.5 c 1,7,-1
 684.5 1065.5 l 1,8,9
 823.518 1146.16 823.518 1146.16 855 1217 c 1,10,11
 867 1256.43 867 1256.43 867 1326.71 c 128,-1,12
 867 1397 867 1397 838.5 1468 c 128,-1,13
 810 1539 810 1539 762 1587 c 0,14,15
 665 1684 665 1684 514 1684 c 0,16,17
 403.2 1684 403.2 1684 331 1646 c 1,18,-1
 353 1760 l 1,19,20
 388.222 1795.22 388.222 1795.22 495 1809 c 0,21,22
 526 1813 526 1813 556 1813 c 0,23,24
 798.857 1813 798.857 1813 913 1672 c 0,25,26
 1005 1558.35 1005 1558.35 1005 1373 c 0,27,28
 1005 1156.65 1005 1156.65 830.5 1031.5 c 0,29,30
 781 996 781 996 729 966.5 c 2,31,-1
 627.5 910.5 l 1,32,33
 519.09 852.462 519.09 852.462 476.5 784.5 c 0,34,35
 453 747 453 747 453 708 c 128,-1,36
 453 669 453 669 458.5 642 c 128,-1,37
 464 615 464 615 471.5 589.5 c 128,-1,38
 479 564 479 564 488 541.5 c 2,39,-1
 503 503 l 1,40,-1
 401 463 l 1,41,-1
 386 464 l 1,0,1
469 210 m 0,42,43
 562.043 210 562.043 210 562.043 130.275 c 0,44,45
 562.043 63.9909 562.043 63.9909 511.5 20.5 c 0,46,47
 466.757 -18 466.757 -18 420.878 -18 c 128,-1,48
 375 -18 375 -18 349.481 5.06482 c 128,-1,49
 323.963 28.1296 323.963 28.1296 323.963 65.0329 c 128,-1,50
 323.963 101.936 323.963 101.936 338.5 127 c 128,-1,51
 353 152 353 152 374 170.5 c 0,52,53
 418.838 210 418.838 210 469 210 c 0,42,43
EndSplineSet
EndChar

StartChar: at
Encoding: 64 64 28
Width: 1969
Flags: HW
LayerCount: 2
Fore
SplineSet
1291 -312 m 1,0,1
 1134.85 -428 1134.85 -428 875 -428 c 0,2,3
 536.397 -428 536.397 -428 336 -240.5 c 0,4,5
 120 -38.401 120 -38.401 120 334 c 0,6,7
 120 686.191 120 686.191 268.5 969.5 c 0,8,9
 410.178 1239.79 410.178 1239.79 657 1392 c 0,10,11
 905.108 1545 905.108 1545 1199 1545 c 0,12,13
 1504.71 1545 1504.71 1545 1685 1377 c 0,14,15
 1868 1206.48 1868 1206.48 1868 909 c 0,16,17
 1868 513.286 1868 513.286 1667.5 255.5 c 0,18,19
 1549.44 103.714 1549.44 103.714 1405 48 c 0,20,21
 1335 21 1335 21 1284.5 21 c 128,-1,22
 1234 21 1234 21 1214.5 37 c 128,-1,23
 1195 53 1195 53 1185.5 80.5 c 0,24,25
 1172 119.579 1172 119.579 1172 178.789 c 128,-1,26
 1172 238 1172 238 1174.5 266 c 128,-1,27
 1177 294 1177 294 1182 328.5 c 0,28,29
 1193.75 409.598 1193.75 409.598 1210 480 c 1,30,31
 1008.54 7.00004 1008.54 7.00004 821 7 c 0,32,33
 707.462 7 707.462 7 629 109 c 0,34,35
 542.846 221 542.846 221 542.846 417.101 c 0,36,37
 542.846 672.287 542.846 672.287 676.5 872 c 0,38,39
 767.529 1008.02 767.529 1008.02 914.5 1063.5 c 0,40,41
 990 1092 990 1092 1047 1092 c 128,-1,42
 1104 1092 1104 1092 1134 1089 c 128,-1,43
 1164 1086 1164 1086 1196 1079.5 c 0,44,45
 1271.68 1064.13 1271.68 1064.13 1310 1038 c 1,46,-1
 1444 1063 l 1,47,48
 1370.02 776.942 1370.02 776.942 1330 439 c 0,49,50
 1318 345.4 1318 345.4 1318 277.7 c 2,51,-1
 1318 195 l 2,52,53
 1318 138 1318 138 1353 138 c 0,54,55
 1442.57 138 1442.57 138 1534.5 240.5 c 0,56,57
 1677.41 399.841 1677.41 399.841 1727.5 670 c 0,58,59
 1744 759 1744 759 1744 886 c 128,-1,60
 1744 1013 1744 1013 1694 1125 c 128,-1,61
 1644 1237 1644 1237 1559.5 1307 c 0,62,63
 1398.95 1440 1398.95 1440 1131 1440 c 0,64,65
 863.599 1440 863.599 1440 655.5 1290 c 0,66,67
 459.73 1148.89 459.73 1148.89 350.5 906.5 c 0,68,69
 243 667.952 243 667.952 243 392 c 0,70,71
 243 29.8212 243 29.8212 435.5 -153 c 0,72,73
 608.182 -317 608.182 -317 902 -317 c 0,74,75
 1102.5 -317 1102.5 -317 1265 -242 c 1,76,-1
 1291 -312 l 1,0,1
729.5 218 m 128,-1,78
 773 138 773 138 849 138 c 0,79,80
 914.274 138 914.274 138 1001 260.5 c 0,81,82
 1126.02 437.085 1126.02 437.085 1220 732 c 0,83,84
 1249 823 1249 823 1269 910 c 1,85,86
 1229.14 966.94 1229.14 966.94 1120.5 986 c 0,87,88
 1092 991 1092 991 1045 991 c 128,-1,89
 998 991 998 991 940.5 967.5 c 128,-1,90
 883 944 883 944 840.5 903.5 c 128,-1,91
 798 863 798 863 768.5 809 c 128,-1,92
 739 755 739 755 720.5 694.5 c 0,93,94
 686 581.676 686 581.676 686 439.838 c 128,-1,77
 686 298 686 298 729.5 218 c 128,-1,78
EndSplineSet
EndChar

StartChar: A
Encoding: 65 65 29
Width: 1264
Flags: HW
LayerCount: 2
Fore
SplineSet
726 1530 m 1,0,-1
 893 1530 l 1,1,-1
 1128 96 l 1,2,-1
 1295 69 l 1,3,-1
 1289 0 l 1,4,-1
 801 0 l 1,5,-1
 806 69 l 1,6,-1
 971 93 l 1,7,-1
 919 449 l 1,8,-1
 319 449 l 1,9,-1
 148 94 l 1,10,-1
 321 69 l 1,11,-1
 316 0 l 1,12,-1
 -148 0 l 1,13,-1
 -140 69 l 1,14,-1
 4 93 l 1,15,-1
 726 1530 l 1,0,-1
905 547 m 1,16,-1
 781 1403 l 1,17,-1
 367 547 l 1,18,-1
 905 547 l 1,16,-1
EndSplineSet
EndChar

StartChar: B
Encoding: 66 66 30
Width: 1293
Flags: HW
LayerCount: 2
Fore
SplineSet
523 -14 m 1,0,-1
 259 0 l 1,1,-1
 40 0 l 1,2,-1
 47 69 l 1,3,-1
 193 94 l 1,4,-1
 374 1430 l 1,5,-1
 242 1449 l 1,6,-1
 252 1530 l 1,7,-1
 489 1530 l 1,8,9
 558 1532 558 1532 627.5 1538.5 c 128,-1,10
 697 1545 697 1545 792.5 1545 c 128,-1,11
 888 1545 888 1545 969 1517.5 c 128,-1,12
 1050 1490 1050 1490 1101 1444.5 c 0,13,14
 1200.05 1356.14 1200.05 1356.14 1200.05 1210.58 c 0,15,16
 1200.05 904.054 1200.05 904.054 887 814 c 1,17,18
 1012.56 797.533 1012.56 797.533 1099.5 708.5 c 0,19,20
 1192.08 613.694 1192.08 613.694 1192.08 482.036 c 128,-1,21
 1192.08 350.377 1192.08 350.377 1142.04 256.189 c 128,-1,22
 1092 162 1092 162 1001 101.5 c 0,23,24
 827.273 -14 827.273 -14 523 -14 c 1,0,-1
526.333 846.667 m 2,25,-1
 674 848 l 1,26,27
 934.083 848 934.083 848 1014.5 1041 c 0,28,29
 1041.04 1104.68 1041.04 1104.68 1041.04 1191.64 c 0,30,31
 1041.04 1324.12 1041.04 1324.12 973.5 1385 c 0,32,33
 900.281 1451 900.281 1451 735 1451 c 0,34,35
 616.333 1451 616.333 1451 534 1438 c 1,36,-1
 455 848 l 1,37,38
 489 846.667 489 846.667 526.333 846.667 c 2,25,-1
559 84 m 0,39,40
 1022.03 84 1022.03 84 1022.03 465.768 c 0,41,42
 1022.03 604.268 1022.03 604.268 939.015 675.134 c 128,-1,43
 856 746 856 746 704 746 c 0,44,45
 536 746 536 746 441 741 c 1,46,-1
 355 103 l 1,47,48
 412 84 412 84 559 84 c 0,39,40
EndSplineSet
EndChar

StartChar: C
Encoding: 67 67 31
Width: 1251
Flags: HW
LayerCount: 2
Fore
SplineSet
587.5 -16 m 0,0,1
 504 -16 504 -16 433 11 c 128,-1,2
 362 38 362 38 307 84 c 128,-1,3
 252 130 252 130 212 193 c 128,-1,4
 172 256 172 256 146 327 c 0,5,6
 92.8596 472.114 92.8596 472.114 92.8596 622.32 c 128,-1,7
 92.8596 772.526 92.8596 772.526 118.43 889.763 c 128,-1,8
 144 1007 144 1007 194 1109 c 128,-1,9
 244 1211 244 1211 313.5 1292 c 128,-1,10
 383 1373 383 1373 466.5 1429.5 c 0,11,12
 638.673 1546 638.673 1546 839 1546 c 0,13,14
 1004.94 1546 1004.94 1546 1135 1512.5 c 1,15,-1
 1238 1485 l 1,16,-1
 1170 1122 l 1,17,-1
 1076 1122 l 1,18,-1
 1072 1397 l 1,19,20
 1003.07 1435.3 1003.07 1435.3 938.533 1442.65 c 128,-1,21
 874 1450 874 1450 798.5 1450 c 128,-1,22
 723 1450 723 1450 643.5 1414.5 c 128,-1,23
 564 1379 564 1379 501 1318 c 128,-1,24
 438 1257 438 1257 392 1177 c 0,25,26
 259.75 947 259.75 947 259.75 664.852 c 0,27,28
 259.75 264.387 259.75 264.387 461.5 126.5 c 0,29,30
 531 79 531 79 631 79 c 0,31,32
 769.763 79 769.763 79 868.5 135 c 0,33,34
 902 154 902 154 922 179 c 1,35,36
 923 184 923 184 932 215.5 c 2,37,-1
 972.5 358 l 2,38,39
 982 392 982 392 984 402 c 1,40,-1
 1082 401 l 1,41,-1
 1042 70 l 1,42,-1
 968.5 46.5 l 1,43,44
 776.69 -16 776.69 -16 587.5 -16 c 0,0,1
EndSplineSet
EndChar

StartChar: D
Encoding: 68 68 32
Width: 1426
Flags: HW
LayerCount: 2
Fore
SplineSet
484 1530 m 1,0,-1
 805 1546 l 1,1,2
 1093.37 1546 1093.37 1546 1236 1374 c 0,3,4
 1371.15 1211.02 1371.15 1211.02 1371.15 904.132 c 0,5,6
 1371.15 515.374 1371.15 515.374 1157.5 251 c 0,7,8
 1015.4 75.1698 1015.4 75.1698 807.5 12.5 c 0,9,10
 712.087 -16.2609 712.087 -16.2609 606.253 -16.2609 c 0,11,12
 578.783 -16.2609 578.783 -16.2609 562.391 -15.1304 c 2,13,-1
 500 -11 l 2,14,15
 485 -10 485 -10 470.5 -9 c 128,-1,16
 456 -8 456 -8 429.5 -6 c 128,-1,17
 403 -4 403 -4 373.5 -3 c 2,18,-1
 315.5 -1 l 2,19,20
 287 0 287 0 266 0 c 2,21,-1
 39 0 l 1,22,-1
 46 69 l 1,23,-1
 193 94 l 1,24,-1
 374 1430 l 1,25,-1
 242 1449 l 1,26,-1
 252 1530 l 1,27,-1
 484 1530 l 1,0,-1
355 106 m 1,28,29
 485.5 79 485.5 79 631 79 c 1,30,31
 819.605 88.5255 819.605 88.5255 958.5 214.5 c 0,32,33
 1081.97 326.484 1081.97 326.484 1149.5 520.5 c 0,34,35
 1209.06 691.63 1209.06 691.63 1209.06 897.974 c 0,36,37
 1209.06 1324.84 1209.06 1324.84 955.5 1420.5 c 0,38,39
 872 1452 872 1452 760 1452 c 0,40,41
 673.333 1452 673.333 1452 534 1433 c 1,42,-1
 354 105 l 1,43,-1
 355 106 l 1,28,29
EndSplineSet
EndChar

StartChar: E
Encoding: 69 69 33
Width: 1210
Flags: HW
LayerCount: 2
Fore
SplineSet
46 69 m 1,0,-1
 193 93 l 1,1,-1
 373 1430 l 1,2,-1
 241 1449 l 1,3,-1
 251 1530 l 1,4,-1
 1162 1530 l 1,5,-1
 1155 1220 l 1,6,-1
 1069 1220 l 1,7,-1
 1033 1427 l 1,8,-1
 536 1443 l 1,9,-1
 456 840 l 1,10,-1
 922 846 l 1,11,-1
 912 721 l 1,12,-1
 441 734 l 1,13,-1
 353 94 l 1,14,-1
 961 113 l 1,15,-1
 1074 341 l 1,16,-1
 1158 316 l 1,17,-1
 1069 0 l 1,18,-1
 38 0 l 1,19,-1
 46 69 l 1,0,-1
EndSplineSet
EndChar

StartChar: F
Encoding: 70 70 34
Width: 1121
Flags: HW
LayerCount: 2
Fore
SplineSet
46 70 m 1,0,-1
 193 94 l 1,1,-1
 374 1430 l 1,2,-1
 242 1449 l 1,3,-1
 252 1530 l 1,4,-1
 1182 1530 l 1,5,-1
 1162 1220 l 1,6,-1
 1065 1220 l 1,7,-1
 1043 1427 l 1,8,-1
 537 1442 l 1,9,-1
 455 838 l 1,10,-1
 938 846 l 1,11,-1
 928 718 l 1,12,-1
 441 731 l 1,13,-1
 354 96 l 1,14,-1
 597 70 l 1,15,-1
 591 0 l 1,16,-1
 39 0 l 1,17,-1
 46 70 l 1,0,-1
EndSplineSet
EndChar

StartChar: G
Encoding: 71 71 35
Width: 1361
Flags: HW
LayerCount: 2
Fore
SplineSet
601.5 -17 m 0,0,1
 527 -17 527 -17 454.5 8.5 c 128,-1,2
 382 34 382 34 325 79 c 128,-1,3
 268 124 268 124 226.5 185 c 128,-1,4
 185 246 185 246 157.5 317.5 c 0,5,6
 100.841 464.814 100.841 464.814 100.841 652.907 c 128,-1,7
 100.841 841 100.841 841 152.92 1006 c 128,-1,8
 205 1171 205 1171 304.5 1292 c 128,-1,9
 404 1413 404 1413 542.5 1479.5 c 128,-1,10
 681 1546 681 1546 847 1546 c 0,11,12
 1059 1546 1059 1546 1248 1490 c 1,13,-1
 1286 1479 l 1,14,-1
 1229 1183 l 1,15,-1
 1127 1183 l 1,16,-1
 1120 1385 l 1,17,18
 1023.54 1451 1023.54 1451 829 1451 c 0,19,20
 638.899 1451 638.899 1451 505 1322.5 c 0,21,22
 327.985 1152.62 327.985 1152.62 284 829.5 c 0,23,24
 271.929 740.821 271.929 740.821 271.929 695.161 c 128,-1,25
 271.929 649.5 271.929 649.5 272.464 595.25 c 128,-1,26
 273 541 273 541 294.5 440 c 128,-1,27
 316 339 316 339 361.5 258 c 0,28,29
 463.173 77 463.173 77 653 77 c 0,30,31
 801 77 801 77 921 134 c 0,32,33
 961 153 961 153 989 178 c 1,34,-1
 1056 616 l 1,35,-1
 786 630 l 1,36,-1
 797 723 l 1,37,-1
 1232 723 l 1,38,-1
 1139 94 l 1,39,40
 1110 91 1110 91 1081.5 82 c 2,41,-1
 930.5 36.5 l 2,42,43
 754.148 -17 754.148 -17 601.5 -17 c 0,0,1
EndSplineSet
EndChar

StartChar: H
Encoding: 72 72 36
Width: 1534
Flags: HW
LayerCount: 2
Fore
SplineSet
48 69 m 1,0,-1
 197 94 l 1,1,-1
 377 1430 l 1,2,-1
 242 1449 l 1,3,-1
 252 1530 l 1,4,-1
 697 1530 l 1,5,-1
 689 1449 l 1,6,-1
 538 1430 l 1,7,-1
 457 830 l 1,8,-1
 1155 830 l 1,9,-1
 1236 1430 l 1,10,-1
 1088 1449 l 1,11,-1
 1095 1530 l 1,12,-1
 1545 1530 l 1,13,-1
 1536 1449 l 1,14,-1
 1396 1430 l 1,15,-1
 1217 95 l 1,16,-1
 1371 69 l 1,17,-1
 1363 0 l 1,18,-1
 890 0 l 1,19,-1
 897 70 l 1,20,-1
 1057 95 l 1,21,-1
 1141 726 l 1,22,-1
 443 726 l 1,23,-1
 358 94 l 1,24,-1
 514 70 l 1,25,-1
 507 0 l 1,26,-1
 41 0 l 1,27,-1
 48 69 l 1,0,-1
EndSplineSet
EndChar

StartChar: I
Encoding: 73 73 37
Width: 717
Flags: HW
LayerCount: 2
Fore
SplineSet
61 69 m 1,0,-1
 210 94 l 1,1,-1
 390 1430 l 1,2,-1
 255 1449 l 1,3,-1
 265 1530 l 1,4,-1
 710 1530 l 1,5,-1
 702 1449 l 1,6,-1
 551 1430 l 1,7,-1
 371 94 l 1,8,-1
 527 70 l 1,9,-1
 520 0 l 1,10,-1
 54 0 l 1,11,-1
 61 69 l 1,0,-1
EndSplineSet
EndChar

StartChar: J
Encoding: 74 74 38
Width: 694
Flags: HW
LayerCount: 2
Fore
SplineSet
196 82 m 0,0,1
 243.439 320.829 243.439 320.829 283.219 617.915 c 1,2,3
 345 1091.5 l 1,4,5
 367 1268 367 1268 390 1431 c 1,6,-1
 227 1449 l 1,7,-1
 238 1530 l 1,8,-1
 725 1530 l 1,9,-1
 716 1449 l 1,10,-1
 546 1431 l 1,11,12
 412.524 375.783 412.524 375.783 387.262 237.391 c 128,-1,13
 362 99 362 99 354 75 c 0,14,15
 296.487 -114.235 296.487 -114.235 150.5 -224 c 0,16,17
 28.9886 -315.362 28.9886 -315.362 -142 -345 c 1,18,-1
 -170 -275 l 1,19,20
 -26.7223 -236.793 -26.7223 -236.793 78 -126.5 c 0,21,22
 174.66 -24.6981 174.66 -24.6981 196 82 c 0,0,1
EndSplineSet
EndChar

StartChar: K
Encoding: 75 75 39
Width: 1352
Flags: HW
LayerCount: 2
Fore
SplineSet
44 69 m 1,0,-1
 193 94 l 1,1,-1
 374 1430 l 1,2,-1
 239 1449 l 1,3,-1
 249 1530 l 1,4,-1
 694 1530 l 1,5,-1
 686 1449 l 1,6,-1
 535 1430 l 1,7,-1
 431 663 l 1,8,-1
 1125 1430 l 1,9,-1
 989 1449 l 1,10,-1
 998 1530 l 1,11,-1
 1415 1530 l 1,12,-1
 1406 1449 l 1,13,-1
 1283 1431 l 1,14,-1
 712 827 l 1,15,16
 1063.8 240.855 1063.8 240.855 1088.4 202.927 c 0,17,18
 1135.21 130.755 1135.21 130.755 1165 114 c 1,19,-1
 1310 75 l 1,20,-1
 1299 0 l 1,21,-1
 1050 0 l 1,22,23
 1019.23 3.41916 1019.23 3.41916 965.5 103.5 c 1,24,-1
 835 357 l 1,25,26
 656.622 674.297 656.622 674.297 622 732 c 1,27,-1
 410 508 l 1,28,-1
 354 94 l 1,29,-1
 510 70 l 1,30,-1
 503 0 l 1,31,-1
 37 0 l 1,32,-1
 44 69 l 1,0,-1
EndSplineSet
EndChar

StartChar: L
Encoding: 76 76 40
Width: 1173
Flags: HW
LayerCount: 2
Fore
SplineSet
45 70 m 1,0,-1
 194 94 l 1,1,-1
 374 1430 l 1,2,-1
 239 1449 l 1,3,-1
 249 1530 l 1,4,-1
 722 1530 l 1,5,-1
 713 1449 l 1,6,-1
 535 1430 l 1,7,-1
 354 94 l 1,8,-1
 892 103 l 1,9,-1
 1022 449 l 1,10,-1
 1116 431 l 1,11,-1
 1020 0 l 1,12,-1
 38 0 l 1,13,-1
 45 70 l 1,0,-1
EndSplineSet
EndChar

StartChar: M
Encoding: 77 77 41
Width: 1847
Flags: HW
LayerCount: 2
Fore
SplineSet
-53 70 m 1,0,-1
 103 94 l 1,1,-1
 468 1430 l 1,2,-1
 280 1449 l 1,3,-1
 290 1530 l 1,4,-1
 704 1530 l 1,5,-1
 843 463 l 1,6,-1
 864 204 l 1,7,-1
 963 459 l 1,8,-1
 1465 1530 l 1,9,-1
 1846 1530 l 1,10,-1
 1837 1449 l 1,11,-1
 1658 1430 l 1,12,-1
 1597 95 l 1,13,-1
 1759 70 l 1,14,-1
 1752 0 l 1,15,-1
 1242 0 l 1,16,-1
 1250 70 l 1,17,-1
 1430 93 l 1,18,-1
 1533 1427 l 1,19,-1
 1381 1074 l 1,20,-1
 869 -4 l 1,21,-1
 769 -18 l 1,22,-1
 620 1050 l 1,23,-1
 578 1427 l 1,24,-1
 490 1042 l 1,25,-1
 249 94 l 1,26,-1
 433 70 l 1,27,-1
 426 0 l 1,28,-1
 -61 0 l 1,29,-1
 -53 70 l 1,0,-1
EndSplineSet
EndChar

StartChar: N
Encoding: 78 78 42
Width: 1521
Flags: HW
LayerCount: 2
Fore
SplineSet
31 69 m 1,0,-1
 171 92 l 1,1,-1
 361 1430 l 1,2,-1
 216 1449 l 1,3,-1
 230 1530 l 1,4,-1
 531 1530 l 1,5,-1
 1046 368 l 1,6,-1
 1112 172 l 1,7,-1
 1278 1431 l 1,8,-1
 1127 1449 l 1,9,-1
 1137 1530 l 1,10,-1
 1572 1530 l 1,11,-1
 1564 1449 l 1,12,-1
 1412 1430 l 1,13,-1
 1198 0 l 1,14,-1
 1046 0 l 1,15,-1
 535 1136 l 1,16,-1
 471 1336 l 1,17,-1
 310 94 l 1,18,-1
 474 70 l 1,19,-1
 468 0 l 1,20,-1
 24 0 l 1,21,-1
 31 69 l 1,0,-1
EndSplineSet
EndChar

StartChar: O
Encoding: 79 79 43
Width: 1352
Flags: HW
LayerCount: 2
Fore
SplineSet
598.5 -20 m 0,0,1
 492 -20 492 -20 400.5 27 c 128,-1,2
 309 74 309 74 244.5 160 c 0,3,4
 105.843 344.876 105.843 344.876 105.843 661.014 c 0,5,6
 105.843 1034.17 105.843 1034.17 305.5 1288 c 0,7,8
 437.722 1456.1 437.722 1456.1 618 1518.5 c 0,9,10
 709 1550 709 1550 820 1550 c 128,-1,11
 931 1550 931 1550 1023.5 1498 c 128,-1,12
 1116 1446 1116 1446 1177.5 1356 c 0,13,14
 1305.16 1169.19 1305.16 1169.19 1305.16 868.989 c 0,15,16
 1305.16 498.242 1305.16 498.242 1107.5 243 c 0,17,18
 903.835 -20 903.835 -20 598.5 -20 c 0,0,1
272.789 704.432 m 0,19,20
 272.789 79.7001 272.789 79.7001 628 76 c 1,21,22
 736 76 736 76 831 133.5 c 0,23,24
 1025.47 251.206 1025.47 251.206 1103.5 539 c 0,25,26
 1139.22 670.735 1139.22 670.735 1139.22 823.986 c 0,27,28
 1139.22 1274.84 1139.22 1274.84 949.5 1407.5 c 0,29,30
 883 1454 883 1454 797 1454 c 128,-1,31
 711 1454 711 1454 644 1426.5 c 128,-1,32
 577 1399 577 1399 519.5 1349 c 128,-1,33
 462 1299 462 1299 416 1228.5 c 0,34,35
 272.789 1009.01 272.789 1009.01 272.789 704.432 c 0,19,20
EndSplineSet
EndChar

StartChar: P
Encoding: 80 80 44
Width: 1216
Flags: HW
LayerCount: 2
Fore
SplineSet
775 1547 m 1,0,1
 1227.17 1547 1227.17 1547 1227.17 1140.31 c 0,2,3
 1227.17 869.251 1227.17 869.251 1046 703 c 0,4,5
 872.731 544 872.731 544 609 544 c 0,6,7
 541 544 541 544 491 547.5 c 2,8,-1
 414 553 l 1,9,-1
 354 94 l 1,10,-1
 550 70 l 1,11,-1
 544 0 l 1,12,-1
 37 0 l 1,13,-1
 44 69 l 1,14,-1
 193 94 l 1,15,-1
 374 1430 l 1,16,-1
 239 1449 l 1,17,-1
 249 1530 l 1,18,-1
 482 1530 l 1,19,-1
 775 1547 l 1,0,1
426 657 m 1,20,21
 523.75 640 523.75 640 617 640 c 0,22,23
 1064.06 643.992 1064.06 643.992 1064.06 1151.76 c 0,24,25
 1064.06 1300.7 1064.06 1300.7 995.5 1372 c 0,26,27
 919.538 1451 919.538 1451 750 1451 c 0,28,29
 648 1451 648 1451 536 1430 c 1,30,-1
 426 657 l 1,20,21
EndSplineSet
EndChar

StartChar: Q
Encoding: 81 81 45
Width: 1353
Flags: HW
LayerCount: 2
Fore
SplineSet
688 -13 m 1,0,1
 694.277 -217 694.277 -217 992 -217 c 0,2,3
 1100 -217 1100 -217 1202 -166 c 1,4,-1
 1204 -277 l 1,5,6
 1141.77 -328.858 1141.77 -328.858 1010.5 -351 c 0,7,8
 969 -358 969 -358 914 -358 c 128,-1,9
 859 -358 859 -358 793.5 -337.5 c 0,10,11
 653.616 -293.72 653.616 -293.72 601 -169 c 0,12,13
 581.297 -122.297 581.297 -122.297 581.297 -81.9054 c 128,-1,14
 581.297 -41.5135 581.297 -41.5135 584 -18 c 1,15,16
 368.281 -10.0837 368.281 -10.0837 239.5 170 c 0,17,18
 106.667 355.751 106.667 355.751 106.667 670.315 c 0,19,20
 106.667 903.252 106.667 903.252 197 1106 c 128,-1,21
 287.268 1308.6 287.268 1308.6 449.5 1429.5 c 0,22,23
 612.538 1551 612.538 1551 808 1551 c 0,24,25
 1045.93 1551 1045.93 1551 1178.5 1357 c 0,26,27
 1306.18 1170.15 1306.18 1170.15 1306.18 868.916 c 0,28,29
 1306.18 526.005 1306.18 526.005 1134 278.5 c 0,30,31
 956.391 23.1876 956.391 23.1876 688 -13 c 1,0,1
273.789 705.432 m 0,32,33
 273.789 80.7001 273.789 80.7001 629 77 c 1,34,35
 737 77 737 77 832 134.5 c 0,36,37
 1026.47 252.206 1026.47 252.206 1104.5 540 c 0,38,39
 1140.22 671.735 1140.22 671.735 1140.22 824.986 c 0,40,41
 1140.22 1275.84 1140.22 1275.84 950.5 1408.5 c 0,42,43
 884 1455 884 1455 798 1455 c 128,-1,44
 712 1455 712 1455 645 1427.5 c 128,-1,45
 578 1400 578 1400 520.5 1350 c 128,-1,46
 463 1300 463 1300 417 1229.5 c 0,47,48
 273.789 1010.01 273.789 1010.01 273.789 705.432 c 0,32,33
EndSplineSet
EndChar

StartChar: R
Encoding: 82 82 46
Width: 1324
Flags: HW
LayerCount: 2
Fore
SplineSet
459 1530 m 1,0,-1
 728 1546 l 1,1,2
 1093.56 1546 1093.56 1546 1181 1347 c 0,3,4
 1212.14 1276.13 1212.14 1276.13 1212.14 1185.2 c 128,-1,5
 1212.14 1094.28 1212.14 1094.28 1186.57 1015.64 c 128,-1,6
 1161 937 1161 937 1110.5 872 c 0,7,8
 1006.76 738.468 1006.76 738.468 825 690 c 1,9,10
 924.077 614.041 924.077 614.041 1022 373 c 1,11,12
 1094.31 189.133 1094.31 189.133 1132.15 146.067 c 128,-1,13
 1170 103 1170 103 1202.67 90.8667 c 128,-1,14
 1235.33 78.7333 1235.33 78.7333 1259.33 78.7333 c 128,-1,15
 1283.33 78.7333 1283.33 78.7333 1290 79 c 1,16,-1
 1286 -1 l 1,17,-1
 1062 1 l 2,18,19
 1031.4 1 1031.4 1 1006.2 43 c 0,20,21
 966 110 966 110 921 223.5 c 2,22,-1
 847 411 l 2,23,24
 781.741 577.524 781.741 577.524 721 640 c 0,25,26
 690.268 671.61 690.268 671.61 655.682 671.61 c 0,27,28
 650.878 671.61 650.878 671.61 645.439 671.305 c 128,-1,29
 640 671 640 671 613 671 c 0,30,31
 518.5 671 518.5 671 424 671 c 1,32,-1
 348 94 l 1,33,-1
 536 70 l 1,34,-1
 530 0 l 1,35,-1
 52 0 l 1,36,-1
 59 69 l 1,37,-1
 193 94 l 1,38,-1
 374 1430 l 1,39,-1
 239 1449 l 1,40,-1
 249 1530 l 1,41,-1
 459 1530 l 1,0,-1
436 766 m 1,42,43
 507.25 762.25 507.25 762.25 560.875 762.25 c 0,44,45
 652.75 762.25 652.75 762.25 710.875 766.125 c 128,-1,46
 769 770 769 770 839 801.5 c 0,47,48
 980.788 865.304 980.788 865.304 1030.5 1018.5 c 0,49,50
 1053.15 1088.3 1053.15 1088.3 1053.15 1134.14 c 128,-1,51
 1053.15 1179.98 1053.15 1179.98 1052.58 1216.49 c 128,-1,52
 1052 1253 1052 1253 1033.5 1302.5 c 128,-1,53
 1015 1352 1015 1352 973.5 1385 c 0,54,55
 890.5 1451 890.5 1451 700 1451 c 0,56,57
 619 1451 619 1451 529 1436 c 1,58,-1
 436 766 l 1,42,43
EndSplineSet
EndChar

StartChar: S
Encoding: 83 83 47
Width: 1094
Flags: HW
LayerCount: 2
Fore
SplineSet
91 343 m 1,0,-1
 185 347 l 1,1,-1
 198 137 l 1,2,3
 262.934 93.7107 262.934 93.7107 388 78.5 c 0,4,5
 425 74 425 74 470.5 74 c 128,-1,6
 516 74 516 74 575.5 89 c 128,-1,7
 635 104 635 104 684 137 c 0,8,9
 796 212.429 796 212.429 796 354 c 0,10,11
 796 521.965 796 521.965 652 637.5 c 0,12,13
 609 672 609 672 555.5 705.5 c 128,-1,14
 502 739 502 739 442 781 c 128,-1,15
 382 823 382 823 333.5 875 c 0,16,17
 220.893 995.733 220.893 995.733 220.893 1148.18 c 0,18,19
 220.893 1328.31 220.893 1328.31 353 1440.5 c 0,20,21
 481.944 1550 481.944 1550 680 1550 c 0,22,23
 925.5 1550 925.5 1550 1053 1465 c 1,24,-1
 1007 1203 l 1,25,-1
 921 1203 l 1,26,-1
 907 1400 l 1,27,28
 825.81 1455 825.81 1455 677 1455 c 0,29,30
 483.485 1455 483.485 1455 407.5 1327.5 c 0,31,32
 378 1278 378 1278 378 1205 c 128,-1,33
 378 1132 378 1132 401 1079.5 c 128,-1,34
 424 1027 424 1027 462 984.5 c 0,35,36
 521.044 918.464 521.044 918.464 651 840 c 1,37,38
 789.681 753.324 789.681 753.324 844.341 689.662 c 0,39,40
 954.099 561.826 954.099 561.826 954.099 413.587 c 0,41,42
 954.099 215.503 954.099 215.503 811 94.5 c 0,43,44
 672.043 -23 672.043 -23 455 -23 c 0,45,46
 256.581 -23 256.581 -23 107.5 35.5 c 0,47,48
 68 51 68 51 50 65 c 1,49,-1
 91 343 l 1,0,-1
EndSplineSet
EndChar

StartChar: T
Encoding: 84 84 48
Width: 1235
Flags: HW
LayerCount: 2
Fore
SplineSet
228 75 m 1,0,-1
 469 94 l 1,1,-1
 659 1443 l 1,2,-1
 292 1422 l 1,3,-1
 198 1064 l 1,4,-1
 107 1064 l 1,5,-1
 188 1530 l 1,6,-1
 1318 1530 l 1,7,-1
 1243 1065 l 1,8,-1
 1155 1064 l 1,9,-1
 1185 1423 l 1,10,-1
 820 1443 l 1,11,-1
 630 94 l 1,12,-1
 879 75 l 1,13,-1
 873 0 l 1,14,-1
 221 0 l 1,15,-1
 228 75 l 1,0,-1
EndSplineSet
EndChar

StartChar: U
Encoding: 85 85 49
Width: 1396
Flags: HW
LayerCount: 2
Fore
SplineSet
438 11 m 0,0,1
 177.667 108.233 177.667 108.233 177.667 452.278 c 0,2,3
 177.667 518 177.667 518 186 593 c 1,4,-1
 311 1431 l 1,5,-1
 172 1450 l 1,6,-1
 182 1530 l 1,7,-1
 637 1530 l 1,8,-1
 628 1450 l 1,9,-1
 474 1429 l 1,10,-1
 351 607 l 1,11,12
 340.714 512.714 340.714 512.714 340.714 471.5 c 128,-1,13
 340.714 430.286 340.714 430.286 341.357 383.643 c 128,-1,14
 342 337 342 337 362 272.5 c 128,-1,15
 382 208 382 208 420.5 162.5 c 0,16,17
 499.615 69 499.615 69 651 69 c 0,18,19
 839 69 839 69 946.5 206 c 128,-1,20
 1054 343 1054 343 1088 627 c 1,21,-1
 1207 1429 l 1,22,-1
 1072 1449 l 1,23,-1
 1081 1530 l 1,24,-1
 1485 1530 l 1,25,-1
 1476 1449 l 1,26,-1
 1347 1431 l 1,27,-1
 1227 627 l 1,28,29
 1160.85 117.949 1160.85 117.949 858 14.5 c 0,30,31
 757 -20 757 -20 639 -20 c 128,-1,32
 521 -20 521 -20 438 11 c 0,0,1
EndSplineSet
EndChar

StartChar: V
Encoding: 86 86 50
Width: 1212
Flags: HW
LayerCount: 2
Fore
SplineSet
218 1430 m 1,0,-1
 88 1449 l 1,1,-1
 96 1530 l 1,2,-1
 577 1530 l 1,3,-1
 568 1449 l 1,4,-1
 385 1430 l 1,5,-1
 517 449 l 1,6,-1
 549 133 l 1,7,-1
 666 449 l 1,8,-1
 1118 1430 l 1,9,-1
 958 1450 l 1,10,-1
 966 1530 l 1,11,-1
 1376 1530 l 1,12,-1
 1368 1450 l 1,13,-1
 1256 1431 l 1,14,-1
 583 -11 l 1,15,-1
 443 -21 l 1,16,-1
 218 1430 l 1,0,-1
EndSplineSet
EndChar

StartChar: W
Encoding: 87 87 51
Width: 1794
Flags: HW
LayerCount: 2
Fore
SplineSet
180 1429 m 1,0,-1
 33 1449 l 1,1,-1
 43 1530 l 1,2,-1
 526 1530 l 1,3,-1
 517 1449 l 1,4,-1
 333 1433 l 1,5,-1
 496 136 l 1,6,-1
 570 374 l 1,7,-1
 934 1286 l 1,8,-1
 919 1432 l 1,9,-1
 774 1449 l 1,10,-1
 783 1530 l 1,11,-1
 1265 1530 l 1,12,-1
 1248 1449 l 1,13,-1
 1071 1432 l 1,14,-1
 1170 435 l 1,15,-1
 1192 136 l 1,16,-1
 1283 398 l 1,17,-1
 1723 1429 l 1,18,-1
 1566 1449 l 1,19,-1
 1575 1530 l 1,20,-1
 2003 1530 l 1,21,-1
 1989 1449 l 1,22,-1
 1856 1429 l 1,23,-1
 1232 -10 l 1,24,-1
 1071 -10 l 1,25,-1
 968 1067 l 1,26,-1
 539 -10 l 1,27,-1
 381 -10 l 1,28,-1
 180 1429 l 1,0,-1
EndSplineSet
EndChar

StartChar: X
Encoding: 88 88 52
Width: 1287
Flags: HW
LayerCount: 2
Fore
SplineSet
-56 70 m 1,0,-1
 78 93 l 1,1,-1
 593 773 l 1,2,-1
 296 1427 l 1,3,-1
 147 1449 l 1,4,-1
 155 1530 l 1,5,-1
 658 1530 l 1,6,-1
 649 1449 l 1,7,-1
 480 1431 l 1,8,-1
 700 877 l 1,9,-1
 1085 1430 l 1,10,-1
 923 1449 l 1,11,-1
 932 1530 l 1,12,-1
 1392 1530 l 1,13,-1
 1384 1449 l 1,14,-1
 1240 1431 l 1,15,-1
 752 779 l 1,16,-1
 1071 94 l 1,17,-1
 1234 70 l 1,18,-1
 1227 0 l 1,19,-1
 703 0 l 1,20,-1
 709 70 l 1,21,-1
 885 93 l 1,22,-1
 643 673 l 1,23,-1
 235 94 l 1,24,-1
 403 69 l 1,25,-1
 396 0 l 1,26,-1
 -65 0 l 1,27,-1
 -56 70 l 1,0,-1
EndSplineSet
EndChar

StartChar: Y
Encoding: 89 89 53
Width: 1167
Flags: HW
LayerCount: 2
Fore
SplineSet
245 70 m 1,0,-1
 458 94 l 1,1,-1
 525 586 l 1,2,-1
 186 1430 l 1,3,-1
 70 1449 l 1,4,-1
 78 1530 l 1,5,-1
 546 1530 l 1,6,-1
 536 1449 l 1,7,-1
 361 1430 l 1,8,-1
 581 822 l 1,9,-1
 623 685 l 1,10,-1
 701 822 l 1,11,-1
 1076 1430 l 1,12,-1
 929 1449 l 1,13,-1
 938 1530 l 1,14,-1
 1350 1530 l 1,15,-1
 1338 1449 l 1,16,-1
 1225 1431 l 1,17,-1
 678 586 l 1,18,-1
 611 94 l 1,19,-1
 834 70 l 1,20,-1
 827 0 l 1,21,-1
 239 0 l 1,22,-1
 245 70 l 1,0,-1
EndSplineSet
EndChar

StartChar: Z
Encoding: 90 90 54
Width: 1203
Flags: HW
LayerCount: 2
Fore
SplineSet
3 73 m 1,0,-1
 911 1293 l 1,1,-1
 1036 1438 l 1,2,-1
 410 1432 l 1,3,-1
 320 1167 l 1,4,-1
 212 1186 l 1,5,-1
 268 1530 l 1,6,-1
 1196 1530 l 1,7,-1
 1217 1461 l 1,8,-1
 291 207 l 1,9,-1
 187 86 l 1,10,-1
 877 106 l 1,11,-1
 998 378 l 1,12,-1
 1109 353 l 1,13,-1
 1016 0 l 1,14,-1
 25 0 l 1,15,-1
 3 73 l 1,0,-1
EndSplineSet
EndChar

StartChar: bracketleft
Encoding: 91 91 55
Width: 854
Flags: HW
LayerCount: 2
Fore
SplineSet
345 -66 m 1,0,-1
 492 -67 l 2,1,2
 534 -67 534 -67 573 -67.5 c 128,-1,3
 612 -68 612 -68 638 -68 c 1,4,-1
 630 -137 l 1,5,6
 482 -174 482 -174 338 -174 c 256,7,8
 264 -174 264 -174 233 -150 c 128,-1,9
 202 -126 202 -126 202 -74 c 128,-1,10
 202 -22 202 -22 205 30 c 128,-1,11
 208 82 208 82 216.5 159.5 c 128,-1,12
 225 237 225 237 237 330.5 c 0,13,14
 272.912 600.181 272.912 600.181 291.456 727.091 c 0,15,16
 393.956 1430.79 393.956 1430.79 402.978 1500.39 c 128,-1,17
 412 1570 412 1570 424 1608.5 c 128,-1,18
 436 1647 436 1647 457 1670.5 c 0,19,20
 494.979 1713 494.979 1713 590 1713 c 0,21,22
 667.833 1713 667.833 1713 763.417 1694.5 c 128,-1,23
 859 1676 859 1676 866 1676 c 1,24,-1
 855 1606 l 1,25,-1
 567 1606 l 1,26,-1
 345 -66 l 1,0,-1
EndSplineSet
EndChar

StartChar: backslash
Encoding: 92 92 56
Width: 854
Flags: HW
LayerCount: 2
Fore
SplineSet
133 1597 m 1,0,-1
 271 1597 l 1,1,-1
 848 -362 l 1,2,-1
 709 -362 l 1,3,-1
 133 1597 l 1,0,-1
EndSplineSet
EndChar

StartChar: asciicircum
Encoding: 94 94 58
Width: 1364
Flags: HW
LayerCount: 2
Fore
SplineSet
708 1531 m 1,0,-1
 867 1531 l 1,1,-1
 1137 510 l 1,2,-1
 1004 510 l 1,3,-1
 768 1350 l 1,4,-1
 316 510 l 1,5,-1
 182 510 l 1,6,-1
 708 1531 l 1,0,-1
EndSplineSet
EndChar

StartChar: underscore
Encoding: 95 95 59
Width: 1335
Flags: HW
LayerCount: 2
Fore
SplineSet
1283 -218 m 1,0,-1
 1267 -338 l 1,1,-1
 -111 -338 l 1,2,-1
 -95 -218 l 1,3,-1
 1283 -218 l 1,0,-1
EndSplineSet
EndChar

StartChar: grave
Encoding: 96 96 60
Width: 541
Flags: HW
LayerCount: 2
Fore
SplineSet
378 1294.5 m 0,0,1
 111.905 1500.63 111.905 1500.63 58 1596 c 1,2,-1
 179 1729 l 1,3,-1
 479 1304 l 1,4,-1
 435 1255 l 1,5,6
 411 1270 411 1270 378 1294.5 c 0,0,1
EndSplineSet
EndChar

StartChar: a
Encoding: 97 97 61
Width: 1138
Flags: HW
LayerCount: 2
Fore
SplineSet
824 -20 m 0,0,1
 707.324 -20 707.324 -20 707.324 97.5332 c 0,2,3
 707.324 106.865 707.324 106.865 708 117 c 2,4,-1
 718 190 l 1,5,6
 622.254 50.0633 622.254 50.0633 481.5 -1.5 c 0,7,8
 431 -20 431 -20 363 -20 c 128,-1,9
 295 -20 295 -20 237 10.5 c 128,-1,10
 179 41 179 41 141 96 c 0,11,12
 66 204.553 66 204.553 66 399 c 0,13,14
 66 562.12 66 562.12 142.5 734.5 c 0,15,16
 273.057 1028.69 273.057 1028.69 518.5 1128 c 0,17,18
 605 1163 605 1163 698 1163 c 128,-1,19
 791 1163 791 1163 899 1127 c 1,20,-1
 900 1128 l 1,21,-1
 1018 1162 l 1,22,-1
 868 173 l 2,23,24
 857.468 104.544 857.468 104.544 890.5 89 c 0,25,26
 899 85 899 85 912.5 85 c 0,27,28
 930.192 85 930.192 85 996 144 c 1,29,-1
 1023 100 l 1,30,31
 1010.4 71.6485 1010.4 71.6485 971.2 41.3243 c 0,32,33
 891.927 -20 891.927 -20 824 -20 c 0,0,1
230 421 m 0,34,35
 230 94 230 94 407 94 c 0,36,37
 507.781 94 507.781 94 608.5 180.5 c 0,38,39
 685.248 246.413 685.248 246.413 739 336 c 1,40,-1
 842 1019 l 1,41,42
 782.6 1064 782.6 1064 695.3 1064 c 128,-1,43
 608 1064 608 1064 546 1035 c 128,-1,44
 484 1006 484 1006 434 957.5 c 128,-1,45
 384 909 384 909 346 844.5 c 128,-1,46
 308 780 308 780 282 708.5 c 0,47,48
 230 565.5 230 565.5 230 421 c 0,34,35
EndSplineSet
Substitution2: "Single Substitution lookup 16 subtable" ordfeminine
Substitution2: "'aalt' Access All Alternates in Latin lookup 0 subtable" ordfeminine
EndChar

StartChar: b
Encoding: 98 98 62
Width: 1147
Flags: HW
LayerCount: 2
Fore
SplineSet
611.5 14 m 0,0,1
 525 -20 525 -20 411.5 -20 c 128,-1,2
 298 -20 298 -20 179 31 c 1,3,-1
 99 -5 l 1,4,-1
 294 1516 l 1,5,-1
 199 1550 l 1,6,-1
 215 1618 l 1,7,-1
 424 1650 l 1,8,-1
 467 1627 l 1,9,-1
 381 968 l 1,10,11
 472.55 1097.7 472.55 1097.7 610.5 1145.5 c 0,12,13
 661 1163 661 1163 733 1163 c 128,-1,14
 805 1163 805 1163 869 1130.5 c 128,-1,15
 933 1098 933 1098 975 1040 c 0,16,17
 1058 925.381 1058 925.381 1058 730 c 0,18,19
 1058 568.932 1058 568.932 983.5 398.5 c 0,20,21
 857.732 110.785 857.732 110.785 611.5 14 c 0,0,1
272 130 m 1,22,23
 334.759 78 334.759 78 429.879 78 c 128,-1,24
 525 78 525 78 587.5 107.5 c 128,-1,25
 650 137 650 137 699 187 c 128,-1,26
 748 237 748 237 785 302 c 128,-1,27
 822 367 822 367 846 438 c 0,28,29
 894 580 894 580 894 727.5 c 128,-1,30
 894 875 894 875 841.5 961.5 c 128,-1,31
 789 1048 789 1048 692 1048 c 0,32,33
 589.574 1048 589.574 1048 488.5 969 c 0,34,35
 406.296 904.749 406.296 904.749 362 826 c 1,36,-1
 272 130 l 1,22,23
EndSplineSet
EndChar

StartChar: c
Encoding: 99 99 63
Width: 897
Flags: HW
LayerCount: 2
Fore
SplineSet
825 968 m 1,0,1
 733.432 1045 733.432 1045 610 1045 c 0,2,3
 448.139 1045 448.139 1045 343.5 878 c 0,4,5
 238 709.626 238 709.626 238 453 c 0,6,7
 238 272 238 272 298.5 182 c 128,-1,8
 359 92 359 92 465 92 c 0,9,10
 575.13 92 575.13 92 686 167 c 0,11,12
 720 190 720 190 756 217 c 1,13,-1
 788 151 l 1,14,15
 697.742 45.6992 697.742 45.6992 551.5 -1 c 0,16,17
 492 -20 492 -20 415 -20 c 128,-1,18
 338 -20 338 -20 273 11 c 128,-1,19
 208 42 208 42 163 100.5 c 0,20,21
 71 220.1 71 220.1 71 430 c 0,22,23
 71 701.031 71 701.031 218.5 920 c 0,24,25
 319.284 1069.62 319.284 1069.62 473.5 1131.5 c 0,26,27
 552 1163 552 1163 612.5 1163 c 128,-1,28
 673 1163 673 1163 702.5 1159.5 c 128,-1,29
 732 1156 732 1156 761.5 1150 c 0,30,31
 823.101 1137.47 823.101 1137.47 866 1115 c 1,32,-1
 825 968 l 1,0,1
EndSplineSet
EndChar

StartChar: d
Encoding: 100 100 64
Width: 1170
Flags: HW
LayerCount: 2
Fore
SplineSet
738.71 89.5817 m 0,0,1
 738.71 95.6129 738.71 95.6129 738.855 102.056 c 128,-1,2
 739 108.5 739 108.5 739 120.25 c 128,-1,3
 739 132 739 132 739.5 141.5 c 128,-1,4
 740 151 740 151 740 158 c 1,5,6
 644.874 37.2637 644.874 37.2637 511.5 -4.5 c 0,7,8
 462 -20 462 -20 392.5 -20 c 128,-1,9
 323 -20 323 -20 260.5 12.5 c 128,-1,10
 198 45 198 45 157 102.5 c 0,11,12
 76 216.098 76 216.098 76 412 c 0,13,14
 76 575.757 76 575.757 151 744 c 0,15,16
 231.567 924.73 231.567 924.73 369 1037 c 0,17,18
 523.241 1163 523.241 1163 717 1163 c 0,19,20
 789.273 1163 789.273 1163 885 1136 c 1,21,-1
 943 1515 l 1,22,-1
 815 1548 l 1,23,-1
 832 1615 l 1,24,-1
 1071 1650 l 1,25,-1
 1115 1627 l 1,26,-1
 901 158 l 2,27,28
 896 121 896 121 903.5 103 c 128,-1,29
 911 85 911 85 924 85 c 0,30,31
 958.889 85 958.889 85 1020 140 c 1,32,-1
 1047 96 l 1,33,34
 1003.79 31.1879 1003.79 31.1879 916.5 -5.5 c 0,35,36
 882 -20 882 -20 843 -20 c 0,37,38
 738.71 -20 738.71 -20 738.71 89.5817 c 0,0,1
867 1012 m 1,39,40
 803.034 1065 803.034 1065 709.517 1065 c 128,-1,41
 616 1065 616 1065 552.5 1035.5 c 128,-1,42
 489 1006 489 1006 438.5 956 c 128,-1,43
 388 906 388 906 351 840.5 c 128,-1,44
 314 775 314 775 289 704 c 0,45,46
 240 564.84 240 564.84 240 416.42 c 128,-1,47
 240 268 240 268 290 181 c 128,-1,48
 340 94 340 94 433 94 c 0,49,50
 529.75 94 529.75 94 627.5 163 c 0,51,52
 708.017 219.836 708.017 219.836 758 296 c 1,53,-1
 867 1012 l 1,39,40
EndSplineSet
EndChar

StartChar: e
Encoding: 101 101 65
Width: 1025
Flags: HW
LayerCount: 2
Fore
SplineSet
492 92 m 0,0,1
 671 92 671 92 833 254 c 1,2,-1
 871 186 l 1,3,4
 820.332 113.617 820.332 113.617 746.166 67.8083 c 0,5,6
 604 -20 604 -20 484.5 -20 c 128,-1,7
 365 -20 365 -20 289.5 19.5 c 0,8,9
 82.8182 127.632 82.8182 127.632 82.8182 421.57 c 0,10,11
 82.8182 615.558 82.8182 615.558 163.5 793.5 c 0,12,13
 281.397 1053.52 281.397 1053.52 502 1135.5 c 0,14,15
 576 1163 576 1163 652.5 1163 c 128,-1,16
 729 1163 729 1163 782 1144 c 128,-1,17
 835 1125 835 1125 870 1091 c 0,18,19
 940 1023 940 1023 940 929 c 128,-1,20
 940 835 940 835 902.5 771.5 c 128,-1,21
 865 708 865 708 805 659 c 128,-1,22
 745 610 745 610 669.5 574 c 128,-1,23
 594 538 594 538 517.5 515 c 0,24,25
 365.533 469.311 365.533 469.311 250 467 c 1,26,27
 248.2 444.2 248.2 444.2 248.2 423.7 c 128,-1,28
 248.2 403.2 248.2 403.2 249.6 373.1 c 128,-1,29
 251 343 251 343 260.5 301.5 c 128,-1,30
 270 260 270 260 288 222 c 128,-1,31
 306 184 306 184 334 155 c 0,32,33
 394.828 92 394.828 92 492 92 c 0,0,1
254 557 m 1,34,35
 436.564 563.762 436.564 563.762 596 651 c 0,36,37
 706.519 711.473 706.519 711.473 752.5 800.5 c 0,38,39
 776 846 776 846 776 915 c 128,-1,40
 776 984 776 984 734.5 1026.5 c 128,-1,41
 693 1069 693 1069 629.5 1069 c 128,-1,42
 566 1069 566 1069 518.5 1046 c 128,-1,43
 471 1023 471 1023 432 983.5 c 128,-1,44
 393 944 393 944 362.5 892.5 c 128,-1,45
 332 841 332 841 309.5 784.5 c 0,46,47
 264.896 672.493 264.896 672.493 254 557 c 1,34,35
EndSplineSet
EndChar

StartChar: f
Encoding: 102 102 66
Width: 676
Flags: HW
LayerCount: 2
Fore
SplineSet
-168 -370 m 1,0,1
 -83 -404 -83 -404 -32 -404 c 128,-1,2
 19 -404 19 -404 44 -382.5 c 128,-1,3
 69 -361 69 -361 87.5 -324 c 0,4,5
 120.14 -258.721 120.14 -258.721 138 -127 c 1,6,-1
 280 1040 l 1,7,-1
 141 1040 l 1,8,-1
 153 1101 l 1,9,-1
 300 1150 l 1,10,-1
 314 1249 l 2,11,12
 337.783 1423.41 337.783 1423.41 458 1548 c 0,13,14
 575.719 1670 575.719 1670 715 1670 c 0,15,16
 814.882 1670 814.882 1670 873 1644 c 1,17,-1
 827 1510 l 1,18,-1
 803.5 1524 l 2,19,20
 754.562 1553 754.562 1553 674.281 1552.5 c 128,-1,21
 594 1552 594 1552 539.5 1474 c 128,-1,22
 485 1396 485 1396 469 1263 c 2,23,-1
 456 1155 l 1,24,-1
 707 1155 l 1,25,-1
 695 1040 l 1,26,-1
 433 1040 l 1,27,-1
 292 -74 l 1,28,29
 254.195 -385.893 254.195 -385.893 81.5 -480.5 c 0,30,31
 24 -512 24 -512 -24.5 -512.5 c 128,-1,32
 -73 -513 -73 -513 -97.5 -511.5 c 128,-1,33
 -122 -510 -122 -510 -143.5 -507 c 0,34,35
 -186.812 -500.957 -186.812 -500.957 -210 -494 c 1,36,-1
 -168 -370 l 1,0,1
EndSplineSet
EndChar

StartChar: g
Encoding: 103 103 67
Width: 1144
Flags: HW
LayerCount: 2
Fore
SplineSet
716.688 1163 m 0,0,1
 819.375 1163 819.375 1163 927 1122 c 1,2,-1
 1043 1163 l 1,3,-1
 850 -77 l 2,4,5
 816.85 -295.235 816.85 -295.235 641.5 -411 c 0,6,7
 494.574 -508 494.574 -508 320 -508 c 0,8,9
 188.5 -508 188.5 -508 101 -473 c 1,10,-1
 141 -325 l 1,11,12
 271.667 -381 271.667 -381 368.333 -381 c 128,-1,13
 465 -381 465 -381 515 -368.5 c 128,-1,14
 565 -356 565 -356 599.5 -327 c 0,15,16
 666.338 -270.817 666.338 -270.817 688 -131 c 2,17,-1
 732 150 l 1,18,19
 637.747 33.9965 637.747 33.9965 507 -5.5 c 0,20,21
 459 -20 459 -20 390.5 -20 c 128,-1,22
 322 -20 322 -20 259.5 12.5 c 128,-1,23
 197 45 197 45 156 102.5 c 0,24,25
 75 216.098 75 216.098 75 412 c 0,26,27
 75 575.757 75 575.757 150 744 c 0,28,29
 230.567 924.73 230.567 924.73 368 1037 c 0,30,31
 522.241 1163 522.241 1163 716.688 1163 c 0,0,1
861 1016 m 1,32,33
 797.482 1065 797.482 1065 706.241 1065 c 128,-1,34
 615 1065 615 1065 551.5 1035.5 c 128,-1,35
 488 1006 488 1006 437.5 956 c 128,-1,36
 387 906 387 906 350 840.5 c 128,-1,37
 313 775 313 775 288 704 c 0,38,39
 239 564.84 239 564.84 239 416.42 c 128,-1,40
 239 268 239 268 289 181 c 128,-1,41
 339 94 339 94 432 94 c 0,42,43
 570.397 94 570.397 94 697.5 223 c 0,44,45
 731 257 731 257 753 289 c 1,46,-1
 861 1016 l 1,32,33
EndSplineSet
EndChar

StartChar: h
Encoding: 104 104 68
Width: 1250
Flags: HW
LayerCount: 2
Fore
SplineSet
901 -20 m 0,0,1
 791.536 -20 791.536 -20 791.536 81.6702 c 0,2,3
 791.536 88.5797 791.536 88.5797 792.268 109.79 c 128,-1,4
 793 131 793 131 799.5 176 c 128,-1,5
 806 221 806 221 814 269.5 c 128,-1,6
 822 318 822 318 831 366.5 c 128,-1,7
 840 415 840 415 847.5 458 c 128,-1,8
 855 501 855 501 865 551.5 c 128,-1,9
 875 602 875 602 883.5 655 c 0,10,11
 903 776.588 903 776.588 903 843.294 c 128,-1,12
 903 910 903 910 894.5 944.5 c 128,-1,13
 886 979 886 979 869 999 c 0,14,15
 837.55 1036 837.55 1036 780.275 1036 c 128,-1,16
 723 1036 723 1036 668.5 1012.5 c 128,-1,17
 614 989 614 989 559 948.5 c 0,18,19
 441.182 861.743 441.182 861.743 360 742 c 1,20,-1
 260 0 l 1,21,-1
 105 0 l 1,22,-1
 305 1515 l 1,23,-1
 190 1548 l 1,24,-1
 203 1615 l 1,25,-1
 435 1650 l 1,26,-1
 479 1627 l 1,27,-1
 377 873 l 1,28,29
 519.268 1069.47 519.268 1069.47 710 1139.5 c 0,30,31
 774 1163 774 1163 832 1163 c 128,-1,32
 890 1163 890 1163 932 1148 c 128,-1,33
 974 1133 974 1133 1003 1098.5 c 0,34,35
 1063 1027.12 1063 1027.12 1063 867 c 0,36,37
 1063 772 1063 772 1040.5 659.5 c 2,38,-1
 1010 505 l 1,39,40
 1004 467 1004 467 996 422 c 2,41,-1
 980.5 331 l 1,42,43
 957.727 191.327 957.727 191.327 957.727 137.664 c 128,-1,44
 957.727 84 957.727 84 982.864 84 c 128,-1,45
 1008 84 1008 84 1031.5 99.5 c 128,-1,46
 1055 115 1055 115 1093 147 c 1,47,-1
 1119 103 l 1,48,49
 1103.07 71.1333 1103.07 71.1333 1060.53 41.0667 c 0,50,51
 974.146 -20 974.146 -20 901 -20 c 0,0,1
EndSplineSet
EndChar

StartChar: dotlessi
Encoding: 305 305 70
Width: 625
Flags: HW
LayerCount: 2
Fore
SplineSet
265 -20 m 0,0,1
 145.182 -20 145.182 -20 156 99 c 1,2,3
 159.647 155.529 159.647 155.529 177.324 279.265 c 2,4,-1
 285 1016 l 1,5,-1
 148 1056 l 1,6,-1
 162 1121 l 1,7,-1
 420 1163 l 1,8,-1
 461 1142 l 1,9,-1
 320 158 l 2,10,11
 315 120 315 120 324.5 102.5 c 128,-1,12
 334 85 334 85 348 85 c 0,13,14
 386.821 85 386.821 85 456 156 c 1,15,-1
 483 112 l 1,16,17
 435.453 37.283 435.453 37.283 344 -3.5 c 0,18,19
 307 -20 307 -20 265 -20 c 0,0,1
EndSplineSet
EndChar

StartChar: dotaccent
Encoding: 729 729 71
Width: 388
Flags: HW
LayerCount: 2
Fore
SplineSet
117.35 1448.07 m 128,-1,1
 91.7 1475.15 91.7 1475.15 91.7 1513.35 c 0,2,3
 91.7 1567.7 91.7 1567.7 131.5 1607.5 c 0,4,5
 166 1642 166 1642 210.5 1642 c 128,-1,6
 255 1642 255 1642 279.573 1615.02 c 128,-1,7
 304.145 1588.04 304.145 1588.04 304.145 1550.04 c 0,8,9
 304.145 1496.82 304.145 1496.82 265.5 1457 c 0,10,11
 230.559 1421 230.559 1421 186.779 1421 c 128,-1,0
 143 1421 143 1421 117.35 1448.07 c 128,-1,1
EndSplineSet
EndChar

StartChar: k
Encoding: 107 107 73
Width: 1059
Flags: HW
LayerCount: 2
Fore
SplineSet
305 1515 m 1,0,-1
 190 1548 l 1,1,-1
 202 1615 l 1,2,-1
 434 1650 l 1,3,-1
 478 1627 l 1,4,-1
 259 0 l 1,5,-1
 105 0 l 1,6,-1
 305 1515 l 1,0,-1
1023 151 m 1,7,-1
 1051 101 l 1,8,9
 1006.72 27.2063 1006.72 27.2063 896.5 -8.5 c 0,10,11
 861 -20 861 -20 822.5 -20 c 0,12,13
 730.421 -20 730.421 -20 666 88 c 1,14,-1
 366 610 l 1,15,-1
 368 611 l 1,16,-1
 366 611 l 1,17,18
 417 648 417 648 469.5 682.5 c 1,19,-1
 572 752.5 l 1,20,21
 753.299 881.222 753.299 881.222 790 1000.5 c 0,22,23
 800.211 1033.68 800.211 1033.68 804.605 1064.34 c 128,-1,24
 809 1095 809 1095 820.5 1112 c 128,-1,25
 832 1129 832 1129 847 1140.5 c 0,26,27
 876.348 1163 876.348 1163 912.674 1163 c 128,-1,28
 949 1163 949 1163 974 1141 c 128,-1,29
 999 1119 999 1119 1000 1088 c 0,30,31
 1003.67 974.306 1003.67 974.306 866 858 c 0,32,33
 764.104 771.915 764.104 771.915 660.552 710.458 c 2,34,-1
 516 624 l 1,35,-1
 794 192 l 1,36,37
 861.2 96 861.2 96 914.6 96 c 128,-1,38
 968 96 968 96 1023 151 c 1,7,-1
EndSplineSet
EndChar

StartChar: l
Encoding: 108 108 74
Width: 598
Flags: HW
LayerCount: 2
Fore
SplineSet
234 -20 m 0,0,1
 132.855 -20 132.855 -20 132.855 92.601 c 0,2,3
 132.855 139.273 132.855 139.273 139 170 c 1,4,-1
 339 1515 l 1,5,-1
 220 1548 l 1,6,-1
 236 1615 l 1,7,-1
 465 1650 l 1,8,-1
 505 1627 l 1,9,-1
 289 158 l 2,10,11
 284 122 284 122 292 103.5 c 128,-1,12
 300 85 300 85 314 85 c 0,13,14
 358.5 85 358.5 85 425 155 c 1,15,-1
 451 112 l 1,16,17
 431.484 76.2201 431.484 76.2201 390.742 44.6101 c 0,18,19
 307.467 -20 307.467 -20 234 -20 c 0,0,1
EndSplineSet
EndChar

StartChar: m
Encoding: 109 109 75
Width: 1880
Flags: HW
LayerCount: 2
Fore
SplineSet
1537 -20 m 0,0,1
 1433.86 -20 1433.86 -20 1433.86 85.7503 c 0,2,3
 1433.86 142.699 1433.86 142.699 1447.43 231.349 c 2,4,-1
 1484 462 l 2,5,6
 1491 505 1491 505 1500 554.5 c 128,-1,7
 1509 604 1509 604 1516.5 656 c 0,8,9
 1534 777.333 1534 777.333 1534 843.167 c 128,-1,10
 1534 909 1534 909 1526 943.5 c 128,-1,11
 1518 978 1518 978 1502 998 c 0,12,13
 1472.4 1035 1472.4 1035 1418.2 1035 c 128,-1,14
 1364 1035 1364 1035 1317.5 1014 c 128,-1,15
 1271 993 1271 993 1224 957 c 0,16,17
 1127.82 883.333 1127.82 883.333 1048 772 c 1,18,19
 1037.8 659.801 1037.8 659.801 1012 505 c 1,20,-1
 944 0 l 1,21,-1
 786 0 l 1,22,-1
 849 457 l 1,23,-1
 864 552 l 2,24,25
 893 736.875 893 736.875 893 823.938 c 128,-1,26
 893 911 893 911 886 945 c 128,-1,27
 879 979 879 979 863.5 999.5 c 0,28,29
 835.146 1037 835.146 1037 775.073 1037 c 128,-1,30
 715 1037 715 1037 663.5 1013.5 c 128,-1,31
 612 990 612 990 559.5 950.5 c 0,32,33
 450.888 868.783 450.888 868.783 369 747 c 1,34,-1
 269 0 l 1,35,-1
 114 0 l 1,36,-1
 246 1002 l 1,37,-1
 149 1049 l 1,38,-1
 163 1121 l 1,39,-1
 373 1163 l 1,40,-1
 413 1143 l 1,41,-1
 387 888 l 1,42,43
 530.876 1076.41 530.876 1076.41 708.5 1141 c 0,44,45
 769 1163 769 1163 829 1163 c 0,46,47
 935 1163 935 1163 991 1101 c 128,-1,48
 1047 1039 1047 1039 1052 902 c 1,49,50
 1182.71 1079.64 1182.71 1079.64 1350.5 1142 c 0,51,52
 1407 1163 1407 1163 1460.5 1163 c 128,-1,53
 1514 1163 1514 1163 1556.5 1146.5 c 128,-1,54
 1599 1130 1599 1130 1629.5 1094.5 c 0,55,56
 1694 1019.43 1694 1019.43 1694 867 c 0,57,58
 1694 780.722 1694 780.722 1672.5 664.861 c 128,-1,59
 1651 549 1651 549 1644.5 508 c 2,60,-1
 1630.5 422.5 l 1,61,62
 1585.27 154.143 1585.27 154.143 1598 104.5 c 0,63,64
 1603 85 1603 85 1617 85 c 0,65,66
 1657.08 85 1657.08 85 1730 156 c 1,67,-1
 1757 112 l 1,68,69
 1710.25 38.5282 1710.25 38.5282 1616 -3.5 c 0,70,71
 1579 -20 1579 -20 1537 -20 c 0,0,1
EndSplineSet
EndChar

StartChar: n
Encoding: 110 110 76
Width: 1253
Flags: HW
LayerCount: 2
Fore
SplineSet
900 -21 m 0,0,1
 794.515 -21 794.515 -21 794.515 81.0358 c 0,2,3
 794.515 88.2424 794.515 88.2424 795.258 109.621 c 128,-1,4
 796 131 796 131 802 176 c 128,-1,5
 808 221 808 221 816.5 269.5 c 2,6,-1
 867.5 551.5 l 1,7,8
 906 756.158 906 756.158 906 833.079 c 128,-1,9
 906 910 906 910 898.5 944.5 c 128,-1,10
 891 979 891 979 875 999.5 c 0,11,12
 845.732 1037 845.732 1037 784.866 1037 c 128,-1,13
 724 1037 724 1037 671 1013.5 c 128,-1,14
 618 990 618 990 564 950 c 0,15,16
 449.463 865.158 449.463 865.158 368 745 c 1,17,-1
 269 0 l 1,18,-1
 114 0 l 1,19,-1
 247 1002 l 1,20,-1
 149 1049 l 1,21,-1
 163 1121 l 1,22,-1
 374 1163 l 1,23,-1
 414 1143 l 1,24,-1
 387 886 l 1,25,26
 534.468 1074.62 534.468 1074.62 716 1140.5 c 0,27,28
 778 1163 778 1163 834.5 1163 c 128,-1,29
 891 1163 891 1163 933 1148 c 128,-1,30
 975 1133 975 1133 1004.5 1098.5 c 0,31,32
 1066 1026.58 1066 1026.58 1066 868 c 0,33,34
 1066 779.421 1066 779.421 1043 663.211 c 128,-1,35
 1020 547 1020 547 1013 507 c 0,36,37
 965 235 965 235 962 179 c 0,38,39
 956.964 85.0002 956.964 85.0002 984 85 c 0,40,41
 1021 85 1021 85 1081 139 c 1,42,-1
 1107 95 l 1,43,44
 1064.26 30.8948 1064.26 30.8948 974 -6.5 c 0,45,46
 939 -21 939 -21 900 -21 c 0,0,1
EndSplineSet
EndChar

StartChar: o
Encoding: 111 111 77
Width: 1123
Flags: HW
LayerCount: 2
Fore
SplineSet
306.5 11 m 0,0,1
 86.7949 106.257 86.7949 106.257 86.7949 457.646 c 0,2,3
 86.7949 726.926 86.7949 726.926 237.5 937 c 0,4,5
 338.972 1078.45 338.972 1078.45 485.5 1134.5 c 0,6,7
 560 1163 560 1163 649.5 1163 c 128,-1,8
 739 1163 739 1163 810.5 1132 c 128,-1,9
 882 1101 882 1101 930.5 1042 c 0,10,11
 1031.21 919.493 1031.21 919.493 1031.21 684.549 c 0,12,13
 1031.21 416.074 1031.21 416.074 880.5 206 c 0,14,15
 779.406 65.0816 779.406 65.0816 631.5 8.5 c 0,16,17
 557 -20 557 -20 467.5 -20 c 128,-1,18
 378 -20 378 -20 306.5 11 c 0,0,1
251.9 454.645 m 0,19,20
 251.9 78 251.9 78 501 78 c 0,21,22
 675.805 78 675.805 78 778 287.5 c 0,23,24
 865.1 466.055 865.1 466.055 865.1 687.355 c 0,25,26
 865.1 1065 865.1 1065 615 1065 c 0,27,28
 497.495 1065 497.495 1065 408 963.5 c 0,29,30
 290.94 830.736 290.94 830.736 260 581.5 c 0,31,32
 251.9 516.25 251.9 516.25 251.9 454.645 c 0,19,20
EndSplineSet
Substitution2: "Single Substitution lookup 16 subtable" ordmasculine
Substitution2: "'aalt' Access All Alternates in Latin lookup 0 subtable" ordmasculine
EndChar

StartChar: p
Encoding: 112 112 78
Width: 1147
Flags: HW
LayerCount: 2
Fore
SplineSet
612.5 14 m 0,0,1
 526 -20 526 -20 435.955 -20 c 128,-1,2
 345.909 -20 345.909 -20 263 4 c 1,3,-1
 191 -520 l 1,4,-1
 40 -520 l 1,5,-1
 246 1017 l 1,6,-1
 138 1057 l 1,7,-1
 152 1121 l 1,8,-1
 381 1163 l 1,9,-1
 420 1143 l 1,10,-1
 399 990 l 1,11,12
 490.364 1106.95 490.364 1106.95 619 1148 c 0,13,14
 666 1163 666 1163 735.5 1163 c 128,-1,15
 805 1163 805 1163 869 1130.5 c 128,-1,16
 933 1098 933 1098 975 1040 c 0,17,18
 1058 925.381 1058 925.381 1058 730 c 0,19,20
 1058 566.411 1058 566.411 983.5 397 c 0,21,22
 857.405 110.263 857.405 110.263 612.5 14 c 0,0,1
280 124 m 1,23,24
 341.923 78 341.923 78 431.962 78 c 128,-1,25
 522 78 522 78 584 106.5 c 128,-1,26
 646 135 646 135 695 184 c 128,-1,27
 744 233 744 233 781.5 297 c 128,-1,28
 819 361 819 361 844 432.5 c 0,29,30
 894 575.5 894 575.5 894 728.25 c 128,-1,31
 894 881 894 881 839 964.5 c 128,-1,32
 784 1048 784 1048 693 1048 c 0,33,34
 601.31 1048 601.31 1048 508 982 c 0,35,36
 432.308 928.462 432.308 928.462 380 850 c 1,37,-1
 280 124 l 1,23,24
EndSplineSet
EndChar

StartChar: q
Encoding: 113 113 79
Width: 1145
Flags: HW
LayerCount: 2
Fore
SplineSet
721 144 m 1,0,1
 583.452 -20 583.452 -20 405 -20 c 0,2,3
 241.348 -20 241.348 -20 154 102.5 c 0,4,5
 73 216.098 73 216.098 73 412 c 0,6,7
 73 575.757 73 575.757 148 744 c 0,8,9
 228.567 924.73 228.567 924.73 366 1037 c 0,10,11
 520.241 1163 520.241 1163 714 1163 c 0,12,13
 816.294 1163 816.294 1163 920 1122 c 1,14,-1
 926 1129 l 1,15,-1
 1016 1139 l 1,16,-1
 804 -340 l 2,17,18
 800 -369 800 -369 808 -391.5 c 128,-1,19
 816 -414 816 -414 827 -414 c 0,20,21
 869.846 -414 869.846 -414 940 -342 c 1,22,-1
 966 -387 l 1,23,24
 945.357 -421.405 945.357 -421.405 902.679 -452.702 c 0,25,26
 813.636 -518 813.636 -518 742 -518 c 0,27,28
 643.467 -518 643.467 -518 643.467 -413.676 c 0,29,30
 643.467 -394.733 643.467 -394.733 650.233 -347.367 c 2,31,-1
 721 144 l 1,0,1
845 1022 m 1,32,33
 786.565 1064 786.565 1064 700.283 1064 c 128,-1,34
 614 1064 614 1064 551.5 1035.5 c 128,-1,35
 489 1007 489 1007 439 958 c 128,-1,36
 389 909 389 909 351 845 c 128,-1,37
 313 781 313 781 287.5 709.5 c 0,38,39
 237 567.902 237 567.902 237 414.951 c 128,-1,40
 237 262 237 262 290 178 c 128,-1,41
 343 94 343 94 430 94 c 0,42,43
 538.123 94 538.123 94 646 181.5 c 0,44,45
 731.035 250.473 731.035 250.473 770 331 c 1,46,-1
 789 264 l 1,47,48
 773.488 208.601 773.488 208.601 721 144 c 1,49,-1
 834 945.5 l 2,50,51
 841 996 841 996 845 1022 c 1,32,33
EndSplineSet
EndChar

StartChar: r
Encoding: 114 114 80
Width: 824
Flags: HW
LayerCount: 2
Fore
SplineSet
266 1002 m 1,0,-1
 169 1049 l 1,1,-1
 183 1121 l 1,2,-1
 395 1163 l 1,3,-1
 434 1143 l 1,4,-1
 405 889 l 1,5,6
 451.527 986.951 451.527 986.951 546 1066 c 0,7,8
 660.732 1162 660.732 1162 784 1162 c 0,9,10
 833.375 1162 833.375 1162 848 1149 c 1,11,-1
 814 983 l 1,12,13
 786 997 786 997 730.5 997 c 128,-1,14
 675 997 675 997 629 981 c 128,-1,15
 583 965 583 965 539 932 c 0,16,17
 440.559 858.169 440.559 858.169 386 734 c 1,18,-1
 288 0 l 1,19,-1
 133 0 l 1,20,-1
 266 1002 l 1,0,-1
EndSplineSet
EndChar

StartChar: s
Encoding: 115 115 81
Width: 834
Flags: HW
LayerCount: 2
Fore
SplineSet
54 164 m 1,0,1
 154 89 154 89 323 89 c 0,2,3
 484.164 89 484.164 89 537 177.5 c 0,4,5
 557 211 557 211 557 259 c 128,-1,6
 557 307 557 307 537.5 343 c 128,-1,7
 518 379 518 379 488 408.5 c 128,-1,8
 458 438 458 438 422.5 463.5 c 2,9,-1
 356 513 l 1,10,11
 265.906 583.073 265.906 583.073 226.453 632.537 c 0,12,13
 139 742.179 139 742.179 139 849 c 0,14,15
 139 991.859 139 991.859 255 1080.5 c 0,16,17
 362.963 1163 362.963 1163 523 1163 c 0,18,19
 630 1163 630 1163 692.5 1145.5 c 128,-1,20
 755 1128 755 1128 767 1122 c 1,21,-1
 734 987 l 1,22,23
 705.145 1027.4 705.145 1027.4 600.5 1050.5 c 0,24,25
 562 1059 562 1059 492.5 1059 c 128,-1,26
 423 1059 423 1059 362 1019 c 0,27,28
 292.179 973.216 292.179 973.216 292.179 879.833 c 0,29,30
 292.179 777.524 292.179 777.524 405.5 684.5 c 1,31,-1
 548.5 573 l 1,32,33
 709 445.374 709 445.374 709 292 c 0,34,35
 709 147.11 709 147.11 589.5 60.5 c 0,36,37
 478.43 -20 478.43 -20 314 -20 c 0,38,39
 171.043 -20 171.043 -20 68 19.5 c 0,40,41
 38 31 38 31 25 43 c 1,42,-1
 54 164 l 1,0,1
EndSplineSet
EndChar

StartChar: t
Encoding: 116 116 82
Width: 706
Flags: HW
LayerCount: 2
Fore
SplineSet
326 -20 m 0,0,1
 150 -20 150 -20 150 147 c 2,2,-1
 150 160 l 2,3,4
 150 178.6 150 178.6 153.5 207.3 c 2,5,-1
 262 1043 l 1,6,-1
 138 1043 l 1,7,-1
 154 1113 l 1,8,-1
 281 1151 l 1,9,10
 320.894 1206.24 320.894 1206.24 393 1416 c 1,11,-1
 469 1416 l 1,12,-1
 436 1155 l 1,13,-1
 697 1155 l 1,14,-1
 681 1043 l 1,15,-1
 422 1043 l 1,16,-1
 326 344 l 2,17,18
 312 240 312 240 312 200.5 c 128,-1,19
 312 161 312 161 316 142.5 c 128,-1,20
 320 124 320 124 331 113 c 0,21,22
 352 92 352 92 392 92 c 128,-1,23
 432 92 432 92 461 101.5 c 128,-1,24
 490 111 490 111 518.5 124.5 c 0,25,26
 568.824 148.338 568.824 148.338 612 180 c 1,27,-1
 626 116 l 1,28,29
 589.636 72.8182 589.636 72.8182 524.818 40.4091 c 0,30,31
 404 -20 404 -20 326 -20 c 0,0,1
EndSplineSet
EndChar

StartChar: u
Encoding: 117 117 83
Width: 1204
Flags: HW
LayerCount: 2
Fore
SplineSet
779 169 m 1,0,1
 611.6 -20 611.6 -20 411 -20 c 0,2,3
 230 -20 230 -20 182.5 122.5 c 0,4,5
 165 175 165 175 165 231.5 c 128,-1,6
 165 288 165 288 168.5 331 c 128,-1,7
 172 374 172 374 177 420.5 c 128,-1,8
 182 467 182 467 188.5 514.5 c 2,9,-1
 255 1002 l 1,10,-1
 158 1049 l 1,11,-1
 172 1120 l 1,12,-1
 382 1163 l 1,13,-1
 422 1142 l 1,14,-1
 353 599 l 1,15,-1
 341.5 513.5 l 2,16,17
 321 362.545 321 362.545 321 291.273 c 128,-1,18
 321 220 321 220 332 183.5 c 128,-1,19
 343 147 343 147 363.5 126 c 0,20,21
 398.643 90 398.643 90 458.321 90 c 128,-1,22
 518 90 518 90 562 106.5 c 128,-1,23
 606 123 606 123 648 149.5 c 0,24,25
 729.577 200.971 729.577 200.971 792 279 c 1,26,-1
 907 1155 l 1,27,-1
 1062 1155 l 1,28,-1
 932 159 l 2,29,30
 922.526 86.9999 922.526 86.9999 956 87 c 0,31,32
 997.82 87 997.82 87 1067 158 c 1,33,-1
 1093 113 l 1,34,35
 1050.83 42.7154 1050.83 42.7154 949 -1.5 c 0,36,37
 911 -18 911 -18 861.5 -18 c 128,-1,38
 812 -18 812 -18 791.487 11.9487 c 128,-1,39
 770.974 41.8974 770.974 41.8974 770.974 68.9615 c 128,-1,40
 770.974 96.0257 770.974 96.0257 773.987 110.013 c 128,-1,41
 777 124 777 124 777.5 138 c 128,-1,42
 778 152 778 152 779 169 c 1,0,1
EndSplineSet
EndChar

StartChar: w
Encoding: 119 119 84
Width: 1683
Flags: HW
LayerCount: 2
Fore
SplineSet
268 323 m 1,0,-1
 174 979 l 1,1,2
 166 1016 166 1016 155.5 1032 c 128,-1,3
 145 1048 145 1048 124 1049 c 128,-1,4
 103 1050 103 1050 85 1035.5 c 2,5,6
 51 1008 l 1,7,-1
 26 1058 l 1,8,9
 61.4878 1114.78 61.4878 1114.78 142.5 1149.5 c 0,10,11
 174 1163 174 1163 209.5 1163 c 128,-1,12
 245 1163 245 1163 267.5 1154 c 128,-1,13
 290 1145 290 1145 303.5 1127.5 c 0,14,15
 326.276 1097.98 326.276 1097.98 335 1026 c 2,16,-1
 414 311 l 1,17,-1
 428 111 l 1,18,-1
 498 290 l 1,19,-1
 872 1155 l 1,20,-1
 1016 1155 l 1,21,-1
 1087 311 l 1,22,-1
 1098 111 l 1,23,-1
 1228 316 l 1,24,25
 1384.6 556.115 1384.6 556.115 1443 808.5 c 0,26,27
 1468.13 917.119 1468.13 917.119 1460.07 956.559 c 128,-1,28
 1452 996 1452 996 1446.5 1014.5 c 128,-1,29
 1441 1033 1441 1033 1436 1048 c 128,-1,30
 1431 1063 1431 1063 1431 1092.5 c 128,-1,31
 1431 1122 1431 1122 1453.5 1142.5 c 128,-1,32
 1476 1163 1476 1163 1509 1163 c 0,33,34
 1615 1163 1615 1163 1615 967 c 0,35,36
 1615 740.042 1615 740.042 1338 313 c 1,37,-1
 1128 -8 l 1,38,-1
 977 -19 l 1,39,-1
 941 322 l 1,40,-1
 899 806 l 1,41,-1
 892 935 l 1,42,-1
 849 805 l 1,43,-1
 608 289 l 1,44,-1
 460 -8 l 1,45,-1
 324 -20 l 1,46,-1
 268 323 l 1,0,-1
EndSplineSet
EndChar

StartChar: x
Encoding: 120 120 85
Width: 989
Flags: HW
LayerCount: 2
Fore
SplineSet
817 85 m 0,0,1
 860 85 860 85 934 159 c 1,2,-1
 964 114 l 1,3,4
 947.2 80.4 947.2 80.4 903.6 47.7 c 0,5,6
 813.333 -20 813.333 -20 744 -20 c 0,7,8
 684.667 -20 684.667 -20 661.333 1 c 0,9,10
 629.429 29.7143 629.429 29.7143 611 85 c 2,11,-1
 479 462 l 1,12,-1
 163 0 l 1,13,-1
 -5 0 l 1,14,-1
 432 589 l 1,15,-1
 263 996 l 2,16,17
 251 1023 251 1023 238.5 1040.5 c 128,-1,18
 226 1058 226 1058 194.808 1058 c 128,-1,19
 163.615 1058 163.615 1058 91 999 c 1,20,-1
 63 1044 l 1,21,22
 78.7669 1072.38 78.7669 1072.38 122.383 1102.69 c 0,23,24
 209.171 1163 209.171 1163 278 1163 c 0,25,26
 342.407 1163 342.407 1163 366.704 1142.5 c 0,27,28
 402.13 1112.61 402.13 1112.61 420 1059 c 1,29,-1
 525 694 l 1,30,-1
 841 1155 l 1,31,-1
 1011 1155 l 1,32,-1
 571 564 l 1,33,-1
 756 148 l 1,34,35
 767 119 767 119 780.5 102 c 128,-1,36
 794 85 794 85 817 85 c 0,0,1
EndSplineSet
EndChar

StartChar: y
Encoding: 121 121 86
Width: 1051
Flags: HW
LayerCount: 2
Fore
SplineSet
895 1162 m 0,0,1
 1005 1162 1005 1162 1005 982 c 0,2,3
 1005 800.088 1005 800.088 857.5 502.5 c 1,4,-1
 746 290 l 1,5,6
 519.875 -160.412 519.875 -160.412 379 -329 c 1,7,8
 300.324 -442.643 300.324 -442.643 155.5 -487.5 c 0,9,10
 99 -505 99 -505 54 -505 c 128,-1,11
 9 -505 9 -505 -15 -502.5 c 128,-1,12
 -39 -500 -39 -500 -62.5 -495.5 c 0,13,14
 -114.2 -485.6 -114.2 -485.6 -143 -476 c 1,15,-1
 -106 -349 l 1,16,17
 -98 -352 -98 -352 -84.5 -358.5 c 128,-1,18
 -71 -365 -71 -365 -50.5 -371.5 c 0,19,20
 1.53846 -388 1.53846 -388 50.2692 -388 c 128,-1,21
 99 -388 99 -388 142 -372 c 128,-1,22
 185 -356 185 -356 229.5 -319 c 0,23,24
 331.697 -234.027 331.697 -234.027 402 -79 c 1,25,-1
 352 -79 l 1,26,-1
 172 979 l 1,27,28
 161 1022 161 1022 150.5 1035.5 c 128,-1,29
 140 1049 140 1049 117.431 1049 c 128,-1,30
 94.8621 1049 94.8621 1049 35 993 c 1,31,-1
 11 1042 l 1,32,33
 46.1228 1105.22 46.1228 1105.22 137.5 1147.5 c 0,34,35
 171 1163 171 1163 206 1163 c 128,-1,36
 241 1163 241 1163 262.5 1153.5 c 128,-1,37
 284 1144 284 1144 297.5 1126 c 0,38,39
 316.565 1100.58 316.565 1100.58 331 1026 c 1,40,-1
 432 258 l 1,41,-1
 458 -23 l 1,42,-1
 613.5 276 l 2,43,44
 624 296 624 296 645.5 342 c 2,45,-1
 703 463.5 l 2,46,47
 828.311 726.305 828.311 726.305 849 924 c 0,48,49
 853.536 964.824 853.536 964.824 841.768 997.412 c 2,50,-1
 824 1045.5 l 2,51,52
 818 1061 818 1061 818 1091 c 128,-1,53
 818 1121 818 1121 840 1141.5 c 128,-1,54
 862 1162 862 1162 895 1162 c 0,0,1
EndSplineSet
EndChar

StartChar: z
Encoding: 122 122 87
Width: 1001
Flags: HW
LayerCount: 2
Fore
SplineSet
59 -22 m 1,0,-1
 4 28 l 1,1,-1
 649 850 l 1,2,-1
 774 997 l 1,3,4
 564 1005.75 564 1005.75 479.625 1005.75 c 0,5,6
 358.125 1005.75 358.125 1005.75 341.062 1003.38 c 128,-1,7
 324 1001 324 1001 297 986 c 128,-1,8
 270 971 270 971 249 946 c 0,9,10
 204.038 892.474 204.038 892.474 198 818 c 1,11,-1
 145 818 l 1,12,13
 144.8 824.4 144.8 824.4 144.8 842.1 c 128,-1,14
 144.8 859.8 144.8 859.8 148.4 903.9 c 128,-1,15
 152 948 152 948 161 997.5 c 0,16,17
 182.448 1115.46 182.448 1115.46 221 1143 c 0,18,19
 249.889 1163 249.889 1163 315.944 1163 c 128,-1,20
 382 1163 382 1163 450.5 1157.5 c 128,-1,21
 519 1152 519 1152 587 1145 c 0,22,23
 761.857 1127 761.857 1127 797.429 1127 c 128,-1,24
 833 1127 833 1127 848 1129 c 128,-1,25
 863 1131 863 1131 879 1135 c 0,26,27
 916.714 1144.43 916.714 1144.43 939 1163 c 1,28,-1
 938 1159 l 1,29,-1
 984 1116 l 1,30,-1
 315 253 l 1,31,-1
 218 137 l 1,32,33
 245 136 245 136 284.5 135.5 c 128,-1,34
 324 135 324 135 369 134 c 2,35,-1
 459.5 132 l 2,36,37
 505 131 505 131 543.5 130.5 c 128,-1,38
 582 130 582 130 609 129.5 c 128,-1,39
 636 129 636 129 643 129 c 0,40,41
 799 129 799 129 826 315 c 1,42,-1
 878 315 l 1,43,44
 859.744 41.163 859.744 41.163 795 -2 c 1,45,46
 762.5 -22 762.5 -22 695 -22 c 256,47,48
 627.875 -22 627.875 -22 547.438 -15.5 c 2,49,-1
 316.5 4 l 2,50,51
 209.625 13 209.625 13 154.312 13 c 128,-1,52
 99 13 99 13 59 -22 c 1,0,-1
EndSplineSet
EndChar

StartChar: braceleft
Encoding: 123 123 88
Width: 997
Flags: HW
LayerCount: 2
Fore
SplineSet
986 1676 m 1,0,1
 976 1626 976 1626 976 1606 c 1,2,-1
 700 1606 l 1,3,-1
 604 970 l 2,4,5
 592.785 893.367 592.785 893.367 498 844 c 1,6,-1
 412.5 805.5 l 1,7,-1
 367 786.5 l 2,8,9
 346 778 346 778 339 776 c 1,10,11
 448.968 723.307 448.968 723.307 484.484 694.154 c 0,12,13
 552.711 638.149 552.711 638.149 543 576 c 2,14,-1
 449 -55 l 1,15,-1
 724 -55 l 1,16,17
 723 -60 723 -60 721.5 -71.5 c 128,-1,18
 720 -83 720 -83 718 -96 c 128,-1,19
 716 -109 716 -109 714 -126 c 1,20,-1
 648.5 -141 l 2,21,22
 545 -164 545 -164 474 -164 c 128,-1,23
 403 -164 403 -164 377 -158.5 c 128,-1,24
 351 -153 351 -153 335 -139.5 c 0,25,26
 305 -114.188 305 -114.188 305 -48 c 0,27,28
 305 -44 305 -44 309 -15 c 2,29,-1
 350 274 l 2,30,31
 369 410 369 410 395 579 c 1,32,33
 399.934 635.738 399.934 635.738 257 694.5 c 0,34,35
 212 713 212 713 165 726 c 1,36,-1
 180 827 l 1,37,38
 316.68 861.84 316.68 861.84 365.34 884.92 c 0,39,40
 447.536 923.906 447.536 923.906 454 967 c 2,41,-1
 535 1513 l 2,42,43
 553.219 1632.44 553.219 1632.44 591.5 1672.5 c 0,44,45
 630.2 1713 630.2 1713 723 1713 c 0,46,47
 801 1713 801 1713 986 1676 c 1,0,1
EndSplineSet
EndChar

StartChar: bar
Encoding: 124 124 89
Width: 854
Flags: HW
LayerCount: 2
Fore
SplineSet
380 1780 m 1,0,-1
 518 1780 l 1,1,-1
 518 -186 l 1,2,-1
 380 -186 l 1,3,-1
 380 1780 l 1,0,-1
EndSplineSet
EndChar

StartChar: asciitilde
Encoding: 126 126 91
Width: 1137
Flags: HW
LayerCount: 2
Fore
SplineSet
431 913 m 0,0,1
 298.333 913 298.333 913 213 785 c 1,2,-1
 156 845 l 1,3,4
 178.088 913.473 178.088 913.473 262.5 976 c 0,5,6
 357 1046 357 1046 461 1046 c 0,7,8
 544.333 1046 544.333 1046 643.5 958.5 c 0,9,10
 705.938 903.408 705.938 903.408 738.969 887.204 c 128,-1,11
 772 871 772 871 802 871 c 0,12,13
 926.667 871 926.667 871 1012 999 c 1,14,-1
 1070 939 l 1,15,16
 1046.51 862.122 1046.51 862.122 967 803 c 0,17,18
 879.586 738 879.586 738 772 738 c 0,19,20
 686.222 738 686.222 738 589 825.5 c 0,21,22
 528.654 879.811 528.654 879.811 494.827 896.406 c 128,-1,23
 461 913 461 913 431 913 c 0,0,1
EndSplineSet
EndChar

StartChar: exclam
Encoding: 33 33 93
Width: 686
Flags: HW
LayerCount: 2
Fore
SplineSet
417 1778 m 1,0,-1
 612 1778 l 1,1,-1
 381 488 l 1,2,-1
 270 488 l 1,3,-1
 417 1778 l 1,0,-1
179 9.5 m 128,-1,5
 166 23 166 23 161 39.25 c 128,-1,6
 156 55.5 156 55.5 156 82.0357 c 128,-1,7
 156 108.571 156 108.571 172 134.286 c 128,-1,8
 188 160 188 160 208 176 c 0,9,10
 250.5 210 250.5 210 302.75 210 c 128,-1,11
 355 210 355 210 374.155 183.273 c 128,-1,12
 393.309 156.545 393.309 156.545 393.309 135.682 c 128,-1,13
 393.309 114.818 393.309 114.818 390.655 95.4091 c 128,-1,14
 388 76 388 76 374.5 53 c 128,-1,15
 361 30 361 30 341 14.5 c 0,16,17
 299.065 -18 299.065 -18 264.532 -18 c 128,-1,18
 230 -18 230 -18 211 -11 c 128,-1,4
 192 -4 192 -4 179 9.5 c 128,-1,5
EndSplineSet
EndChar

StartChar: sterling
Encoding: 163 163 94
Width: 1368
Flags: HW
LayerCount: 2
Fore
SplineSet
86 -16 m 0,0,1
 21.8 -16 21.8 -16 21.8 42.32 c 0,2,3
 21.8 101.679 21.8 101.679 102 151.5 c 0,4,5
 178.463 199 178.463 199 261 199 c 1,6,7
 304.02 252.776 304.02 252.776 339.5 411.5 c 0,8,9
 349 454 349 454 354 489 c 2,10,-1
 396 749 l 1,11,-1
 212 749 l 1,12,-1
 227 854 l 1,13,-1
 413 854 l 1,14,-1
 437 997 l 1,15,16
 470.581 1223.67 470.581 1223.67 615 1381.5 c 0,17,18
 768.268 1549 768.268 1549 972 1549 c 0,19,20
 1057 1549 1057 1549 1119.5 1533.5 c 128,-1,21
 1182 1518 1182 1518 1230 1467 c 1,22,-1
 1140 1332 l 1,23,24
 1101.63 1389.55 1101.63 1389.55 982.5 1424 c 0,25,26
 941 1436 941 1436 893.5 1436 c 128,-1,27
 846 1436 846 1436 800 1414.5 c 128,-1,28
 754 1393 754 1393 713.5 1342 c 0,29,30
 624.526 1229.96 624.526 1229.96 591 999 c 0,31,32
 588 976 588 976 581.5 937.5 c 2,33,-1
 567 854 l 1,34,-1
 903 854 l 1,35,-1
 889 749 l 1,36,-1
 548 749 l 1,37,38
 538.25 697 538.25 697 528.625 629 c 128,-1,39
 519 561 519 561 504 494 c 128,-1,40
 489 427 489 427 469.5 371 c 0,41,42
 434.605 270.789 434.605 270.789 366 171 c 1,43,44
 409 160 409 160 457.5 142.5 c 128,-1,45
 506 125 506 125 559.5 107.5 c 0,46,47
 689.429 65 689.429 65 796 65 c 0,48,49
 1111 65 1111 65 1111 313 c 0,50,51
 1111 392.667 1111 392.667 1056 466 c 0,52,53
 1041 486 1041 486 1027 498 c 1,54,-1
 1136 601 l 1,55,56
 1271 490.75 1271 490.75 1271 322 c 0,57,58
 1271 93.3333 1271 93.3333 1041 9 c 0,59,60
 951 -24 951 -24 841.5 -24 c 128,-1,61
 732 -24 732 -24 661 -11.5 c 128,-1,62
 590 1 590 1 525.5 19 c 128,-1,63
 461 37 461 37 403 57.5 c 128,-1,64
 345 78 345 78 294 94 c 1,65,66
 235.805 22.1118 235.805 22.1118 142 -7 c 0,67,68
 113 -16 113 -16 86 -16 c 0,0,1
EndSplineSet
EndChar

StartChar: section
Encoding: 167 167 95
Width: 1194
Flags: HW
LayerCount: 2
Fore
SplineSet
937 397 m 1,0,1
 1006.37 323.88 1006.37 323.88 1006.37 231.619 c 0,2,3
 1006.37 79.7756 1006.37 79.7756 893.5 -30.5 c 0,4,5
 774.317 -146.943 774.317 -146.943 573 -177.5 c 0,6,7
 517 -186 517 -186 461.5 -186 c 128,-1,8
 406 -186 406 -186 341 -177.5 c 128,-1,9
 276 -169 276 -169 219 -156 c 0,10,11
 95.7692 -127.895 95.7692 -127.895 55 -100 c 1,12,-1
 95 230 l 1,13,-1
 189 230 l 1,14,-1
 209 -2 l 1,15,16
 258.932 -55.6301 258.932 -55.6301 316.966 -71.3151 c 0,17,18
 400.9 -94 400.9 -94 472.45 -94 c 128,-1,19
 544 -94 544 -94 604 -82.5 c 128,-1,20
 664 -71 664 -71 717 -41 c 0,21,22
 840.112 28.6861 840.112 28.6861 858 170 c 0,23,24
 859.42 181.362 859.42 181.362 859.42 207.841 c 128,-1,25
 859.42 234.319 859.42 234.319 834.71 271.159 c 128,-1,26
 810 308 810 308 761.5 340.5 c 128,-1,27
 713 373 713 373 648.5 399.5 c 2,28,-1
 516.5 453.5 l 2,29,30
 344.887 523.417 344.887 523.417 284.943 574.708 c 0,31,32
 179.686 664.774 179.686 664.774 179.686 772.784 c 0,33,34
 179.686 893.745 179.686 893.745 270.5 1029 c 0,35,36
 294 1064 294 1064 321 1093 c 1,37,38
 245.254 1168.75 245.254 1168.75 245.254 1266.96 c 0,39,40
 245.254 1419.37 245.254 1419.37 359 1526.5 c 0,41,42
 477.329 1637.95 477.329 1637.95 661 1665.5 c 0,43,44
 711 1673 711 1673 765 1673 c 128,-1,45
 819 1673 819 1673 880 1666 c 128,-1,46
 941 1659 941 1659 990.5 1648 c 0,47,48
 1087.81 1626.38 1087.81 1626.38 1133 1597 c 1,49,-1
 1096 1296 l 1,50,-1
 1019 1296 l 1,51,-1
 984 1522 l 1,52,53
 929.833 1587 929.833 1587 728 1587 c 0,54,55
 567.792 1587 567.792 1587 469 1493.5 c 0,56,57
 395.58 1424.01 395.58 1424.01 395.58 1324.08 c 0,58,59
 395.58 1200.72 395.58 1200.72 605.5 1106.5 c 1,60,-1
 735.5 1049 l 2,61,62
 904.916 975.119 904.916 975.119 963.458 921.56 c 0,63,64
 1064.86 828.79 1064.86 828.79 1064.86 720.837 c 0,65,66
 1064.86 635.473 1064.86 635.473 1025.93 546.236 c 128,-1,67
 987 457 987 457 937 397 c 1,0,1
390 1038 m 1,68,69
 316.393 930.421 316.393 930.421 316.393 841.734 c 0,70,71
 316.393 712.357 316.393 712.357 503.5 626 c 0,72,73
 562 599 562 599 625 573 c 2,74,-1
 751 519 l 2,75,76
 814 491 814 491 866 457 c 1,77,78
 927.133 558.889 927.133 558.889 927.133 646.933 c 0,79,80
 927.133 774.888 927.133 774.888 747.5 865.5 c 0,81,82
 691 894 691 894 628.5 920.5 c 2,83,-1
 504 975 l 2,84,85
 442 1003 442 1003 390 1038 c 1,68,69
EndSplineSet
EndChar

StartChar: dieresis
Encoding: 168 168 96
Width: 809
Flags: HW
LayerCount: 2
Fore
SplineSet
504.624 1499.86 m 128,-1,1
 507 1533 507 1533 517 1555 c 128,-1,2
 527 1577 527 1577 543 1593 c 0,3,4
 577 1627 577 1627 623 1627 c 128,-1,5
 669 1627 669 1627 694.071 1600.48 c 128,-1,6
 719.143 1573.96 719.143 1573.96 719.143 1535.93 c 0,7,8
 719.143 1481.14 719.143 1481.14 680.5 1442.5 c 0,9,10
 644 1406 644 1406 610 1406 c 0,11,12
 556.222 1406 556.222 1406 529.235 1436.36 c 128,-1,0
 502.247 1466.72 502.247 1466.72 504.624 1499.86 c 128,-1,1
109.43 1433.98 m 128,-1,14
 83.8596 1461.96 83.8596 1461.96 83.8596 1501.9 c 0,15,16
 83.8596 1554.86 83.8596 1554.86 122 1593 c 0,17,18
 156 1627 156 1627 201.5 1627 c 128,-1,19
 247 1627 247 1627 272.071 1600.48 c 128,-1,20
 297.143 1573.96 297.143 1573.96 297.143 1535.93 c 0,21,22
 297.143 1481.14 297.143 1481.14 258.5 1442.5 c 0,23,24
 222 1406 222 1406 178.5 1406 c 128,-1,13
 135 1406 135 1406 109.43 1433.98 c 128,-1,14
EndSplineSet
EndChar

StartChar: copyright
Encoding: 169 169 97
Width: 1768
Flags: HW
LayerCount: 2
Fore
SplineSet
178 805 m 256,0,1
 178 1010.36 178 1010.36 281.5 1186 c 0,2,3
 437.333 1450.44 437.333 1450.44 732.5 1531.5 c 0,4,5
 829 1558 829 1558 933 1558 c 256,6,7
 1245.9 1558 1245.9 1558 1467 1338.5 c 0,8,9
 1607.99 1198.53 1607.99 1198.53 1662 1005.5 c 0,10,11
 1689 909 1689 909 1689 804.5 c 128,-1,12
 1689 700 1689 700 1662 603.5 c 128,-1,13
 1635 507 1635 507 1585.5 423.5 c 128,-1,14
 1536 340 1536 340 1467 271 c 128,-1,15
 1398 202 1398 202 1314 153.5 c 0,16,17
 1136.47 51 1136.47 51 933 51 c 256,18,19
 729.526 51 729.526 51 552 153.5 c 0,20,21
 384.086 250.45 384.086 250.45 281.5 423.5 c 0,22,23
 178 598.091 178 598.091 178 805 c 256,0,1
275 805 m 256,24,25
 275 529.328 275 529.328 466.5 333 c 0,26,27
 587.432 209.019 587.432 209.019 756.5 161 c 0,28,29
 841 137 841 137 956 137 c 128,-1,30
 1071 137 1071 137 1191 190 c 128,-1,31
 1311 243 1311 243 1400.5 333.5 c 128,-1,32
 1490 424 1490 424 1541 545.5 c 128,-1,33
 1592 667 1592 667 1592 805 c 256,34,35
 1592 943 1592 943 1541 1064.5 c 128,-1,36
 1490 1186 1490 1186 1400.5 1277 c 128,-1,37
 1311 1368 1311 1368 1191 1420.5 c 128,-1,38
 1071 1473 1071 1473 956 1473 c 128,-1,39
 841 1473 841 1473 756.5 1449 c 128,-1,40
 672 1425 672 1425 599 1381.5 c 128,-1,41
 526 1338 526 1338 466.5 1277 c 128,-1,42
 407 1216 407 1216 364.5 1141.5 c 0,43,44
 275 984.612 275 984.612 275 805 c 256,24,25
1189 512 m 1,45,-1
 1213 457 l 1,46,47
 1144.66 398.426 1144.66 398.426 1008 373 c 0,48,49
 965 365 965 365 897.5 365 c 128,-1,50
 830 365 830 365 760 399.5 c 128,-1,51
 690 434 690 434 641.5 493.5 c 0,52,53
 542 615.567 542 615.567 542 801 c 0,54,55
 541.967 804 541.967 804 541.967 806.99 c 0,56,57
 541.967 990.263 541.967 990.263 654 1113.5 c 0,58,59
 774.455 1246 774.455 1246 969 1246 c 0,60,61
 1131.75 1246 1131.75 1246 1203 1208 c 1,62,-1
 1203 1003 l 1,63,-1
 1142 1003 l 1,64,-1
 1099 1139 l 1,65,66
 1055 1177 1055 1177 937 1177 c 0,67,68
 819.369 1177 819.369 1177 745.5 1092 c 0,69,70
 666 1000.52 666 1000.52 666 848 c 0,71,72
 666 652.217 666 652.217 758.5 543 c 0,73,74
 839.806 447 839.806 447 960.236 447 c 128,-1,75
 1080.67 447 1080.67 447 1189 512 c 1,45,-1
EndSplineSet
EndChar

StartChar: guilsinglleft
Encoding: 8249 8249 99
Width: 1190
Flags: HW
LayerCount: 2
Fore
SplineSet
262 674 m 1,0,-1
 956 1086 l 1,1,-1
 987 993 l 1,2,-1
 437 614 l 1,3,-1
 884 242 l 1,4,-1
 828 152 l 1,5,-1
 244 547 l 1,6,-1
 262 674 l 1,0,-1
EndSplineSet
EndChar

StartChar: registered
Encoding: 174 174 100
Width: 1768
Flags: HW
LayerCount: 2
Fore
SplineSet
178 805.5 m 0,0,1
 178 910 178 910 205 1006.5 c 128,-1,2
 232 1103 232 1103 281.5 1187 c 128,-1,3
 331 1271 331 1271 399.5 1339.5 c 128,-1,4
 468 1408 468 1408 552 1457 c 0,5,6
 726.857 1559 726.857 1559 933 1559 c 256,7,8
 1245.9 1559 1245.9 1559 1467 1339.5 c 0,9,10
 1607.99 1199.53 1607.99 1199.53 1662 1006.5 c 0,11,12
 1689 910 1689 910 1689 805.5 c 128,-1,13
 1689 701 1689 701 1662 604.5 c 128,-1,14
 1635 508 1635 508 1585.5 424.5 c 128,-1,15
 1536 341 1536 341 1467 272 c 128,-1,16
 1398 203 1398 203 1314 154.5 c 0,17,18
 1136.47 52 1136.47 52 933 52 c 256,19,20
 729.526 52 729.526 52 552 154.5 c 0,21,22
 384.086 251.45 384.086 251.45 281.5 424.5 c 0,23,24
 178 599.091 178 599.091 178 805.5 c 0,0,1
275 806 m 256,25,26
 275 530.328 275 530.328 466.5 334 c 0,27,28
 587.432 210.019 587.432 210.019 756.5 162 c 0,29,30
 841 138 841 138 956 138 c 128,-1,31
 1071 138 1071 138 1191 190.5 c 128,-1,32
 1311 243 1311 243 1400.5 334 c 128,-1,33
 1490 425 1490 425 1541 546.5 c 128,-1,34
 1592 668 1592 668 1592 806 c 256,35,36
 1592 944 1592 944 1541 1065.5 c 128,-1,37
 1490 1187 1490 1187 1400.5 1278 c 128,-1,38
 1311 1369 1311 1369 1191 1421.5 c 128,-1,39
 1071 1474 1071 1474 956 1474 c 128,-1,40
 841 1474 841 1474 756.5 1450 c 128,-1,41
 672 1426 672 1426 599 1382.5 c 128,-1,42
 526 1339 526 1339 466.5 1278 c 128,-1,43
 407 1217 407 1217 364.5 1142.5 c 0,44,45
 275 985.612 275 985.612 275 806 c 256,25,26
1270 1014 m 1,46,47
 1270 801.466 1270 801.466 1028 765 c 1,48,49
 1080 736 1080 736 1114 690 c 128,-1,50
 1148 644 1148 644 1173.5 596.5 c 2,51,-1
 1221 508.5 l 2,52,53
 1243 468 1243 468 1272 449 c 1,54,55
 1297.67 438 1297.67 438 1338 438 c 1,56,-1
 1338 375 l 1,57,-1
 1200 375 l 2,58,59
 1180 375 1180 375 1163 397.5 c 128,-1,60
 1146 420 1146 420 1128 455 c 128,-1,61
 1110 490 1110 490 1090 533.5 c 128,-1,62
 1070 577 1070 577 1043.5 619 c 0,63,64
 981.732 716.897 981.732 716.897 905 751 c 1,65,-1
 779 751 l 1,66,-1
 779 452 l 1,67,-1
 898 436 l 1,68,-1
 898 375 l 1,69,-1
 572 375 l 1,70,-1
 572 436 l 1,71,-1
 665 452 l 1,72,-1
 665 1154 l 1,73,-1
 572 1173 l 1,74,-1
 572 1240 l 1,75,-1
 715 1240 l 1,76,-1
 954 1245 l 1,77,78
 1180.55 1245 1180.55 1245 1248 1108.5 c 0,79,80
 1269 1066 1269 1066 1270 1014 c 1,46,47
1144 997 m 0,81,82
 1144 1172 1144 1172 929.625 1172 c 0,83,84
 825.25 1172 825.25 1172 779 1162 c 1,85,-1
 779 823 l 1,86,87
 818 817 818 817 875.5 817 c 2,88,-1
 953 817 l 2,89,90
 1039.6 817 1039.6 817 1093.5 872 c 0,91,92
 1144 923.531 1144 923.531 1144 997 c 0,81,82
EndSplineSet
EndChar

StartChar: macron
Encoding: 175 175 101
Width: 614
Flags: HW
LayerCount: 2
Fore
SplineSet
51 1551 m 1,0,-1
 561 1551 l 1,1,-1
 556 1432 l 1,2,-1
 47 1432 l 1,3,-1
 51 1551 l 1,0,-1
EndSplineSet
EndChar

StartChar: degree
Encoding: 176 176 102
Width: 899
Flags: HW
LayerCount: 2
Fore
SplineSet
524.5 955 m 0,0,1
 454 955 454 955 395.5 980.5 c 0,2,3
 275.976 1032.6 275.976 1032.6 227 1153 c 0,4,5
 203.96 1209.64 203.96 1209.64 203.96 1242.5 c 0,6,7
 203.96 1344.66 203.96 1344.66 230.48 1404.33 c 128,-1,8
 257 1464 257 1464 302.5 1507.5 c 0,9,10
 399.253 1600 399.253 1600 542 1600 c 0,11,12
 679 1600 679 1600 773.5 1505.5 c 0,13,14
 864.04 1414.96 864.04 1414.96 864.04 1283.27 c 0,15,16
 864.04 1140.52 864.04 1140.52 764 1047 c 0,17,18
 665.581 955 665.581 955 524.5 955 c 0,0,1
529.5 1052 m 0,19,20
 576 1052 576 1052 616.5 1069 c 128,-1,21
 657 1086 657 1086 686.5 1116.5 c 0,22,23
 751.059 1183.25 751.059 1183.25 751.059 1283.62 c 0,24,25
 751.059 1375.87 751.059 1375.87 691 1438 c 0,26,27
 629.133 1502 629.133 1502 538 1502 c 0,28,29
 442.867 1502 442.867 1502 381 1438 c 0,30,31
 316.943 1371.73 316.943 1371.73 316.943 1272.65 c 0,32,33
 316.943 1183.87 316.943 1183.87 377.5 1118 c 128,-1,34
 438.177 1052 438.177 1052 529.5 1052 c 0,19,20
EndSplineSet
EndChar

StartChar: plusminus
Encoding: 177 177 103
Width: 1370
Flags: HW
LayerCount: 2
Fore
SplineSet
606 536 m 1,0,-1
 634 715 l 1,1,-1
 476 709 l 1,2,-1
 251 709 l 1,3,-1
 266 836 l 1,4,-1
 491 836 l 1,5,-1
 647 827 l 1,6,7
 648 843 648 843 650.5 866.5 c 128,-1,8
 653 890 653 890 655 915.5 c 128,-1,9
 657 941 657 941 659.5 965 c 128,-1,10
 662 989 662 989 663 1005 c 2,11,-1
 690 1235 l 1,12,-1
 833 1235 l 1,13,-1
 807 1005 l 1,14,-1
 777 827 l 1,15,-1
 908 836 l 1,16,-1
 1163 836 l 1,17,-1
 1149 709 l 1,18,-1
 893 709 l 1,19,-1
 765 715 l 1,20,21
 764 699 764 699 762 675 c 2,22,-1
 758 625.5 l 2,23,24
 756 600 756 600 753.5 576 c 128,-1,25
 751 552 751 552 750 536 c 2,26,-1
 722 295 l 1,27,-1
 578 295 l 1,28,-1
 606 536 l 1,0,-1
193 150 m 1,29,-1
 1062 150 l 1,30,-1
 1049 30 l 1,31,-1
 180 30 l 1,32,-1
 193 150 l 1,29,-1
EndSplineSet
EndChar

StartChar: acute
Encoding: 180 180 104
Width: 559
Flags: HW
LayerCount: 2
Fore
SplineSet
57 1304 m 1,0,-1
 379 1729 l 1,1,-1
 492 1596 l 1,2,3
 460.939 1543.2 460.939 1543.2 327 1426 c 1,4,-1
 247 1359 l 1,5,6
 158.286 1288.03 158.286 1288.03 100 1255 c 1,7,-1
 57 1304 l 1,0,-1
EndSplineSet
EndChar

StartChar: paragraph
Encoding: 182 182 105
Width: 1364
Flags: HW
LayerCount: 2
Fore
SplineSet
262 70 m 1,0,-1
 444 94 l 1,1,-1
 537 774 l 1,2,3
 284.147 780.167 284.147 780.167 206.5 972 c 0,4,5
 179.875 1037.78 179.875 1037.78 179.875 1130.5 c 128,-1,6
 179.875 1223.22 179.875 1223.22 208.938 1304.11 c 128,-1,7
 238 1385 238 1385 304 1445 c 0,8,9
 442.6 1571 442.6 1571 731 1571 c 0,10,11
 829.429 1571 829.429 1571 910.214 1564.5 c 2,12,-1
 1029.5 1555 l 2,13,14
 1068 1552 1068 1552 1107 1552 c 2,15,-1
 1368 1552 l 1,16,-1
 1359 1449 l 1,17,-1
 1172 1430 l 1,18,19
 1154 1274 1154 1274 1130 1104.5 c 2,20,-1
 1032 420 l 2,21,22
 1008 250 1008 250 989 94 c 1,23,-1
 1164 69 l 1,24,-1
 1156 0 l 1,25,-1
 819 0 l 1,26,-1
 1015 1428 l 1,27,-1
 975.5 1434.5 l 2,28,29
 911 1445 911 1445 783 1445 c 1,30,-1
 585 0 l 1,31,-1
 256 0 l 1,32,-1
 262 70 l 1,0,-1
EndSplineSet
EndChar

StartChar: cedilla
Encoding: 184 184 107
Width: 479
Flags: HW
LayerCount: 2
Fore
SplineSet
39 -331 m 1,0,1
 70.5714 -348 70.5714 -348 133.786 -348 c 128,-1,2
 197 -348 197 -348 250 -292.745 c 128,-1,3
 303 -237.489 303 -237.489 303 -73 c 0,4,5
 303 -35 303 -35 287 21 c 1,6,-1
 333 25 l 1,7,-1
 377 21 l 1,8,9
 408.667 -32.8333 408.667 -32.8333 408.667 -134.642 c 0,10,11
 408.667 -407.909 408.667 -407.909 247 -452 c 0,12,13
 203 -464 203 -464 166 -464 c 128,-1,14
 129 -464 129 -464 108 -462 c 128,-1,15
 87 -460 87 -460 68.5 -456 c 0,16,17
 25.1772 -446.633 25.1772 -446.633 11 -436 c 1,18,-1
 39 -331 l 1,0,1
EndSplineSet
EndChar

StartChar: questiondown
Encoding: 191 191 109
Width: 1028
Flags: HW
LayerCount: 2
Fore
SplineSet
567 1204 m 0,0,1
 474.957 1204 474.957 1204 474.957 1283.72 c 0,2,3
 474.957 1349.78 474.957 1349.78 525 1393 c 0,4,5
 570.158 1432 570.158 1432 616.079 1432 c 128,-1,6
 662 1432 662 1432 687.519 1408.94 c 128,-1,7
 713.037 1385.87 713.037 1385.87 713.037 1348.97 c 128,-1,8
 713.037 1312.06 713.037 1312.06 698.5 1287 c 128,-1,9
 684 1262 684 1262 662.5 1243.5 c 0,10,11
 616.595 1204 616.595 1204 567 1204 c 0,0,1
646.5 632 m 0,12,13
 672 669 672 669 672 732.857 c 128,-1,14
 672 796.714 672 796.714 622 911 c 1,15,-1
 725 951 l 1,16,-1
 739 950 l 1,17,18
 793.364 895.636 793.364 895.636 813 768 c 0,19,20
 819 729 819 729 819 684 c 128,-1,21
 819 639 819 639 790 598.5 c 128,-1,22
 761 558 761 558 714 524 c 128,-1,23
 667 490 667 490 607.5 459 c 1,24,-1
 404.5 348 l 1,25,26
 266.206 269.462 266.206 269.462 234 197 c 1,27,28
 222 157.571 222 157.571 222 87.2857 c 128,-1,29
 222 17 222 17 250.5 -54 c 128,-1,30
 279 -125 279 -125 327 -173 c 0,31,32
 424 -270 424 -270 576 -270 c 0,33,34
 679.6 -270 679.6 -270 748 -232 c 1,35,-1
 726 -346 l 1,36,37
 690.231 -381.769 690.231 -381.769 591 -395 c 0,38,39
 561 -399 561 -399 533 -399 c 0,40,41
 290.143 -399 290.143 -399 176 -258 c 0,42,43
 84 -144.353 84 -144.353 84 41 c 0,44,45
 84 258.66 84 258.66 270 385 c 0,46,47
 323 421 323 421 378 450.5 c 2,48,-1
 486 507 l 1,49,50
 600.58 565.371 600.58 565.371 646.5 632 c 0,12,13
EndSplineSet
EndChar

StartChar: germandbls
Encoding: 223 223 110
Width: 1170
Flags: HW
LayerCount: 2
Fore
SplineSet
202 927 m 1,0,1
 253.487 1333.48 253.487 1333.48 436 1480.5 c 0,2,3
 538.537 1563.1 538.537 1563.1 662 1578 c 0,4,5
 720 1585 720 1585 780.5 1585 c 128,-1,6
 841 1585 841 1585 898 1567 c 128,-1,7
 955 1549 955 1549 996.5 1513 c 0,8,9
 1085 1436.23 1085 1436.23 1085 1297 c 0,10,11
 1085 1137.29 1085 1137.29 950 1023.5 c 1,12,-1
 885 967 l 1,13,14
 815 904 815 904 815 857.5 c 128,-1,15
 815 811 815 811 848.5 759 c 128,-1,16
 882 707 882 707 941 626 c 1,17,-1
 980.5 562.5 l 1,18,19
 1057 437.488 1057 437.488 1057 318 c 0,20,21
 1057 179.474 1057 179.474 931 80 c 0,22,23
 808.133 -17 808.133 -17 648 -17 c 0,24,25
 522.5 -17 522.5 -17 430 20 c 1,26,-1
 451 171 l 1,27,28
 497.692 124.308 497.692 124.308 606.5 97.5 c 0,29,30
 641 89 641 89 678 89 c 128,-1,31
 715 89 715 89 754 99 c 128,-1,32
 793 109 793 109 823 132.5 c 0,33,34
 890 184.983 890 184.983 890 295 c 0,35,36
 890 399 890 399 806 543 c 1,37,-1
 762 604 l 1,38,39
 671 732.917 671 732.917 671 811 c 0,40,41
 671 870.923 671 870.923 691 902.462 c 128,-1,42
 711 934 711 934 728 953 c 2,43,-1
 765 993 l 1,44,45
 924 1138.75 924 1138.75 924 1293 c 0,46,47
 924 1427.26 924 1427.26 816 1472.5 c 0,48,49
 779 1488 779 1488 721 1488 c 128,-1,50
 663 1488 663 1488 604 1458 c 128,-1,51
 545 1428 545 1428 496 1357.5 c 0,52,53
 391.488 1207.13 391.488 1207.13 350 879 c 2,54,-1
 237 0 l 1,55,-1
 82 0 l 1,56,-1
 202 927 l 1,0,1
EndSplineSet
EndChar

StartChar: oslash
Encoding: 248 248 111
Width: 1122
Flags: HW
LayerCount: 2
Fore
SplineSet
915 1060 m 1,0,1
 1031.21 937.57 1031.21 937.57 1031.21 686.549 c 0,2,3
 1031.21 418.074 1031.21 418.074 880.5 208 c 0,4,5
 779.406 67.0816 779.406 67.0816 631.5 10.5 c 0,6,7
 557 -18 557 -18 473 -18 c 0,8,9
 329 -18 329 -18 238 53 c 1,10,-1
 113 -127 l 1,11,-1
 41 -87 l 1,12,-1
 179 112 l 1,13,14
 86.7949 234.249 86.7949 234.249 86.7949 459.646 c 0,15,16
 86.7949 728.926 86.7949 728.926 237.5 939 c 0,17,18
 338.972 1080.45 338.972 1080.45 485.5 1136.5 c 0,19,20
 560 1165 560 1165 663.5 1165 c 128,-1,21
 767 1165 767 1165 852 1112 c 1,22,-1
 982 1299 l 1,23,-1
 1054 1259 l 1,24,-1
 915 1060 l 1,0,1
771 1008 m 1,25,26
 712 1067 712 1067 632 1067 c 128,-1,27
 552 1067 552 1067 500.5 1039.5 c 128,-1,28
 449 1012 449 1012 408 965.5 c 128,-1,29
 367 919 367 919 337 857 c 0,30,31
 251.9 681.127 251.9 681.127 251.9 456.645 c 0,32,33
 251.9 329.293 251.9 329.293 280 247 c 1,34,-1
 771 1008 l 1,25,26
323 164 m 1,35,36
 386 80 386 80 501 80 c 0,37,38
 675.805 80 675.805 80 778 289.5 c 0,39,40
 865.1 468.055 865.1 468.055 865.1 689.355 c 0,41,42
 865.1 840.5 865.1 840.5 821 935 c 1,43,-1
 323 164 l 1,35,36
EndSplineSet
EndChar

StartChar: endash
Encoding: 8211 8211 112
Width: 1548
Flags: HW
LayerCount: 2
Fore
SplineSet
262 836 m 1,0,-1
 1364 836 l 1,1,-1
 1340 710 l 1,2,-1
 238 710 l 1,3,-1
 262 836 l 1,0,-1
EndSplineSet
EndChar

StartChar: emdash
Encoding: 8212 8212 113
Width: 2043
Flags: HW
LayerCount: 2
Fore
SplineSet
261 836 m 1,0,-1
 1858 836 l 1,1,-1
 1835 710 l 1,2,-1
 238 710 l 1,3,-1
 261 836 l 1,0,-1
EndSplineSet
EndChar

StartChar: quoteleft
Encoding: 8216 8216 114
Width: 682
Flags: HW
LayerCount: 2
Fore
SplineSet
395 937 m 1,0,1
 304.312 960.579 304.312 960.579 256 1048 c 0,2,3
 217 1118.57 217 1118.57 217 1214.29 c 128,-1,4
 217 1310 217 1310 251 1390.5 c 128,-1,5
 285 1471 285 1471 339 1535 c 0,6,7
 439.131 1653.67 439.131 1653.67 597 1721 c 1,8,-1
 631 1664 l 1,9,-1
 629 1647 l 1,10,11
 543.968 1616.48 543.968 1616.48 471.5 1512.5 c 0,12,13
 392 1398.43 392 1398.43 392 1281 c 0,14,15
 392 1166.78 392 1166.78 462 1112 c 0,16,17
 485 1094 485 1094 515 1088 c 1,18,-1
 511 1055 l 1,19,-1
 395 937 l 1,0,1
EndSplineSet
EndChar

StartChar: dagger
Encoding: 8224 8224 120
Width: 816
Flags: HW
LayerCount: 2
Fore
SplineSet
397 1008 m 1,0,-1
 425 1143 l 1,1,-1
 139 1143 l 1,2,-1
 156 1263 l 1,3,-1
 459 1263 l 1,4,-1
 471 1469 l 1,5,-1
 495 1646 l 1,6,-1
 646 1646 l 1,7,-1
 617 1469 l 1,8,-1
 560 1263 l 1,9,-1
 854 1263 l 1,10,-1
 837 1143 l 1,11,-1
 560 1143 l 1,12,-1
 551 1008 l 1,13,-1
 386 151 l 1,14,-1
 292 151 l 1,15,-1
 397 1008 l 1,0,-1
EndSplineSet
EndChar

StartChar: bullet
Encoding: 8226 8226 121
Width: 858
Flags: HW
LayerCount: 2
Fore
SplineSet
493 567.5 m 128,-1,1
 456 548 456 548 421 548 c 128,-1,2
 386 548 386 548 359.5 559 c 128,-1,3
 333 570 333 570 314 589.5 c 0,4,5
 273 631.579 273 631.579 273 679.289 c 128,-1,6
 273 727 273 727 290 764 c 128,-1,7
 307 801 307 801 335 831 c 0,8,9
 397.533 898 397.533 898 477 898 c 0,10,11
 538.432 898 538.432 898 579 858.5 c 0,12,13
 619 819.553 619 819.553 619 771.276 c 128,-1,14
 619 723 619 723 602.5 685.5 c 128,-1,15
 586 648 586 648 558 617.5 c 128,-1,0
 530 587 530 587 493 567.5 c 128,-1,1
EndSplineSet
EndChar

StartChar: mu
Encoding: 181 181 124
Width: 1364
Flags: HW
LayerCount: 2
Fore
SplineSet
500 -20 m 1,0,1
 384.358 -17.8585 384.358 -17.8585 338 58 c 1,2,-1
 273 -372 l 1,3,-1
 125 -372 l 1,4,-1
 234 358 l 1,5,6
 254 502 254 502 279 652.5 c 128,-1,7
 304 803 304 803 320 961 c 1,8,9
 322 998 322 998 318.5 1021.5 c 128,-1,10
 315 1045 315 1045 292 1045 c 128,-1,11
 269 1045 269 1045 223 1002 c 1,12,-1
 196 1045 l 1,13,14
 210.154 1073.31 210.154 1073.31 247.077 1099.15 c 0,15,16
 319.714 1150 319.714 1150 380 1150 c 0,17,18
 484.075 1150 484.075 1150 484.075 1045.71 c 0,19,20
 484.075 970.612 484.075 970.612 454.037 781.306 c 2,21,-1
 408 496 l 2,22,23
 389.923 387.538 389.923 387.538 389.923 296.03 c 0,24,25
 389.923 90 389.923 90 558 90 c 0,26,27
 674 90 674 90 812 205 c 0,28,29
 848 235 848 235 872 261 c 1,30,-1
 991 1140 l 1,31,-1
 1147 1140 l 1,32,-1
 1019 189 l 2,33,34
 1014.76 157.235 1014.76 157.235 1014.76 122.118 c 128,-1,35
 1014.76 87 1014.76 87 1043.11 87 c 128,-1,36
 1071.46 87 1071.46 87 1121 133 c 1,37,-1
 1148 87 l 1,38,39
 1114.06 32.7039 1114.06 32.7039 1024.5 -4.5 c 0,40,41
 992 -18 992 -18 960.5 -18 c 128,-1,42
 929 -18 929 -18 907 -11.5 c 0,43,44
 851.571 4.87663 851.571 4.87663 851.571 84.7959 c 0,45,46
 851.571 105.286 851.571 105.286 855 131 c 1,47,48
 756.402 28.8804 756.402 28.8804 611.5 -7 c 0,49,50
 559 -20 559 -20 500 -20 c 1,0,1
EndSplineSet
EndChar

StartChar: logicalnot
Encoding: 172 172 125
Width: 1370
Flags: HW
LayerCount: 2
Fore
SplineSet
226 837 m 1,0,-1
 1188 837 l 1,1,-1
 1126 322 l 1,2,-1
 985 322 l 1,3,-1
 1035 731 l 1,4,-1
 214 731 l 1,5,-1
 226 837 l 1,0,-1
EndSplineSet
EndChar

StartChar: yen
Encoding: 165 165 126
Width: 1483
Flags: HW
LayerCount: 2
Fore
SplineSet
389 70 m 1,0,-1
 628 95 l 1,1,-1
 661 381 l 1,2,-1
 234 381 l 1,3,-1
 246 483 l 1,4,-1
 672 483 l 1,5,-1
 702 738 l 1,6,-1
 274 738 l 1,7,-1
 285 841 l 1,8,-1
 667 841 l 1,9,-1
 375 1436 l 1,10,-1
 246 1451 l 1,11,-1
 255 1531 l 1,12,-1
 745 1531 l 1,13,-1
 736 1451 l 1,14,-1
 538 1436 l 1,15,-1
 753 959 l 1,16,-1
 802 843 l 1,17,-1
 876 965 l 1,18,-1
 1235 1436 l 1,19,-1
 1071 1451 l 1,20,-1
 1080 1531 l 1,21,-1
 1534 1531 l 1,22,-1
 1525 1452 l 1,23,-1
 1387 1429 l 1,24,-1
 911 841 l 1,25,-1
 1280 841 l 1,26,-1
 1268 738 l 1,27,-1
 840 738 l 1,28,-1
 810 483 l 1,29,-1
 1239 483 l 1,30,-1
 1227 381 l 1,31,-1
 798 381 l 1,32,-1
 765 95 l 1,33,-1
 1005 70 l 1,34,-1
 997 0 l 1,35,-1
 383 0 l 1,36,-1
 389 70 l 1,0,-1
EndSplineSet
EndChar

StartChar: divide
Encoding: 247 247 127
Width: 1370
Flags: HW
LayerCount: 2
Fore
SplineSet
791 1274 m 0,0,1
 886.926 1274 886.926 1274 886.926 1185.47 c 0,2,3
 886.926 1121.2 886.926 1121.2 835.5 1079 c 0,4,5
 795.281 1046 795.281 1046 760.641 1046 c 128,-1,6
 726 1046 726 1046 707 1053 c 128,-1,7
 688 1060 688 1060 674.5 1073.5 c 0,8,9
 644.414 1103.59 644.414 1103.59 648.707 1141.29 c 128,-1,10
 653 1179 653 1179 667 1201.5 c 128,-1,11
 681 1224 681 1224 701 1240 c 0,12,13
 743.5 1274 743.5 1274 791 1274 c 0,0,1
286 837 m 1,14,-1
 1155 837 l 1,15,-1
 1141 712 l 1,16,-1
 272 712 l 1,17,-1
 286 837 l 1,14,-1
697 501 m 0,18,19
 792.943 501 792.943 501 792.943 412.447 c 0,20,21
 792.943 347.389 792.943 347.389 742.5 306 c 0,22,23
 702.281 273 702.281 273 667.141 273 c 128,-1,24
 632 273 632 273 613 280 c 0,25,26
 556.053 300.981 556.053 300.981 556.053 363.227 c 0,27,28
 556.053 424.787 556.053 424.787 607.5 467 c 0,29,30
 648.938 501 648.938 501 697 501 c 0,18,19
EndSplineSet
EndChar

StartChar: Ccedilla
Encoding: 199 199 128
Width: 1251
Flags: HW
LayerCount: 2
Fore
SplineSet
333 -329 m 1,0,1
 364.571 -346 364.571 -346 427.786 -346 c 128,-1,2
 491 -346 491 -346 538 -297 c 0,3,4
 597 -235.489 597 -235.489 597 -88.8889 c 0,5,6
 597 -50.5 597 -50.5 591 -16 c 1,7,8
 345.08 -16 345.08 -16 211 193.5 c 0,9,10
 92.8596 378.094 92.8596 378.094 92.8596 646.152 c 0,11,12
 92.8596 1034.85 92.8596 1034.85 313.5 1292 c 0,13,14
 453.735 1455.44 453.735 1455.44 644.5 1516 c 0,15,16
 739 1546 739 1546 822.5 1546 c 128,-1,17
 906 1546 906 1546 960.5 1541 c 128,-1,18
 1015 1536 1015 1536 1058.5 1528.5 c 128,-1,19
 1102 1521 1102 1521 1135 1512.5 c 2,20,-1
 1238 1485 l 1,21,-1
 1170 1122 l 1,22,-1
 1076 1122 l 1,23,-1
 1072 1397 l 1,24,25
 1003.07 1435.3 1003.07 1435.3 938.533 1442.65 c 128,-1,26
 874 1450 874 1450 798.5 1450 c 128,-1,27
 723 1450 723 1450 643.5 1414.5 c 128,-1,28
 564 1379 564 1379 501 1318 c 128,-1,29
 438 1257 438 1257 392 1177 c 0,30,31
 259.75 947 259.75 947 259.75 664.852 c 0,32,33
 259.75 264.387 259.75 264.387 461.5 126.5 c 0,34,35
 531 79 531 79 631 79 c 0,36,37
 769.763 79 769.763 79 868.5 135 c 0,38,39
 902 154 902 154 922 179 c 1,40,41
 923 184 923 184 932 215.5 c 2,42,-1
 972.5 358 l 2,43,44
 982 392 982 392 984 402 c 1,45,-1
 1082 401 l 1,46,-1
 1042 70 l 1,47,-1
 982 50 l 2,48,49
 831.87 -0.0434787 831.87 -0.0434787 686 -12 c 1,50,51
 702.531 -62.3125 702.531 -62.3125 702.531 -111.688 c 128,-1,52
 702.531 -161.062 702.531 -161.062 697.766 -217.031 c 128,-1,53
 693 -273 693 -273 672 -325.5 c 128,-1,54
 651 -378 651 -378 618 -408 c 0,55,56
 558.6 -462 558.6 -462 443 -462 c 0,57,58
 342.333 -462 342.333 -462 305 -434 c 1,59,-1
 333 -329 l 1,0,1
EndSplineSet
EndChar

StartChar: AE
Encoding: 198 198 129
Width: 1834
Flags: HW
LayerCount: 2
Fore
SplineSet
726 1431 m 1,0,-1
 423 1450 l 1,1,-1
 434 1530 l 1,2,-1
 1786 1530 l 1,3,-1
 1779 1220 l 1,4,-1
 1693 1220 l 1,5,-1
 1657 1431 l 1,6,-1
 1156 1443 l 1,7,-1
 1070 840 l 1,8,-1
 1546 846 l 1,9,-1
 1536 721 l 1,10,-1
 1061 734 l 1,11,-1
 977 94 l 1,12,-1
 1585 113 l 1,13,-1
 1698 341 l 1,14,-1
 1782 316 l 1,15,-1
 1693 0 l 1,16,-1
 662 0 l 1,17,-1
 670 69 l 1,18,-1
 817 93 l 1,19,-1
 869 500 l 1,20,-1
 390 500 l 1,21,-1
 188 94 l 1,22,-1
 399 69 l 1,23,-1
 394 0 l 1,24,-1
 -142 0 l 1,25,-1
 -129 69 l 1,26,-1
 20 93 l 1,27,-1
 726 1431 l 1,0,-1
882 597 m 1,28,-1
 990 1430 l 1,29,-1
 856 1434 l 1,30,-1
 439 597 l 1,31,-1
 882 597 l 1,28,-1
EndSplineSet
EndChar

StartChar: cent
Encoding: 162 162 130
Width: 1056
Flags: HW
LayerCount: 2
Fore
SplineSet
878 968 m 1,0,1
 786.432 1045 786.432 1045 663 1045 c 0,2,3
 501.139 1045 501.139 1045 396.5 878 c 0,4,5
 291 709.626 291 709.626 291 453 c 0,6,7
 291 272 291 272 351.5 182 c 128,-1,8
 412 92 412 92 518 92 c 0,9,10
 628.13 92 628.13 92 739 167 c 0,11,12
 773 190 773 190 809 217 c 1,13,-1
 841 151 l 1,14,15
 714.222 9.30645 714.222 9.30645 538 -15 c 1,16,-1
 498 -215 l 1,17,-1
 389 -171 l 1,18,-1
 420 -16 l 1,19,20
 206.814 11.0235 206.814 11.0235 144 256 c 0,21,22
 124 334 124 334 124 420 c 128,-1,23
 124 506 124 506 138.5 586 c 128,-1,24
 153 666 153 666 181 742.5 c 128,-1,25
 209 819 209 819 251 888.5 c 128,-1,26
 293 958 293 958 348 1013.5 c 0,27,28
 465.471 1132.04 465.471 1132.04 621 1157 c 1,29,-1
 670 1358 l 1,30,-1
 791 1358 l 1,31,-1
 743 1161 l 1,32,33
 847.093 1149.93 847.093 1149.93 919 1115 c 1,34,-1
 878 968 l 1,0,1
EndSplineSet
EndChar

StartChar: ae
Encoding: 230 230 131
Width: 1704
Flags: HW
LayerCount: 2
Fore
SplineSet
1156 92 m 0,0,1
 1359.47 92 1359.47 92 1529 254 c 1,2,-1
 1567 186 l 1,3,4
 1514.33 114.174 1514.33 114.174 1431.66 68.0869 c 0,5,6
 1273.67 -20 1273.67 -20 1137 -20 c 0,7,8
 836.712 -20 836.712 -20 779 273 c 1,9,10
 680.503 79.9452 680.503 79.9452 504 7.5 c 0,11,12
 437 -20 437 -20 356 -20 c 0,13,14
 73 -20 73 -20 73 396 c 0,15,16
 73 558.189 73 558.189 148 731.5 c 0,17,18
 274.96 1024.88 274.96 1024.88 524 1126.5 c 0,19,20
 611 1162 611 1162 713.562 1162 c 128,-1,21
 816.125 1162 816.125 1162 929 1119 c 1,22,-1
 939 1128 l 1,23,-1
 1037 1162 l 1,24,-1
 999 1013 l 1,25,26
 1154.48 1162 1154.48 1162 1343 1162 c 0,27,28
 1479.43 1162 1479.43 1162 1553.5 1089 c 0,29,30
 1621 1022.48 1621 1022.48 1621 927.239 c 128,-1,31
 1621 832 1621 832 1583.5 769 c 128,-1,32
 1546 706 1546 706 1486 657 c 128,-1,33
 1426 608 1426 608 1350.5 572.5 c 128,-1,34
 1275 537 1275 537 1198.5 514 c 0,35,36
 1050.12 469.39 1050.12 469.39 933 467 c 1,37,38
 930.727 435.636 930.727 435.636 930.727 404.583 c 0,39,40
 930.727 92 930.727 92 1156 92 c 0,0,1
1457 899 m 0,41,42
 1457 1069 1457 1069 1306 1069 c 0,43,44
 1155.46 1069 1155.46 1069 1047.5 892.5 c 0,45,46
 954.272 740.079 954.272 740.079 937 557 c 1,47,48
 1118.74 563.858 1118.74 563.858 1276.5 651 c 0,49,50
 1457 750.705 1457 750.705 1457 899 c 0,41,42
233 406 m 0,51,52
 233 94 233 94 392 94 c 0,53,54
 515 94 515 94 628 207 c 0,55,56
 712.667 291.667 712.667 291.667 766 409 c 1,57,-1
 766 437 l 1,58,59
 767.983 557.943 767.983 557.943 802 672 c 1,60,-1
 861 1011 l 1,61,62
 798.862 1064 798.862 1064 706.431 1064 c 128,-1,63
 614 1064 614 1064 551.5 1034 c 128,-1,64
 489 1004 489 1004 438 953.5 c 128,-1,65
 387 903 387 903 349 836.5 c 128,-1,66
 311 770 311 770 285 697 c 0,67,68
 233 551 233 551 233 406 c 0,51,52
EndSplineSet
EndChar

StartChar: circumflex
Encoding: 710 710 132
Width: 795
Flags: HW
LayerCount: 2
Fore
SplineSet
54 1275 m 1,0,-1
 395 1650 l 1,1,-1
 537 1650 l 1,2,-1
 739 1273 l 1,3,-1
 678 1226 l 1,4,-1
 446 1523 l 1,5,-1
 100 1228 l 1,6,-1
 54 1275 l 1,0,-1
EndSplineSet
EndChar

StartChar: caron
Encoding: 711 711 133
Width: 794
Flags: HW
LayerCount: 2
Fore
SplineSet
85 1603 m 1,0,-1
 139 1650 l 1,1,-1
 385 1377 l 1,2,3
 719 1650 l 1,4,-1
 769 1604 l 1,5,-1
 453 1255 l 1,6,-1
 311 1255 l 1,7,-1
 85 1603 l 1,0,-1
EndSplineSet
EndChar

StartChar: breve
Encoding: 728 728 134
Width: 717
Flags: HW
LayerCount: 2
Fore
SplineSet
467.5 1332 m 128,-1,1
 411 1304 411 1304 344.5 1304 c 128,-1,2
 278 1304 278 1304 224 1332 c 128,-1,3
 170 1360 170 1360 133.5 1406 c 0,4,5
 59 1499.89 59 1499.89 59 1628 c 2,6,-1
 59 1638.5 l 2,7,8
 59 1644 59 1644 60 1648 c 1,9,-1
 145 1648 l 1,10,11
 146 1642 146 1642 146 1634 c 128,-1,12
 146 1626 146 1626 149 1605 c 128,-1,13
 152 1584 152 1584 166 1549 c 128,-1,14
 180 1514 180 1514 204.5 1486 c 0,15,16
 260.5 1422 260.5 1422 352 1422 c 0,17,18
 451.437 1422 451.437 1422 522 1505.5 c 0,19,20
 578.725 1572.62 578.725 1572.62 594 1649 c 1,21,-1
 676 1649 l 1,22,23
 676.25 1645.25 676.25 1645.25 676.25 1637.5 c 128,-1,24
 676.25 1629.75 676.25 1629.75 672.125 1595.38 c 128,-1,25
 668 1561 668 1561 639.5 1505.5 c 128,-1,26
 611 1450 611 1450 567.5 1405 c 128,-1,0
 524 1360 524 1360 467.5 1332 c 128,-1,1
EndSplineSet
EndChar

StartChar: ring
Encoding: 730 730 135
Width: 722
Flags: HW
LayerCount: 2
Fore
SplineSet
363.5 1256 m 0,0,1
 298 1256 298 1256 244.5 1274.5 c 0,2,3
 98.2439 1325.07 98.2439 1325.07 98.2439 1483.41 c 0,4,5
 98.2439 1636.6 98.2439 1636.6 220 1716.5 c 0,6,7
 313.714 1778 313.714 1778 444.357 1778 c 128,-1,8
 575 1778 575 1778 639.752 1717.44 c 128,-1,9
 704.503 1656.88 704.503 1656.88 704.503 1561.26 c 0,10,11
 704.503 1406.82 704.503 1406.82 588.5 1322 c 0,12,13
 498.235 1256 498.235 1256 363.5 1256 c 0,0,1
305.5 1336.5 m 128,-1,15
 339 1321 339 1321 381.5 1320.5 c 128,-1,16
 424 1320 424 1320 461.5 1330.5 c 128,-1,17
 499 1341 499 1341 528.5 1365 c 0,18,19
 599.643 1422.88 599.643 1422.88 599.643 1541.68 c 0,20,21
 599.643 1657.58 599.643 1657.58 502 1699 c 0,22,23
 469 1713 469 1713 427 1713 c 256,24,25
 282.84 1713 282.84 1713 228.5 1608.5 c 0,26,27
 204.379 1562.11 204.379 1562.11 204.379 1515.38 c 128,-1,28
 204.379 1468.66 204.379 1468.66 214.69 1436.83 c 128,-1,29
 225 1405 225 1405 248.5 1378.5 c 128,-1,14
 272 1352 272 1352 305.5 1336.5 c 128,-1,15
EndSplineSet
EndChar

StartChar: tilde
Encoding: 732 732 136
Width: 816
Flags: HW
LayerCount: 2
Fore
SplineSet
249 1520 m 0,0,1
 179 1520 179 1520 88 1416 c 1,2,-1
 50 1485 l 1,3,4
 106.322 1594.12 106.322 1594.12 215.5 1636 c 0,5,6
 252 1650 252 1650 287 1650 c 128,-1,7
 322 1650 322 1650 347.5 1639 c 128,-1,8
 373 1628 373 1628 393.5 1612 c 128,-1,9
 414 1596 414 1596 432 1577 c 128,-1,10
 450 1558 450 1558 468 1542 c 0,11,12
 510.75 1504 510.75 1504 544.875 1504 c 128,-1,13
 579 1504 579 1504 603 1516.5 c 128,-1,14
 627 1529 627 1529 646.5 1547 c 128,-1,15
 666 1565 666 1565 681.5 1585.5 c 2,16,-1
 709 1623 l 1,17,-1
 756 1549 l 1,18,19
 717.376 1433.13 717.376 1433.13 596.5 1388 c 0,20,21
 559 1374 559 1374 519.5 1374 c 128,-1,22
 480 1374 480 1374 452.5 1384.5 c 128,-1,23
 425 1395 425 1395 404.5 1411.5 c 128,-1,24
 384 1428 384 1428 367.5 1446.5 c 128,-1,25
 351 1465 351 1465 334 1481.5 c 0,26,27
 294.333 1520 294.333 1520 249 1520 c 0,0,1
EndSplineSet
EndChar

StartChar: hungarumlaut
Encoding: 733 733 137
Width: 917
Flags: HW
LayerCount: 2
Fore
SplineSet
481 1292 m 1,0,-1
 728 1707 l 1,1,-1
 844 1613 l 1,2,3
 819.052 1536.24 819.052 1536.24 715 1416 c 0,4,5
 616.15 1301.77 616.15 1301.77 533 1257 c 1,6,-1
 481 1292 l 1,0,-1
56 1292 m 1,7,-1
 293 1707 l 1,8,-1
 409 1614 l 1,9,10
 380.129 1529.31 380.129 1529.31 283 1417.5 c 0,11,12
 187.022 1307.01 187.022 1307.01 107 1257 c 1,13,-1
 56 1292 l 1,7,-1
EndSplineSet
EndChar

StartChar: ogonek
Encoding: 731 731 138
Width: 487
Flags: HW
LayerCount: 2
Fore
SplineSet
423 -308 m 1,0,1
 326.25 -394 326.25 -394 194 -394 c 0,2,3
 91.3333 -394 91.3333 -394 66 -318 c 0,4,5
 59.875 -299.625 59.875 -299.625 59.875 -289.562 c 128,-1,6
 59.875 -279.5 59.875 -279.5 60.4375 -264.75 c 0,7,8
 62.1032 -221.072 62.1032 -221.072 88.5516 -178.536 c 128,-1,9
 115 -136 115 -136 140 -107.5 c 128,-1,10
 165 -79 165 -79 192 -56 c 128,-1,11
 219 -33 219 -33 246 -14.5 c 1,12,-1
 344 48 l 1,13,-1
 360 5 l 1,14,15
 207 -131 207 -131 207 -217 c 0,16,17
 206.75 -222.25 206.75 -222.25 206.75 -227.18 c 0,18,19
 206.75 -302 206.75 -302 260 -302 c 0,20,21
 329.138 -302 329.138 -302 403 -239 c 1,22,-1
 423 -308 l 1,0,1
EndSplineSet
EndChar

StartChar: fraction
Encoding: 8260 8260 139
Width: 1026
Flags: HW
LayerCount: 2
Fore
SplineSet
786 1530 m 1,0,-1
 918 1530 l 1,1,-1
 237 0 l 1,2,-1
 105 0 l 1,3,-1
 786 1530 l 1,0,-1
EndSplineSet
EndChar

StartChar: dollar
Encoding: 36 36 140
Width: 1205
Flags: HW
LayerCount: 2
Fore
SplineSet
827 1546 m 1,0,1
 1010.26 1530.44 1010.26 1530.44 1107 1465 c 1,2,-1
 1065 1220 l 1,3,-1
 971 1220 l 1,4,-1
 948 1401 l 1,5,6
 860.167 1463 860.167 1463 703 1463 c 0,7,8
 596.455 1463 596.455 1463 510.5 1402 c 0,9,10
 394.7 1319.82 394.7 1319.82 394.7 1164.15 c 0,11,12
 394.7 1013.58 394.7 1013.58 589 897 c 2,13,-1
 819 760 l 1,14,15
 1039 622.951 1039 622.951 1039 429 c 0,16,17
 1039 236.048 1039 236.048 903 113 c 0,18,19
 774.355 -3.39344 774.355 -3.39344 573 -20 c 1,20,-1
 539 -230 l 1,21,-1
 395 -230 l 1,22,-1
 429 -20 l 1,23,24
 269.363 -8.79741 269.363 -8.79741 153 40 c 0,25,26
 122 53 122 53 107 65 c 1,27,-1
 150 343 l 1,28,-1
 251 343 l 1,29,-1
 263 139 l 1,30,31
 332.056 84.3303 332.056 84.3303 465.5 67 c 0,32,33
 504 62 504 62 552 62 c 128,-1,34
 600 62 600 62 661 80 c 128,-1,35
 722 98 722 98 771.5 135.5 c 0,36,37
 890.34 225.53 890.34 225.53 890.34 376.305 c 0,38,39
 890.34 523.902 890.34 523.902 713.5 635.5 c 1,40,-1
 485.5 774 l 1,41,42
 250 918.638 250 918.638 250 1121 c 0,43,44
 250 1300.61 250 1300.61 377 1419 c 0,45,46
 497.609 1531.43 497.609 1531.43 684 1548 c 1,47,-1
 712 1729 l 1,48,-1
 857 1729 l 1,49,-1
 827 1546 l 1,0,1
EndSplineSet
EndChar

StartChar: ordfeminine
Encoding: 170 170 141
Width: 825
Flags: HW
LayerCount: 2
Fore
SplineSet
609 907 m 1,0,1
 481.444 743 481.444 743 339 743 c 0,2,3
 110 743 110 743 110 1040 c 0,4,5
 110 1239.99 110 1239.99 249.5 1403 c 0,6,7
 341.104 1510.04 341.104 1510.04 472.5 1554.5 c 0,8,9
 539 1577 539 1577 620.5 1577 c 128,-1,10
 702 1577 702 1577 789 1548 c 1,11,-1
 875 1579 l 1,12,-1
 746 902 l 1,13,14
 734.919 820 734.919 820 765 820 c 0,15,16
 787.412 820 787.412 820 833 851 c 1,17,-1
 852 818 l 1,18,19
 845.029 804.059 845.029 804.059 807.015 783.029 c 0,20,21
 734.654 743 734.654 743 698.827 743 c 128,-1,22
 663 743 663 743 645 753.5 c 128,-1,23
 627 764 627 764 616 784 c 0,24,25
 592.462 826.796 592.462 826.796 610 895 c 1,26,-1
 609 907 l 1,0,1
332.5 854 m 128,-1,28
 359 838 359 838 395 838 c 128,-1,29
 431 838 431 838 461.5 852.5 c 128,-1,30
 492 867 492 867 520.5 888.5 c 0,31,32
 574.156 928.978 574.156 928.978 618 985 c 1,33,-1
 704 1441 l 1,34,35
 659 1495 659 1495 585 1495 c 128,-1,36
 511 1495 511 1495 449.5 1456 c 128,-1,37
 388 1417 388 1417 347.5 1355 c 0,38,39
 267 1231.77 267 1231.77 267 1058 c 0,40,41
 267 946.655 267 946.655 286.5 908.328 c 128,-1,27
 306 870 306 870 332.5 854 c 128,-1,28
EndSplineSet
EndChar

StartChar: ordmasculine
Encoding: 186 186 142
Width: 835
Flags: HW
LayerCount: 2
Fore
SplineSet
727 860 m 128,-1,1
 665 796 665 796 588.29 764.442 c 128,-1,2
 511.58 732.884 511.58 732.884 433.051 732.884 c 128,-1,3
 354.522 732.884 354.522 732.884 296.761 758.442 c 128,-1,4
 239 784 239 784 200 830 c 0,5,6
 120 924.359 120 924.359 120 1065.18 c 128,-1,7
 120 1206 120 1206 160 1300.5 c 0,8,9
 238.81 1486.69 238.81 1486.69 405 1557 c 0,10,11
 480.706 1589.03 480.706 1589.03 554.528 1589.03 c 0,12,13
 710.891 1589.03 710.891 1589.03 791.5 1488 c 0,14,15
 865 1395.88 865 1395.88 865 1253.94 c 128,-1,16
 865 1112 865 1112 827 1018 c 128,-1,0
 789 924 789 924 727 860 c 128,-1,1
366.5 838 m 0,17,18
 396 818 396 818 416.101 817.985 c 128,-1,19
 436.203 817.971 436.203 817.971 438.386 817.971 c 0,20,21
 576.68 817.971 576.68 817.971 647.5 940 c 0,22,23
 709 1045.97 709 1045.97 709 1220 c 0,24,25
 709 1424.1 709 1424.1 617.5 1488 c 0,26,27
 586 1510 586 1510 528 1510 c 128,-1,28
 470 1510 470 1510 419.5 1473 c 128,-1,29
 369 1436 369 1436 337 1377.5 c 0,30,31
 274 1262.33 274 1262.33 274 1099 c 0,32,33
 274 900.712 274 900.712 366.5 838 c 0,17,18
EndSplineSet
EndChar

StartChar: percent
Encoding: 37 37 143
Width: 1911
Flags: HW
LayerCount: 2
Fore
SplineSet
1357 1530 m 1,0,-1
 1486 1530 l 1,1,-1
 539 0 l 1,2,-1
 410 0 l 1,3,-1
 1357 1530 l 1,0,-1
648.5 783 m 128,-1,5
 572 745 572 745 490.5 745 c 128,-1,6
 409 745 409 745 357 768.5 c 128,-1,7
 305 792 305 792 270 834 c 0,8,9
 200 918 200 918 200 1055 c 0,10,11
 200 1219.36 200 1219.36 317 1347 c 0,12,13
 438.917 1480 438.917 1480 613 1480 c 0,14,15
 890 1480 890 1480 890 1185 c 0,16,17
 890 1012.21 890 1012.21 778.5 883 c 0,18,4
 725 821 725 821 648.5 783 c 128,-1,5
747 1179 m 0,19,20
 747 1398 747 1398 591 1398 c 0,21,22
 474.485 1398 474.485 1398 400.5 1281 c 0,23,24
 336 1179 336 1179 336 1057 c 0,25,26
 336 895.452 336 895.452 428 845 c 0,27,28
 459 828 459 828 511.5 828 c 128,-1,29
 564 828 564 828 610.5 863 c 128,-1,30
 657 898 657 898 687.5 950.5 c 0,31,32
 747 1052.92 747 1052.92 747 1179 c 0,19,20
1036 380.5 m 0,33,34
 1036 453 1036 453 1067 529.5 c 128,-1,35
 1098 606 1098 606 1153 666 c 0,36,37
 1274.92 799 1274.92 799 1449 799 c 0,38,39
 1726 799 1726 799 1726 504 c 0,40,41
 1726 331.215 1726 331.215 1614.5 202 c 0,42,43
 1495.42 64 1495.42 64 1314 64 c 0,44,45
 1180.17 64 1180.17 64 1106 153 c 0,46,47
 1036 237 1036 237 1036 380.5 c 0,33,34
1583 498 m 0,48,49
 1583 717 1583 717 1427 717 c 0,50,51
 1310.49 717 1310.49 717 1236.5 600 c 0,52,53
 1172 498 1172 498 1172 376 c 0,54,55
 1172 214.452 1172 214.452 1264 164 c 0,56,57
 1295 147 1295 147 1347.5 147 c 128,-1,58
 1400 147 1400 147 1446.5 182 c 128,-1,59
 1493 217 1493 217 1523.5 269.5 c 0,60,61
 1583 371.918 1583 371.918 1583 498 c 0,48,49
EndSplineSet
Ligature2: "'frac' Diagonal Fractions in Latin lookup 10 subtable" zero slash zero
EndChar

StartChar: Oslash
Encoding: 216 216 144
Width: 1353
Flags: HW
LayerCount: 2
Fore
SplineSet
607 -18 m 0,0,1
 415.921 -18 415.921 -18 287 113 c 1,2,-1
 125 -125 l 1,3,-1
 57 -83 l 1,4,-1
 234 178 l 1,5,6
 106.667 360.511 106.667 360.511 106.667 671.315 c 0,7,8
 106.667 904.252 106.667 904.252 197 1107 c 128,-1,9
 287.268 1309.6 287.268 1309.6 449.5 1430.5 c 0,10,11
 612.538 1552 612.538 1552 794.861 1552 c 128,-1,12
 977.184 1552 977.184 1552 1097 1449 c 1,13,-1
 1243 1661 l 1,14,-1
 1312 1621 l 1,15,-1
 1155 1389 l 1,16,17
 1306.16 1201.08 1306.16 1201.08 1306.16 870.989 c 0,18,19
 1306.16 500.242 1306.16 500.242 1108.5 245 c 0,20,21
 978.685 77.3654 978.685 77.3654 797.5 14 c 0,22,23
 706 -18 706 -18 607 -18 c 0,0,1
1019 1344 m 1,24,25
 931.889 1456 931.889 1456 785 1456 c 0,26,27
 641.25 1456 641.25 1456 520.5 1351 c 0,28,29
 341.836 1195.64 341.836 1195.64 289 889.5 c 0,30,31
 273.789 801.368 273.789 801.368 273.789 748.316 c 128,-1,32
 273.789 695.263 273.789 695.263 274.895 633.632 c 0,33,34
 278.217 448.383 278.217 448.383 331 307 c 1,35,-1
 1019 1344 l 1,24,25
373 219 m 1,36,37
 462.277 79.8946 462.277 79.8946 629 78 c 1,38,39
 737 78 737 78 832 135.5 c 0,40,41
 1026.47 253.206 1026.47 253.206 1104.5 541 c 0,42,43
 1140.22 672.735 1140.22 672.735 1140.22 825.986 c 0,44,45
 1140.22 1105.67 1140.22 1105.67 1065 1266 c 1,46,-1
 373 219 l 1,36,37
EndSplineSet
EndChar

StartChar: ccedilla
Encoding: 231 231 150
Width: 897
Flags: HW
LayerCount: 2
Fore
SplineSet
165 -331 m 1,0,1
 196.571 -348 196.571 -348 259.786 -348 c 128,-1,2
 323 -348 323 -348 370 -299 c 0,3,4
 429.25 -237.229 429.25 -237.229 429.25 -86.3125 c 0,5,6
 429.25 -47.5 429.25 -47.5 423 -20 c 1,7,-1
 421 -20 l 2,8,9
 255.692 -20 255.692 -20 163 100.5 c 0,10,11
 71 220.1 71 220.1 71 430 c 0,12,13
 71 701.031 71 701.031 218.5 920 c 0,14,15
 319.284 1069.62 319.284 1069.62 473.5 1131.5 c 0,16,17
 552 1163 552 1163 612.5 1163 c 128,-1,18
 673 1163 673 1163 702.5 1159.5 c 128,-1,19
 732 1156 732 1156 761.5 1150 c 0,20,21
 823.101 1137.47 823.101 1137.47 866 1115 c 1,22,-1
 825 968 l 1,23,24
 733.432 1045 733.432 1045 610 1045 c 0,25,26
 448.139 1045 448.139 1045 343.5 878 c 0,27,28
 238 709.626 238 709.626 238 453 c 0,29,30
 238 272 238 272 298.5 182 c 128,-1,31
 359 92 359 92 465 92 c 0,32,33
 575.13 92 575.13 92 686 167 c 0,34,35
 720 190 720 190 756 217 c 1,36,-1
 788 151 l 1,37,38
 676.248 24.3476 676.248 24.3476 517 -10 c 1,39,40
 534.778 -60.3704 534.778 -60.3704 534.778 -111.63 c 128,-1,41
 534.778 -162.889 534.778 -162.889 529.889 -218.944 c 128,-1,42
 525 -275 525 -275 504 -327.5 c 128,-1,43
 483 -380 483 -380 450 -410 c 0,44,45
 390.6 -464 390.6 -464 275 -464 c 0,46,47
 174.333 -464 174.333 -464 137 -436 c 1,48,-1
 165 -331 l 1,0,1
EndSplineSet
EndChar

StartChar: oe
Encoding: 339 339 189
Width: 1774
Flags: HW
LayerCount: 2
Fore
SplineSet
1243 92 m 0,0,1
 1422 92 1422 92 1584 254 c 1,2,-1
 1622 186 l 1,3,4
 1571.33 113.617 1571.33 113.617 1497.17 67.8083 c 0,5,6
 1355 -20 1355 -20 1224 -20 c 0,7,8
 1029.22 -20 1029.22 -20 925.5 115 c 0,9,10
 894 156 894 156 874 204 c 1,11,12
 715.882 -20 715.882 -20 473 -20 c 0,13,14
 191.339 -20 191.339 -20 114 244.5 c 0,15,16
 86.7949 337.542 86.7949 337.542 86.7949 438.335 c 128,-1,17
 86.7949 539.128 86.7949 539.128 103.397 623.564 c 128,-1,18
 120 708 120 708 154 788 c 128,-1,19
 188 868 188 868 237.5 937 c 128,-1,20
 287 1006 287 1006 349 1056 c 0,21,22
 481.68 1163 481.68 1163 644 1163 c 0,23,24
 908.31 1163 908.31 1163 989 923 c 1,25,26
 1157.89 1163 1157.89 1163 1409 1163 c 0,27,28
 1615.23 1163 1615.23 1163 1673.5 1011.5 c 0,29,30
 1691 966 1691 966 1691 900.5 c 128,-1,31
 1691 835 1691 835 1653.5 771.5 c 128,-1,32
 1616 708 1616 708 1556 659 c 128,-1,33
 1496 610 1496 610 1420.5 574 c 128,-1,34
 1345 538 1345 538 1268.5 515 c 0,35,36
 1116.53 469.311 1116.53 469.311 1001 467 c 1,37,38
 999.2 444.2 999.2 444.2 999.2 423.7 c 128,-1,39
 999.2 403.2 999.2 403.2 1000.6 373.1 c 128,-1,40
 1002 343 1002 343 1011.5 301.5 c 128,-1,41
 1021 260 1021 260 1039 222 c 128,-1,42
 1057 184 1057 184 1085 155 c 0,43,44
 1145.83 91.9999 1145.83 91.9999 1243 92 c 0,0,1
1005 557 m 1,45,46
 1187.56 563.762 1187.56 563.762 1347 651 c 0,47,48
 1457.52 711.473 1457.52 711.473 1503.5 800.5 c 0,49,50
 1527 846 1527 846 1527 915 c 128,-1,51
 1527 984 1527 984 1485.5 1026.5 c 128,-1,52
 1444 1069 1444 1069 1380.5 1069 c 128,-1,53
 1317 1069 1317 1069 1269.5 1046 c 128,-1,54
 1222 1023 1222 1023 1183 983.5 c 128,-1,55
 1144 944 1144 944 1113.5 892.5 c 128,-1,56
 1083 841 1083 841 1060.5 784.5 c 0,57,58
 1015.9 672.493 1015.9 672.493 1005 557 c 1,45,46
251.9 454.645 m 0,59,60
 251.9 78 251.9 78 501 78 c 0,61,62
 630.901 78 630.901 78 722.5 200.5 c 0,63,64
 800.526 304.848 800.526 304.848 836 480 c 1,65,66
 840 544 840 544 854 607 c 1,67,68
 857 655 857 655 857 701 c 0,69,70
 852.667 1065 852.667 1065 615 1065 c 0,71,72
 497.495 1065 497.495 1065 408 963.5 c 0,73,74
 290.94 830.736 290.94 830.736 260 581.5 c 0,75,76
 251.9 516.25 251.9 516.25 251.9 454.645 c 0,59,60
EndSplineSet
EndChar

StartChar: daggerdbl
Encoding: 8225 8225 190
Width: 816
Flags: HW
LayerCount: 2
Fore
SplineSet
342 510 m 1,0,-1
 371 658 l 1,1,-1
 141 659 l 1,2,-1
 160 779 l 1,3,-1
 398 779 l 1,4,-1
 405 987 l 1,5,-1
 448 1143 l 1,6,-1
 192 1143 l 1,7,-1
 211 1263 l 1,8,-1
 484 1263 l 1,9,-1
 489 1469 l 1,10,-1
 512 1646 l 1,11,-1
 664 1646 l 1,12,-1
 636 1469 l 1,13,-1
 585 1263 l 1,14,-1
 843 1263 l 1,15,-1
 825 1143 l 1,16,-1
 576 1143 l 1,17,18
 574 1129 574 1129 572.5 1108 c 2,19,-1
 569.5 1065 l 2,20,21
 566 1013.67 566 1013.67 566 988 c 1,22,-1
 508 779 l 1,23,-1
 756 779 l 1,24,-1
 739 659 l 1,25,-1
 507 658 l 1,26,27
 507 610 507 610 501.5 566 c 128,-1,28
 496 522 496 522 495 510 c 1,29,-1
 391 -51 l 1,30,-1
 296 -51 l 1,31,-1
 342 510 l 1,0,-1
EndSplineSet
EndChar

StartChar: Euro
Encoding: 8364 8364 191
Width: 1388
Flags: HW
LayerCount: 2
Fore
SplineSet
38 674 m 1,0,-1
 234 674 l 1,1,2
 237 804 237 804 262 914 c 1,3,-1
 91 914 l 1,4,-1
 107 1020 l 1,5,-1
 292 1020 l 1,6,7
 373.111 1261.35 373.111 1261.35 549.5 1405 c 0,8,9
 722.64 1546 722.64 1546 933 1546 c 0,10,11
 1071.53 1546 1071.53 1546 1185.5 1510.5 c 1,12,-1
 1243 1492 l 1,13,-1
 1281.5 1481 l 2,14,15
 1302 1475 1302 1475 1315 1472 c 1,16,-1
 1264 1254 l 1,17,-1
 1177 1254 l 1,18,-1
 1161 1379 l 1,19,20
 1072.25 1450 1072.25 1450 891 1450 c 0,21,22
 728 1450 728 1450 609.5 1331.5 c 0,23,24
 498.929 1220.93 498.929 1220.93 443 1020 c 1,25,-1
 1030 1020 l 1,26,-1
 1013 914 l 1,27,-1
 419 914 l 1,28,29
 398 802 398 802 395 674 c 1,30,-1
 960 674 l 1,31,-1
 950 568 l 1,32,-1
 394 568 l 1,33,34
 403.795 212.099 403.795 212.099 577 114.5 c 0,35,36
 640 79 640 79 711 79 c 128,-1,37
 782 79 782 79 830 85 c 128,-1,38
 878 91 878 91 917.5 103 c 0,39,40
 1001.14 128.41 1001.14 128.41 1034 169 c 1,41,-1
 1097 340 l 1,42,-1
 1194 339 l 1,43,-1
 1148 70 l 1,44,45
 1119 69 1119 69 1089 61.5 c 2,46,-1
 1022 44 l 1,47,-1
 960 24.5 l 2,48,49
 828.857 -16 828.857 -16 703.929 -16 c 128,-1,50
 579 -16 579 -16 491.5 34 c 128,-1,51
 404 84 404 84 349 166.5 c 0,52,53
 249.782 315.327 249.782 315.327 236 568 c 1,54,-1
 26 568 l 1,55,-1
 38 674 l 1,0,-1
EndSplineSet
EndChar

StartChar: infinity
Encoding: 8734 8734 192
Width: 1884
Flags: HW
LayerCount: 2
Fore
SplineSet
672 264.5 m 0,0,1
 618 241 618 241 585.015 240.438 c 128,-1,2
 552.031 239.877 552.031 239.877 546.156 239.877 c 0,3,4
 373.196 239.877 373.196 239.877 269 349.5 c 0,5,6
 174 449.448 174 449.448 174 597 c 0,7,8
 174 766 174 766 288 880 c 128,-1,9
 402 994 402 994 573 994 c 0,10,11
 741.99 994 741.99 994 883 819.5 c 0,12,13
 923 770 923 770 960 719 c 1,14,15
 1069.64 899.374 1069.64 899.374 1235 969 c 0,16,17
 1294.45 994.032 1294.45 994.032 1372.84 994.032 c 128,-1,18
 1451.23 994.032 1451.23 994.032 1519.11 964.516 c 128,-1,19
 1587 935 1587 935 1630.5 884.5 c 0,20,21
 1714 787.563 1714 787.563 1714 637 c 0,22,23
 1714 463.118 1714 463.118 1609 354 c 0,24,25
 1499.3 240 1499.3 240 1320 240 c 0,26,27
 1153.14 240 1153.14 240 1008.5 415 c 0,28,29
 968 464 968 464 931 515 c 1,30,31
 822.062 329.805 822.062 329.805 672 264.5 c 0,0,1
565 334 m 0,32,33
 619 334 619 334 660.5 355 c 128,-1,34
 702 376 702 376 740 411 c 0,35,36
 807.038 472.745 807.038 472.745 881 586 c 1,37,-1
 818 686 l 2,38,39
 685.778 896 685.778 896 548 896 c 0,40,41
 437.8 896 437.8 896 374 813.5 c 0,42,43
 315 737.207 315 737.207 315 626 c 0,44,45
 315 510.5 315 510.5 381 427.5 c 0,46,47
 455.349 334 455.349 334 565 334 c 0,32,33
1011 646 m 1,48,-1
 1078 544 l 1,49,50
 1221.96 330 1221.96 330 1360 330 c 0,51,52
 1471.75 330 1471.75 330 1528 420 c 0,53,54
 1573 492 1573 492 1573 608 c 0,55,56
 1573 794.484 1573 794.484 1444.5 866.5 c 0,57,58
 1399 892 1399 892 1343 892 c 128,-1,59
 1287 892 1287 892 1241 869 c 128,-1,60
 1195 846 1195 846 1153.5 810 c 0,61,62
 1078.67 745.086 1078.67 745.086 1011 646 c 1,48,-1
EndSplineSet
EndChar

StartChar: lessequal
Encoding: 8804 8804 193
Width: 1364
Flags: HW
LayerCount: 2
Fore
SplineSet
205 760 m 1,0,-1
 1205 1204 l 1,1,-1
 1188 1057 l 1,2,-1
 403 728 l 1,3,-1
 1108 391 l 1,4,-1
 1092 246 l 1,5,-1
 198 698 l 1,6,-1
 205 760 l 1,0,-1
152 118 m 1,7,-1
 1100 118 l 1,8,-1
 1085 -2 l 1,9,-1
 137 -2 l 1,10,-1
 152 118 l 1,7,-1
EndSplineSet
EndChar

StartChar: greaterequal
Encoding: 8805 8805 194
Width: 1364
Flags: HW
LayerCount: 2
Fore
SplineSet
223 392 m 1,0,-1
 1016 728 l 1,1,-1
 317 1058 l 1,2,-1
 336 1204 l 1,3,-1
 1221 760 l 1,4,-1
 1213 698 l 1,5,-1
 204 246 l 1,6,-1
 223 392 l 1,0,-1
162 118 m 1,7,-1
 1110 118 l 1,8,-1
 1094 -2 l 1,9,-1
 146 -2 l 1,10,-1
 162 118 l 1,7,-1
EndSplineSet
EndChar

StartChar: partialdiff
Encoding: 8706 8706 195
Width: 1364
Flags: HW
LayerCount: 2
Fore
SplineSet
274 1551 m 1,0,1
 435.824 1682 435.824 1682 665 1682 c 0,2,3
 866.459 1682 866.459 1682 1000 1560.5 c 0,4,5
 1167.21 1408.36 1167.21 1408.36 1204.5 1122.5 c 0,6,7
 1215 1042 1215 1042 1215 953.5 c 128,-1,8
 1215 865 1215 865 1204 750.5 c 128,-1,9
 1193 636 1193 636 1165.5 525 c 128,-1,10
 1138 414 1138 414 1091 314.5 c 128,-1,11
 1044 215 1044 215 973.5 140 c 0,12,13
 819.34 -24 819.34 -24 577 -24 c 0,14,15
 402.556 -24 402.556 -24 287 116 c 0,16,17
 184.695 239.947 184.695 239.947 184.695 402.541 c 0,18,19
 184.695 581.74 184.695 581.74 286 736 c 0,20,21
 372.516 867.74 372.516 867.74 510 946 c 0,22,23
 643.513 1022 643.513 1022 794.828 1022 c 128,-1,24
 946.143 1022 946.143 1022 1073 911 c 1,25,26
 1073.42 928.895 1073.42 928.895 1073.42 971.184 c 128,-1,27
 1073.42 1013.47 1073.42 1013.47 1066.71 1087.74 c 128,-1,28
 1060 1162 1060 1162 1040 1236.5 c 128,-1,29
 1020 1311 1020 1311 985.5 1375 c 128,-1,30
 951 1439 951 1439 898.5 1485.5 c 0,31,32
 787.29 1584 787.29 1584 606 1584 c 0,33,34
 476.739 1584 476.739 1584 339 1496 c 1,35,-1
 274 1551 l 1,0,1
471 799.5 m 128,-1,37
 414 741 414 741 373.4 651.364 c 128,-1,38
 332.8 561.727 332.8 561.727 332.8 474.439 c 128,-1,39
 332.8 387.15 332.8 387.15 349.9 322.075 c 128,-1,40
 367 257 367 257 403.5 202 c 0,41,42
 485.791 78 485.791 78 623 78 c 0,43,44
 939.2 78 939.2 78 1028.5 524.5 c 0,45,46
 1042 592 1042 592 1048 635 c 2,47,-1
 1057 700 l 2,48,49
 1060 722 1060 722 1062 745 c 1,50,51
 979.449 863.443 979.449 863.443 837.5 904 c 0,52,53
 785 919 785 919 723.5 919 c 128,-1,54
 662 919 662 919 595 888.5 c 128,-1,36
 528 858 528 858 471 799.5 c 128,-1,37
EndSplineSet
EndChar

StartChar: summation
Encoding: 8721 8721 196
Width: 1591
Flags: HW
LayerCount: 2
Fore
SplineSet
797 679 m 1,0,-1
 230 1457 l 1,1,-1
 255 1522 l 1,2,-1
 1319 1522 l 1,3,-1
 1346 1238 l 1,4,-1
 1249 1238 l 1,5,-1
 1195 1424 l 1,6,-1
 415 1438 l 1,7,-1
 969 694 l 1,8,-1
 412 -84 l 1,9,-1
 1194 -68 l 1,10,-1
 1285 158 l 1,11,-1
 1372 139 l 1,12,-1
 1324 -172 l 1,13,-1
 251 -171 l 1,14,-1
 230 -129 l 1,15,-1
 797 679 l 1,0,-1
EndSplineSet
EndChar

StartChar: product
Encoding: 8719 8719 197
Width: 1561
Flags: HW
LayerCount: 2
Fore
SplineSet
326 -79 m 1,0,-1
 326 1425 l 1,1,-1
 156 1443 l 1,2,-1
 156 1522 l 1,3,-1
 1493 1522 l 1,4,-1
 1493 1443 l 1,5,-1
 1323 1425 l 1,6,-1
 1323 -79 l 1,7,-1
 1497 -104 l 1,8,-1
 1497 -172 l 1,9,-1
 987 -172 l 1,10,-1
 987 -104 l 1,11,-1
 1166 -79 l 1,12,-1
 1166 1425 l 1,13,-1
 483 1425 l 1,14,-1
 483 -79 l 1,15,-1
 661 -104 l 1,16,-1
 661 -172 l 1,17,-1
 152 -172 l 1,18,-1
 152 -104 l 1,19,-1
 326 -79 l 1,0,-1
EndSplineSet
EndChar

StartChar: pi
Encoding: 960 960 198
Width: 1621
Flags: HW
LayerCount: 2
Fore
SplineSet
178 74 m 1,0,1
 345.206 116.691 345.206 116.691 410 229 c 0,2,3
 440 281 440 281 454.5 344 c 2,4,-1
 598 994 l 1,5,-1
 522 994 l 2,6,7
 442.089 994 442.089 994 377 943.5 c 0,8,9
 319.225 898.674 319.225 898.674 301 844 c 1,10,-1
 199 858 l 1,11,12
 199 953.986 199 953.986 288.5 1030 c 0,13,14
 393.29 1119 393.29 1119 561 1119 c 2,15,-1
 1227 1119 l 2,16,17
 1309.33 1119 1309.33 1119 1338.67 1133 c 0,18,19
 1387.04 1156.09 1387.04 1156.09 1416 1214 c 1,20,-1
 1519 1214 l 1,21,22
 1488.97 1036.56 1488.97 1036.56 1311.5 1004 c 0,23,24
 1257 994 1257 994 1194 994 c 2,25,-1
 1172 994 l 1,26,-1
 1106.5 527 l 2,27,28
 1095 446 1095 446 1086.5 393 c 2,29,-1
 1057 203 l 2,30,31
 1056.83 198.565 1056.83 198.565 1056.83 174.283 c 128,-1,32
 1056.83 150 1056.83 150 1076.91 128 c 128,-1,33
 1097 106 1097 106 1123 105.5 c 128,-1,34
 1149 105 1149 105 1179.5 116.5 c 128,-1,35
 1210 128 1210 128 1238 151 c 0,36,37
 1300.51 202.349 1300.51 202.349 1325 289 c 1,38,-1
 1434 289 l 1,39,40
 1404.19 169.744 1404.19 169.744 1312 80.5 c 0,41,42
 1204.05 -24 1204.05 -24 1068 -24 c 0,43,44
 987 -24 987 -24 947.897 20.8966 c 128,-1,45
 908.793 65.7931 908.793 65.7931 908.793 138.125 c 0,46,47
 908.793 143.483 908.793 143.483 910.397 165.241 c 128,-1,48
 912 187 912 187 916.5 228 c 128,-1,49
 921 269 921 269 928 319 c 128,-1,50
 935 369 935 369 944.5 431 c 2,51,-1
 1037 994 l 1,52,-1
 719 994 l 1,53,-1
 623 432 l 1,54,55
 566.524 90.4564 566.524 90.4564 393.5 9.5 c 0,56,57
 339 -16 339 -16 273 -26 c 1,58,-1
 178 74 l 1,0,1
EndSplineSet
EndChar

StartChar: integral
Encoding: 8747 8747 199
Width: 1058
Flags: HW
LayerCount: 2
Fore
SplineSet
143 -298 m 1,0,1
 171.996 -372.561 171.996 -372.561 264 -408.5 c 0,2,3
 296 -421 296 -421 349.5 -421 c 128,-1,4
 403 -421 403 -421 451 -398.5 c 128,-1,5
 499 -376 499 -376 529.5 -330 c 0,6,7
 587 -243.279 587 -243.279 587 -52 c 0,8,9
 587 120.8 587 120.8 518 360 c 0,10,11
 488 464 488 464 454 568 c 128,-1,12
 420 672 420 672 390 775.5 c 0,13,14
 321 1013.55 321 1013.55 321 1151.78 c 128,-1,15
 321 1290 321 1290 349.5 1383.5 c 128,-1,16
 378 1477 378 1477 431.5 1547.5 c 0,17,18
 547.227 1700 547.227 1700 734 1700 c 0,19,20
 861.421 1700 861.421 1700 948 1629.5 c 0,21,22
 983 1601 983 1601 1004 1553 c 1,23,-1
 901 1480 l 1,24,25
 893.719 1518.83 893.719 1518.83 856.86 1547.41 c 0,26,27
 785.184 1603 785.184 1603 711.592 1603 c 128,-1,28
 638 1603 638 1603 589.5 1578.5 c 128,-1,29
 541 1554 541 1554 511.5 1507 c 0,30,31
 458 1421.76 458 1421.76 458 1234 c 0,32,33
 458 1060.55 458 1060.55 527 822.5 c 0,34,35
 557 719 557 719 591 615 c 128,-1,36
 625 511 625 511 655 407.5 c 0,37,38
 724 169.45 724 169.45 724 30.725 c 128,-1,39
 724 -108 724 -108 695.5 -201.5 c 128,-1,40
 667 -295 667 -295 613 -365.5 c 0,41,42
 496.191 -518 496.191 -518 310 -518 c 0,43,44
 181.483 -518 181.483 -518 97 -448 c 0,45,46
 62 -419 62 -419 41 -371 c 1,47,-1
 143 -298 l 1,0,1
EndSplineSet
EndChar

StartChar: Omega
Encoding: 8486 8486 200
Width: 1659
Flags: HW
LayerCount: 2
Fore
SplineSet
0 280 m 1,0,-1
 82 364 l 1,1,-1
 115 121 l 1,2,-1
 493 121 l 1,3,4
 361.542 213.021 361.542 213.021 256 421 c 0,5,6
 156.278 617.511 156.278 617.511 156.278 800.218 c 0,7,8
 156.278 936.285 156.278 936.285 199.639 1049.14 c 128,-1,9
 243 1162 243 1162 298 1238.5 c 128,-1,10
 353 1315 353 1315 424 1372.5 c 128,-1,11
 495 1430 495 1430 576.5 1468.5 c 0,12,13
 738.442 1545 738.442 1545 903.721 1545 c 128,-1,14
 1069 1545 1069 1545 1188 1502.5 c 0,15,16
 1432.61 1415.14 1432.61 1415.14 1509.5 1172.5 c 0,17,18
 1535.73 1089.71 1535.73 1089.71 1535.73 1016.86 c 128,-1,19
 1535.73 944.018 1535.73 944.018 1529.37 887.509 c 128,-1,20
 1523 831 1523 831 1501.5 761 c 128,-1,21
 1480 691 1480 691 1447 619.5 c 128,-1,22
 1414 548 1414 548 1371 477.5 c 128,-1,23
 1328 407 1328 407 1279.5 343 c 0,24,25
 1177.89 208.917 1177.89 208.917 1072 129 c 1,26,-1
 1451 129 l 1,27,-1
 1542 396 l 1,28,-1
 1622 390 l 1,29,-1
 1553 0 l 1,30,-1
 927 0 l 1,31,-1
 911 104 l 1,32,33
 1078.21 209.04 1078.21 209.04 1206 420 c 0,34,35
 1369.76 690.327 1369.76 690.327 1369.76 977.934 c 0,36,37
 1369.76 1194.82 1369.76 1194.82 1251 1321 c 0,38,39
 1125.82 1454 1125.82 1454 905 1454 c 0,40,41
 664.864 1454 664.864 1454 512.5 1309.5 c 0,42,43
 346.936 1152.48 346.936 1152.48 322 859 c 0,44,45
 319.278 825.167 319.278 825.167 319.278 782.444 c 128,-1,46
 319.278 739.722 319.278 739.722 328.139 672.861 c 128,-1,47
 337 606 337 606 360.5 530 c 128,-1,48
 384 454 384 454 418 387 c 128,-1,49
 452 320 452 320 490.5 265 c 0,50,51
 567.604 154.852 567.604 154.852 646 104 c 1,52,-1
 613 0 l 1,53,-1
 -16 0 l 1,54,-1
 -11 6 l 1,55,-1
 0 280 l 1,0,-1
EndSplineSet
EndChar

StartChar: radical
Encoding: 8730 8730 201
Width: 1587
Flags: HW
LayerCount: 2
Fore
SplineSet
82 578 m 1,0,-1
 271 709 l 1,1,-1
 420 709 l 1,2,-1
 667 -165 l 1,3,-1
 1498 1917 l 1,4,-1
 1661 1917 l 1,5,-1
 724 -353 l 1,6,-1
 572 -353 l 1,7,-1
 276 576 l 1,8,9
 263 569 263 569 242.5 557 c 2,10,-1
 160.5 507.5 l 2,11,12
 141 496 141 496 129 490 c 1,13,-1
 82 578 l 1,0,-1
EndSplineSet
EndChar

StartChar: Delta
Encoding: 8710 8710 203
Width: 1407
Flags: HW
LayerCount: 2
Fore
SplineSet
-33 22 m 1,0,-1
 733 1508 l 1,1,-1
 763 1508 l 1,2,-1
 1332 26 l 1,3,-1
 1315 0 l 1,4,-1
 -21 0 l 1,5,-1
 -33 22 l 1,0,-1
1128 96 m 1,6,-1
 698 1255 l 1,7,-1
 115 96 l 1,8,-1
 1128 96 l 1,6,-1
EndSplineSet
EndChar

StartChar: v
Encoding: 118 118 204
Width: 1046
Flags: HW
LayerCount: 2
Fore
SplineSet
329 -20 m 1,0,-1
 172 979 l 1,1,2
 158.796 1047.22 158.796 1047.22 125 1049 c 0,3,4
 102 1050 102 1050 83 1035 c 2,5,6
 50 1008 l 1,7,-1
 26 1058 l 1,8,9
 61.5678 1114.91 61.5678 1114.91 141 1149.5 c 0,10,11
 172 1163 172 1163 207 1163 c 256,12,13
 299.18 1163 299.18 1163 320.5 1081 c 0,14,15
 327 1056 327 1056 330 1026 c 2,16,-1
 406 352 l 1,17,-1
 428 132 l 1,18,-1
 574 327 l 1,19,20
 679.912 485.868 679.912 485.868 724.456 582.934 c 0,21,22
 806.872 762.527 806.872 762.527 831 924 c 1,23,24
 836.441 971.157 836.441 971.157 819.221 1017.08 c 128,-1,25
 802 1063 802 1063 802 1092.5 c 128,-1,26
 802 1122 802 1122 823 1142.5 c 128,-1,27
 844 1163 844 1163 887.5 1163 c 128,-1,28
 931 1163 931 1163 959 1111 c 128,-1,29
 987 1059 987 1059 987 980.5 c 128,-1,30
 987 902 987 902 959 816.5 c 128,-1,31
 931 731 931 731 888 643 c 0,32,33
 815.225 494.066 815.225 494.066 692 313 c 1,34,-1
 452 -9 l 1,35,-1
 329 -20 l 1,0,-1
EndSplineSet
EndChar

StartChar: ellipsis
Encoding: 8230 8230 205
Width: 1578
Flags: HW
LayerCount: 2
Fore
SplineSet
1254 -18 m 128,-1,1
 1208 -18 1208 -18 1185.73 6.04688 c 128,-1,2
 1163.47 30.0938 1163.47 30.0938 1163.47 68.2988 c 128,-1,3
 1163.47 106.504 1163.47 106.504 1177.73 133.252 c 128,-1,4
 1192 160 1192 160 1209 176 c 0,5,6
 1245.12 210 1245.12 210 1297.06 210 c 128,-1,7
 1349 210 1349 210 1368.15 183.273 c 128,-1,8
 1387.31 156.545 1387.31 156.545 1387.31 135.682 c 0,9,10
 1387.31 54.7576 1387.31 54.7576 1343.65 18.3788 c 128,-1,0
 1300 -18 1300 -18 1254 -18 c 128,-1,1
728 -18 m 128,-1,12
 682 -18 682 -18 659.734 6.04688 c 128,-1,13
 637.469 30.0938 637.469 30.0938 637.469 68.2988 c 128,-1,14
 637.469 106.504 637.469 106.504 651.734 133.252 c 128,-1,15
 666 160 666 160 683 176 c 0,16,17
 719.125 210 719.125 210 771.062 210 c 128,-1,18
 823 210 823 210 842.155 183.273 c 128,-1,19
 861.309 156.545 861.309 156.545 861.309 135.682 c 0,20,21
 861.309 54.7576 861.309 54.7576 817.655 18.3788 c 128,-1,11
 774 -18 774 -18 728 -18 c 128,-1,12
202 -18 m 128,-1,23
 156 -18 156 -18 133.734 6.04688 c 128,-1,24
 111.469 30.0938 111.469 30.0938 111.469 68.2988 c 128,-1,25
 111.469 106.504 111.469 106.504 125.734 133.252 c 128,-1,26
 140 160 140 160 157 176 c 0,27,28
 193.125 210 193.125 210 245.062 210 c 128,-1,29
 297 210 297 210 316.155 183.273 c 128,-1,30
 335.309 156.545 335.309 156.545 335.309 135.682 c 0,31,32
 335.309 54.7576 335.309 54.7576 291.655 18.3788 c 128,-1,22
 248 -18 248 -18 202 -18 c 128,-1,23
EndSplineSet
EndChar

StartChar: perthousand
Encoding: 8240 8240 206
Width: 2708
Flags: HW
LayerCount: 2
Fore
SplineSet
1824 380.5 m 0,0,1
 1824 453 1824 453 1855 529.5 c 128,-1,2
 1886 606 1886 606 1941 666 c 0,3,4
 2062.92 799 2062.92 799 2237 799 c 0,5,6
 2514 799 2514 799 2514 504 c 0,7,8
 2514 331.215 2514 331.215 2402.5 202 c 0,9,10
 2283.42 64.0001 2283.42 64.0001 2102 64 c 0,11,12
 1968.17 64 1968.17 64 1894 153 c 0,13,14
 1824 237 1824 237 1824 380.5 c 0,0,1
2371 498 m 0,15,16
 2371 717 2371 717 2215 717 c 0,17,18
 2098.49 717 2098.49 717 2024.5 600 c 0,19,20
 1960 498 1960 498 1960 376 c 0,21,22
 1960 214.452 1960 214.452 2052 164 c 0,23,24
 2083 147 2083 147 2135.5 147 c 128,-1,25
 2188 147 2188 147 2234.5 182 c 128,-1,26
 2281 217 2281 217 2311.5 269.5 c 0,27,28
 2371 371.918 2371 371.918 2371 498 c 0,15,16
1357 1530 m 1,29,-1
 1486 1530 l 1,30,-1
 539 0 l 1,31,-1
 410 0 l 1,32,-1
 1357 1530 l 1,29,-1
648.5 783 m 128,-1,34
 572 745 572 745 490.5 745 c 128,-1,35
 409 745 409 745 357 768.5 c 128,-1,36
 305 792 305 792 270 834 c 0,37,38
 200 918 200 918 200 1055 c 0,39,40
 200 1219.36 200 1219.36 317 1347 c 0,41,42
 438.917 1480 438.917 1480 613 1480 c 0,43,44
 890 1480 890 1480 890 1185 c 0,45,46
 890 1012.21 890 1012.21 778.5 883 c 0,47,33
 725 821 725 821 648.5 783 c 128,-1,34
747 1179 m 0,48,49
 747 1398 747 1398 591 1398 c 0,50,51
 474.485 1398 474.485 1398 400.5 1281 c 0,52,53
 336 1179 336 1179 336 1057 c 0,54,55
 336 895.452 336 895.452 428 845 c 0,56,57
 459 828 459 828 511.5 828 c 128,-1,58
 564 828 564 828 610.5 863 c 128,-1,59
 657 898 657 898 687.5 950.5 c 0,60,61
 747 1052.92 747 1052.92 747 1179 c 0,48,49
1036 380.5 m 0,62,63
 1036 453 1036 453 1067 529.5 c 128,-1,64
 1098 606 1098 606 1153 666 c 0,65,66
 1274.92 799 1274.92 799 1449 799 c 0,67,68
 1726 799 1726 799 1726 504 c 0,69,70
 1726 331.215 1726 331.215 1614.5 202 c 0,71,72
 1495.42 64 1495.42 64 1314 64 c 0,73,74
 1180.17 64 1180.17 64 1106 153 c 0,75,76
 1036 237 1036 237 1036 380.5 c 0,62,63
1583 498 m 0,77,78
 1583 717 1583 717 1427 717 c 0,79,80
 1310.49 717 1310.49 717 1236.5 600 c 0,81,82
 1172 498 1172 498 1172 376 c 0,83,84
 1172 214.452 1172 214.452 1264 164 c 0,85,86
 1295 147 1295 147 1347.5 147 c 128,-1,87
 1400 147 1400 147 1446.5 182 c 128,-1,88
 1493 217 1493 217 1523.5 269.5 c 0,89,90
 1583 371.918 1583 371.918 1583 498 c 0,77,78
EndSplineSet
Ligature2: "'frac' Diagonal Fractions in Latin lookup 10 subtable" zero slash zero zero
EndChar

StartChar: florin
Encoding: 402 402 207
Width: 1058
Flags: HW
LayerCount: 2
Fore
SplineSet
1009 1537 m 1,0,1
 961 1565 961 1565 877 1565 c 128,-1,2
 793 1565 793 1565 752 1553.5 c 128,-1,3
 711 1542 711 1542 678.5 1509.5 c 0,4,5
 609.94 1440.94 609.94 1440.94 595 1271 c 1,6,-1
 580 1141 l 1,7,-1
 904 1141 l 1,8,-1
 895 1033 l 1,9,-1
 571 1033 l 1,10,-1
 406 -356 l 1,11,-1
 264 -356 l 1,12,-1
 429 1033 l 1,13,-1
 202 1033 l 1,14,-1
 207 1095 l 1,15,-1
 437 1141 l 1,16,-1
 445 1208 l 1,17,18
 463.682 1420.97 463.682 1420.97 608 1563 c 0,19,20
 737.048 1690 737.048 1690 880 1690 c 0,21,22
 984 1690 984 1690 1018 1673 c 1,23,-1
 1009 1537 l 1,0,1
EndSplineSet
EndChar

StartChar: trademark
Encoding: 8482 8482 210
Width: 2120
Flags: HW
LayerCount: 2
Fore
SplineSet
870 816 m 1,0,-1
 984 829 l 1,1,-1
 1097 1454 l 1,2,-1
 995 1462 l 1,3,-1
 1004 1530 l 1,4,-1
 1299 1530 l 1,5,-1
 1460 927 l 1,6,-1
 1760 1530 l 1,7,-1
 2052 1530 l 1,8,-1
 2043 1462 l 1,9,-1
 1934 1454 l 1,10,-1
 1907 829 l 1,11,-1
 2016 816 l 1,12,-1
 2007 754 l 1,13,-1
 1659 754 l 1,14,-1
 1668 816 l 1,15,-1
 1781 829 l 1,16,-1
 1804 1217 l 1,17,-1
 1823 1455 l 1,18,-1
 1467 746 l 1,19,-1
 1381 746 l 1,20,-1
 1182 1458 l 1,21,-1
 1074 829 l 1,22,-1
 1181 816 l 1,23,-1
 1172 754 l 1,24,-1
 861 754 l 1,25,-1
 870 816 l 1,0,-1
229 816 m 1,26,-1
 372 830 l 1,27,-1
 458 1453 l 1,28,-1
 264 1443 l 1,29,-1
 205 1296 l 1,30,-1
 151 1295 l 1,31,-1
 203 1530 l 1,32,-1
 879 1530 l 1,33,-1
 847 1297 l 1,34,-1
 795 1293 l 1,35,-1
 794 1444 l 1,36,-1
 595 1455 l 1,37,-1
 509 831 l 1,38,-1
 656 816 l 1,39,-1
 647 754 l 1,40,-1
 220 754 l 1,41,-1
 229 816 l 1,26,-1
EndSplineSet
EndChar

StartChar: notequal
Encoding: 8800 8800 211
Width: 1026
Flags: HW
LayerCount: 2
Fore
SplineSet
323 355 m 1,0,-1
 82 355 l 1,1,-1
 96 480 l 1,2,-1
 380 480 l 1,3,-1
 558 865 l 1,4,-1
 152 865 l 1,5,-1
 166 990 l 1,6,-1
 615 990 l 1,7,-1
 770 1324 l 1,8,-1
 897 1324 l 1,9,-1
 743 990 l 1,10,-1
 981 990 l 1,11,-1
 967 865 l 1,12,-1
 685 865 l 1,13,-1
 507 480 l 1,14,-1
 911 480 l 1,15,-1
 897 355 l 1,16,-1
 450 355 l 1,17,-1
 286 0 l 1,18,-1
 159 0 l 1,19,-1
 323 355 l 1,0,-1
EndSplineSet
EndChar

StartChar: OE
Encoding: 338 338 212
Width: 2137
Flags: HW
LayerCount: 2
Fore
SplineSet
603 -20 m 0,0,1
 502 -20 502 -20 409 27 c 128,-1,2
 316 74 316 74 249.5 160 c 0,3,4
 105.667 346.01 105.667 346.01 105.667 670.389 c 0,5,6
 105.667 912.37 105.667 912.37 196.5 1114 c 128,-1,7
 287.363 1315.7 287.363 1315.7 452 1433 c 0,8,9
 616.211 1550 616.211 1550 817 1550 c 0,10,11
 1172.01 1550 1172.01 1550 1255 1112 c 1,12,-1
 1309 1530 l 1,13,-1
 2089 1530 l 1,14,-1
 2082 1220 l 1,15,-1
 1996 1220 l 1,16,-1
 1960 1431 l 1,17,-1
 1462 1443 l 1,18,-1
 1376 840 l 1,19,-1
 1849 846 l 1,20,-1
 1839 721 l 1,21,-1
 1367 734 l 1,22,-1
 1283 94 l 1,23,-1
 1888 113 l 1,24,-1
 2001 341 l 1,25,-1
 2085 316 l 1,26,-1
 1996 0 l 1,27,-1
 1111 0 l 1,28,-1
 1155 340 l 1,29,30
 968.494 -20 968.494 -20 603 -20 c 0,0,1
267.904 697.375 m 0,31,32
 267.904 79.8552 267.904 79.8552 638 76 c 1,33,34
 746 76 746 76 840 136 c 0,35,36
 1033.01 259.198 1033.01 259.198 1110 555 c 0,37,38
 1145.22 690.317 1145.22 690.317 1145.22 847.109 c 0,39,40
 1145.22 1289.3 1145.22 1289.3 942.5 1410 c 0,41,42
 877 1449 877 1449 777.5 1449 c 128,-1,43
 678 1449 678 1449 582 1389 c 0,44,45
 385.72 1266.33 385.72 1266.33 305.5 982 c 0,46,47
 267.904 848.747 267.904 848.747 267.904 697.375 c 0,31,32
EndSplineSet
EndChar

StartChar: lozenge
Encoding: 9674 9674 224
Width: 1364
Flags: HW
LayerCount: 2
Fore
SplineSet
162 695 m 1,0,-1
 162 741 l 1,1,-1
 606 1436 l 1,2,-1
 757 1436 l 1,3,-1
 1201 741 l 1,4,-1
 1201 695 l 1,5,-1
 757 0 l 1,6,-1
 606 0 l 1,7,-1
 162 695 l 1,0,-1
1051 717 m 1,8,-1
 682 1316 l 1,9,-1
 311 719 l 1,10,-1
 679 120 l 1,11,-1
 1051 717 l 1,8,-1
EndSplineSet
EndChar

StartChar: Aring
Encoding: 197 197 239
Width: 1264
Flags: HW
LayerCount: 2
Fore
SplineSet
704 1486 m 1,0,1
 598 1503 598 1503 551.032 1563.65 c 128,-1,2
 504.064 1624.3 504.064 1624.3 504.064 1702.52 c 0,3,4
 504.064 1853.38 504.064 1853.38 627 1931.5 c 0,5,6
 719.066 1990 719.066 1990 843 1990 c 0,7,8
 975.857 1990 975.857 1990 1046.5 1925.5 c 0,9,10
 1108.22 1869.15 1108.22 1869.15 1108.22 1772.55 c 0,11,12
 1108.22 1662.08 1108.22 1662.08 1037 1584.5 c 0,13,14
 984.238 1527.03 984.238 1527.03 898 1499 c 1,15,-1
 1128 96 l 1,16,-1
 1295 69 l 1,17,-1
 1289 0 l 1,18,-1
 801 0 l 1,19,-1
 806 69 l 1,20,-1
 971 93 l 1,21,-1
 919 449 l 1,22,-1
 319 449 l 1,23,-1
 148 94 l 1,24,-1
 321 69 l 1,25,-1
 316 0 l 1,26,-1
 -148 0 l 1,27,-1
 -140 69 l 1,28,-1
 4 93 l 1,29,-1
 704 1486 l 1,0,1
621 1662 m 0,30,31
 660.804 1545.9 660.804 1545.9 793.596 1545.9 c 0,32,33
 926.086 1545.9 926.086 1545.9 978 1647 c 0,34,35
 1001.62 1693 1001.62 1693 1001.62 1740.52 c 128,-1,36
 1001.62 1788.03 1001.62 1788.03 991.31 1818.52 c 128,-1,37
 981 1849 981 1849 958.5 1873 c 0,38,39
 910.688 1924 910.688 1924 831 1924 c 256,40,41
 690.155 1924 690.155 1924 635.5 1824.5 c 0,42,43
 611.4 1780.63 611.4 1780.63 611.4 1735.31 c 128,-1,44
 611.4 1690 611.4 1690 621 1662 c 0,30,31
905 547 m 1,45,-1
 781 1403 l 1,46,-1
 367 547 l 1,47,-1
 905 547 l 1,45,-1
EndSplineSet
EndChar

StartChar: hyphen
Encoding: 45 45 245
Width: 1270
Flags: HW
LayerCount: 2
Fore
SplineSet
252 836 m 1,0,-1
 1086 836 l 1,1,-1
 1071 709 l 1,2,-1
 238 709 l 1,3,-1
 252 836 l 1,0,-1
EndSplineSet
EndChar

StartChar: dotlessj
Encoding: 567 567 248
Width: 622
Flags: HW
LayerCount: 2
Fore
SplineSet
-214 -415 m 1,0,1
 -180 -432 -180 -432 -117 -432 c 128,-1,2
 -54 -432 -54 -432 -1.5 -392.5 c 128,-1,3
 51 -353 51 -353 86.5 -285.5 c 0,4,5
 149.048 -166.571 149.048 -166.571 174 58 c 2,6,-1
 283 1016 l 1,7,-1
 140 1056 l 1,8,-1
 154 1121 l 1,9,-1
 419 1163 l 1,10,-1
 459 1142 l 1,11,-1
 324 2 l 2,12,13
 294.636 -250.529 294.636 -250.529 181.5 -386.5 c 0,14,15
 72.084 -518 72.084 -518 -102 -518 c 0,16,17
 -207.056 -518 -207.056 -518 -242 -481 c 1,18,-1
 -214 -415 l 1,0,1
EndSplineSet
EndChar

StartChar: currency
Encoding: 164 164 249
Width: 1540
Flags: HW
LayerCount: 2
Fore
SplineSet
1041 338 m 1,0,1
 926.333 252 926.333 252 782.219 252 c 128,-1,2
 638.105 252 638.105 252 523 333 c 1,3,-1
 331 141 l 1,4,-1
 239 231 l 1,5,-1
 429 422 l 1,6,7
 338 540.512 338 540.512 338 689.482 c 128,-1,8
 338 838.452 338 838.452 427 955 c 1,9,-1
 236 1147 l 1,10,-1
 327 1238 l 1,11,-1
 519 1045 l 1,12,13
 633.923 1128 633.923 1128 780.706 1128 c 128,-1,14
 927.488 1128 927.488 1128 1046 1037 c 1,15,-1
 1235 1225 l 1,16,-1
 1325 1134 l 1,17,-1
 1136 945 l 1,18,19
 1218 828.474 1218 828.474 1218 685.201 c 128,-1,20
 1218 541.929 1218 541.929 1131 428 c 1,21,-1
 1323 237 l 1,22,-1
 1232 146 l 1,23,-1
 1041 338 l 1,0,1
457 690 m 256,24,25
 457 552.724 457 552.724 550.5 456 c 0,26,27
 644.267 359 644.267 359 778 359 c 0,28,29
 910.733 359 910.733 359 1004.5 456 c 0,30,31
 1098 552.724 1098 552.724 1098 690 c 256,32,33
 1098 827.276 1098 827.276 1004.5 924 c 0,34,35
 910.733 1021 910.733 1021 778 1021 c 0,36,37
 644.267 1021 644.267 1021 550.5 924 c 0,38,39
 457 827.276 457 827.276 457 690 c 256,24,25
EndSplineSet
EndChar

StartChar: brokenbar
Encoding: 166 166 250
Width: 854
Flags: HW
LayerCount: 2
Fore
SplineSet
380 1780 m 1,0,-1
 518 1780 l 1,1,-1
 518 886 l 1,2,-1
 380 886 l 1,3,-1
 380 1780 l 1,0,-1
380 708 m 1,4,-1
 518 708 l 1,5,-1
 518 -186 l 1,6,-1
 380 -186 l 1,7,-1
 380 708 l 1,4,-1
EndSplineSet
EndChar

StartChar: Eth
Encoding: 208 208 251
Width: 1426
Flags: HW
LayerCount: 2
Fore
SplineSet
484 1532 m 1,0,-1
 805 1548 l 1,1,2
 1093.37 1548 1093.37 1548 1236 1376 c 0,3,4
 1371.15 1213.02 1371.15 1213.02 1371.15 906.132 c 0,5,6
 1371.15 517.374 1371.15 517.374 1157.5 253 c 0,7,8
 1015.4 77.1698 1015.4 77.1698 807.5 14.5 c 0,9,10
 712.087 -14.2609 712.087 -14.2609 606.253 -14.2609 c 0,11,12
 578.783 -14.2609 578.783 -14.2609 562.391 -13.1304 c 2,13,-1
 500 -9 l 2,14,15
 485 -8 485 -8 470.5 -7 c 128,-1,16
 456 -6 456 -6 429.5 -4 c 128,-1,17
 403 -2 403 -2 373.5 -1 c 2,18,-1
 315.5 1 l 2,19,20
 287 2 287 2 266 2 c 2,21,-1
 39 2 l 1,22,-1
 46 71 l 1,23,-1
 193 96 l 1,24,-1
 279 731 l 1,25,-1
 116 731 l 1,26,-1
 129 836 l 1,27,-1
 293 836 l 1,28,-1
 374 1432 l 1,29,-1
 242 1451 l 1,30,-1
 252 1532 l 1,31,-1
 484 1532 l 1,0,-1
355 108 m 1,32,33
 485.5 81 485.5 81 631 81 c 1,34,35
 916.065 98.2767 916.065 98.2767 1070.5 353.5 c 0,36,37
 1209.06 582.496 1209.06 582.496 1209.06 899.974 c 0,38,39
 1209.06 1326.84 1209.06 1326.84 955.5 1422.5 c 0,40,41
 872 1454 872 1454 760 1454 c 0,42,43
 673.333 1454 673.333 1454 534 1435 c 1,44,-1
 452 836 l 1,45,-1
 868 836 l 1,46,-1
 855 731 l 1,47,-1
 438 731 l 1,48,-1
 354 107 l 1,49,-1
 355 108 l 1,32,33
EndSplineSet
EndChar

StartChar: multiply
Encoding: 215 215 252
Width: 1370
Flags: HW
LayerCount: 2
Fore
SplineSet
241 425 m 1,0,-1
 632 765 l 1,1,-1
 325 1103 l 1,2,-1
 430 1201 l 1,3,-1
 722 845 l 1,4,-1
 1099 1205 l 1,5,-1
 1181 1106 l 1,6,-1
 793 764 l 1,7,-1
 1102 426 l 1,8,-1
 996 327 l 1,9,-1
 704 684 l 1,10,-1
 324 326 l 1,11,-1
 241 425 l 1,0,-1
EndSplineSet
EndChar

StartChar: Thorn
Encoding: 222 222 253
Width: 1188
Flags: HW
LayerCount: 2
Fore
SplineSet
588.25 314 m 0,0,1
 462.5 314 462.5 314 385 319 c 1,2,-1
 355 94 l 1,3,-1
 511 70 l 1,4,-1
 504 0 l 1,5,-1
 38 0 l 1,6,-1
 45 69 l 1,7,-1
 194 94 l 1,8,-1
 374 1430 l 1,9,-1
 239 1449 l 1,10,-1
 249 1530 l 1,11,-1
 694 1530 l 1,12,-1
 686 1449 l 1,13,-1
 535 1430 l 1,14,-1
 504 1198 l 1,15,16
 615.429 1213 615.429 1213 724 1213 c 0,17,18
 1183 1213 1183 1213 1183 829 c 0,19,20
 1183 597.404 1183 597.404 1009.5 453 c 0,21,22
 842.493 314 842.493 314 588.25 314 c 0,0,1
398 415 m 1,23,24
 486 405 486 405 591 405 c 128,-1,25
 696 405 696 405 776.5 437 c 128,-1,26
 857 469 857 469 911.5 524 c 0,27,28
 1021 634.505 1021 634.505 1021 805 c 0,29,30
 1021 967.296 1021 967.296 945.5 1040 c 0,31,32
 865.538 1117 865.538 1117 672 1117 c 0,33,34
 623.2 1117 623.2 1117 589.6 1113.5 c 2,35,-1
 533 1107.5 l 2,36,37
 510 1105 510 1105 491 1102 c 1,38,-1
 398 415 l 1,23,24
EndSplineSet
EndChar

StartChar: eth
Encoding: 240 240 254
Width: 1134
Flags: HW
LayerCount: 2
Fore
SplineSet
757 1524 m 1,0,1
 1053 1287.2 1053 1287.2 1053 816 c 0,2,3
 1053 471.727 1053 471.727 901.5 233 c 0,4,5
 800.885 74.4546 800.885 74.4546 641 11.5 c 0,6,7
 561 -20 561 -20 463 -20 c 128,-1,8
 365 -20 365 -20 293 19 c 128,-1,9
 221 58 221 58 175 120.5 c 0,10,11
 86 241.424 86 241.424 86 411.212 c 128,-1,12
 86 581 86 581 132 709 c 128,-1,13
 178 837 178 837 254 926 c 128,-1,14
 330 1015 330 1015 428 1062.5 c 128,-1,15
 526 1110 526 1110 631 1110 c 0,16,17
 763.8 1110 763.8 1110 855 1034 c 0,18,19
 885 1009 885 1009 903 976 c 1,20,21
 868.429 1135.89 868.429 1135.89 833.715 1211.44 c 0,22,23
 772.207 1345.31 772.207 1345.31 677 1431 c 1,24,-1
 526 1257 l 1,25,-1
 440 1328 l 1,26,-1
 593 1498 l 1,27,28
 449.737 1603.69 449.737 1603.69 345 1628 c 1,29,-1
 381 1725 l 1,30,31
 491.038 1697.49 491.038 1697.49 670 1585 c 1,32,33
 793.474 1727.84 793.474 1727.84 828 1771 c 1,34,-1
 911 1697 l 1,35,-1
 757 1524 l 1,0,1
277.5 633 m 128,-1,37
 254 524 254 524 254 433.5 c 128,-1,38
 254 343 254 343 267.5 280.5 c 128,-1,39
 281 218 281 218 309.5 170.5 c 0,40,41
 371.6 67 371.6 67 489 67 c 0,42,43
 626.885 67 626.885 67 735.5 219.5 c 0,44,45
 862.817 398.259 862.817 398.259 882 686 c 0,46,47
 884 716 884 716 884 742 c 0,48,49
 884 814 884 814 863 856 c 128,-1,50
 842 898 842 898 822 924.5 c 128,-1,51
 802 951 802 951 774.5 972.5 c 0,52,53
 713.744 1020 713.744 1020 624.372 1020 c 128,-1,54
 535 1020 535 1020 465 967 c 128,-1,55
 395 914 395 914 348 828 c 128,-1,36
 301 742 301 742 277.5 633 c 128,-1,37
EndSplineSet
EndChar

StartChar: thorn
Encoding: 254 254 255
Width: 1147
Flags: HW
LayerCount: 2
Fore
SplineSet
611.5 14 m 0,0,1
 525 -20 525 -20 434.318 -20 c 128,-1,2
 343.636 -20 343.636 -20 255 5 c 1,3,-1
 183 -520 l 1,4,-1
 30 -520 l 1,5,-1
 99 -5 l 1,6,-1
 294 1516 l 1,7,-1
 199 1550 l 1,8,-1
 215 1618 l 1,9,-1
 424 1650 l 1,10,-1
 467 1627 l 1,11,-1
 381 968 l 1,12,13
 472.55 1097.7 472.55 1097.7 610.5 1145.5 c 0,14,15
 661 1163 661 1163 733 1163 c 128,-1,16
 805 1163 805 1163 869 1130.5 c 128,-1,17
 933 1098 933 1098 975 1040 c 0,18,19
 1058 925.381 1058 925.381 1058 730 c 0,20,21
 1058 568.932 1058 568.932 983.5 398.5 c 0,22,23
 857.732 110.785 857.732 110.785 611.5 14 c 0,0,1
272 130 m 1,24,25
 334.759 78 334.759 78 429.879 78 c 128,-1,26
 525 78 525 78 587.5 107.5 c 128,-1,27
 650 137 650 137 699 187 c 128,-1,28
 748 237 748 237 785 302 c 128,-1,29
 822 367 822 367 846 438 c 0,30,31
 894 580 894 580 894 727.5 c 128,-1,32
 894 875 894 875 841.5 961.5 c 128,-1,33
 789 1048 789 1048 692 1048 c 0,34,35
 589.574 1048 589.574 1048 488.5 969 c 0,36,37
 406.296 904.749 406.296 904.749 362 826 c 1,38,-1
 272 130 l 1,24,25
EndSplineSet
EndChar

StartChar: Lslash
Encoding: 321 321 257
Width: 1172
Flags: HW
LayerCount: 2
Fore
SplineSet
45 72 m 1,0,-1
 194 96 l 1,1,-1
 259 580 l 1,2,-1
 83 506 l 1,3,-1
 54 601 l 1,4,-1
 275 696 l 1,5,-1
 374 1432 l 1,6,-1
 239 1451 l 1,7,-1
 249 1532 l 1,8,-1
 722 1532 l 1,9,-1
 713 1451 l 1,10,-1
 535 1432 l 1,11,-1
 445 770 l 1,12,-1
 879 957 l 1,13,-1
 907 855 l 1,14,-1
 429 652 l 1,15,-1
 354 96 l 1,16,-1
 892 105 l 1,17,-1
 1022 451 l 1,18,-1
 1116 433 l 1,19,-1
 1020 2 l 1,20,-1
 38 2 l 1,21,-1
 45 72 l 1,0,-1
EndSplineSet
EndChar

StartChar: Eogonek
Encoding: 280 280 258
Width: 1210
Flags: HW
LayerCount: 2
Fore
SplineSet
1034 -322 m 1,0,1
 923.412 -416 923.412 -416 784 -416 c 0,2,3
 709.703 -416 709.703 -416 669.5 -373.5 c 0,4,5
 620.505 -321.705 620.505 -321.705 648 -227 c 0,6,7
 670.806 -148.445 670.806 -148.445 780 -68.5 c 0,8,9
 808 -48 808 -48 836.5 -31.5 c 2,10,-1
 892 0 l 1,11,-1
 38 0 l 1,12,-1
 46 69 l 1,13,-1
 193 93 l 1,14,-1
 373 1430 l 1,15,-1
 241 1449 l 1,16,-1
 251 1530 l 1,17,-1
 1162 1530 l 1,18,-1
 1155 1220 l 1,19,-1
 1069 1220 l 1,20,-1
 1033 1427 l 1,21,-1
 536 1443 l 1,22,-1
 456 840 l 1,23,-1
 922 846 l 1,24,-1
 912 721 l 1,25,-1
 441 734 l 1,26,-1
 353 94 l 1,27,-1
 961 113 l 1,28,-1
 1074 341 l 1,29,-1
 1158 316 l 1,30,-1
 1069 0 l 1,31,-1
 988 0 l 1,32,-1
 917 -54.5 l 1,33,34
 792.818 -152.071 792.818 -152.071 792.818 -233.983 c 0,35,36
 792.818 -272.909 792.818 -272.909 811.909 -292.955 c 128,-1,37
 831 -313 831 -313 858 -313 c 0,38,39
 932.25 -313 932.25 -313 1013 -245 c 1,40,-1
 1034 -322 l 1,0,1
EndSplineSet
EndChar

StartChar: twosuperior
Encoding: 178 178 260
Width: 1163
Flags: HW
LayerCount: 2
Fore
SplineSet
662 1542 m 0,0,1
 468.478 1542 468.478 1542 325 1392 c 1,2,-1
 269 1468 l 1,3,4
 321.838 1536.92 321.838 1536.92 439 1595.5 c 0,5,6
 578.091 1665.05 578.091 1665.05 723.588 1665.05 c 0,7,8
 872.492 1665.05 872.492 1665.05 960 1591 c 0,9,10
 1036 1526.69 1036 1526.69 1036 1447.85 c 128,-1,11
 1036 1369 1036 1369 1011 1305 c 128,-1,12
 986 1241 986 1241 942 1182 c 128,-1,13
 898 1123 898 1123 838.5 1067.5 c 128,-1,14
 779 1012 779 1012 710 959.5 c 128,-1,15
 641 907 641 907 565 856 c 2,16,-1
 413 756 l 1,17,-1
 932 776 l 1,18,-1
 1016 935 l 1,19,-1
 1099 912 l 1,20,-1
 1016 655 l 1,21,-1
 235 655 l 1,22,-1
 198 733 l 1,23,-1
 311 799.5 l 1,24,25
 716.572 1041.05 716.572 1041.05 837.5 1255.5 c 0,26,27
 875 1322 875 1322 875 1373.5 c 128,-1,28
 875 1425 875 1425 859.5 1454 c 128,-1,29
 844 1483 844 1483 816 1502.5 c 0,30,31
 759.282 1542 759.282 1542 662 1542 c 0,0,1
EndSplineSet
EndChar

StartChar: onesuperior
Encoding: 185 185 261
Width: 1020
Flags: HW
LayerCount: 2
Fore
SplineSet
251 725 m 1,0,-1
 503 746 l 1,1,-1
 598 1461 l 1,2,3
 588.517 1455.31 588.517 1455.31 544.759 1443.16 c 0,4,5
 445.399 1416.07 445.399 1416.07 410.7 1407.53 c 0,6,7
 338.291 1389.73 338.291 1389.73 313 1380 c 1,8,-1
 308 1464 l 1,9,10
 486.293 1517.49 486.293 1517.49 674 1633 c 0,11,12
 700 1649 700 1649 713 1659 c 1,13,-1
 772 1642 l 1,14,-1
 652 746 l 1,15,-1
 907 724 l 1,16,-1
 898 654 l 1,17,-1
 242 654 l 1,18,-1
 251 725 l 1,0,-1
EndSplineSet
EndChar

StartChar: foursuperior
Encoding: 8308 8308 263
Width: 1209
Flags: HW
LayerCount: 2
Fore
SplineSet
699 823 m 1,0,-1
 180 823 l 1,1,-1
 150 900 l 1,2,-1
 760 1764 l 1,3,-1
 830 1765 l 1,4,-1
 904 1682 l 1,5,-1
 302 910 l 1,6,-1
 715 936 l 1,7,-1
 756 1229 l 1,8,-1
 917 1250 l 1,9,-1
 876 946 l 1,10,-1
 1141 963 l 1,11,-1
 1126 823 l 1,12,-1
 859 823 l 1,13,-1
 813 475 l 1,14,-1
 651 475 l 1,15,-1
 699 823 l 1,0,-1
EndSplineSet
EndChar

StartChar: threesuperior
Encoding: 179 179 265
Width: 1071
Flags: HW
LayerCount: 2
Fore
SplineSet
290 1538 m 1,0,1
 467.733 1662 467.733 1662 699 1662 c 0,2,3
 839.085 1662 839.085 1662 915.5 1598.5 c 0,4,5
 984.056 1541.53 984.056 1541.53 984.056 1450.88 c 0,6,7
 984.056 1251.27 984.056 1251.27 721 1152 c 1,8,9
 861.13 1152 861.13 1152 924.5 1072.5 c 0,10,11
 971.091 1014.05 971.091 1014.05 971.091 928.409 c 0,12,13
 971.091 812.405 971.091 812.405 888.5 718.5 c 0,14,15
 781.911 597.309 781.911 597.309 583 562.5 c 0,16,17
 523 552 523 552 480.5 552 c 128,-1,18
 438 552 438 552 402 556.5 c 128,-1,19
 366 561 366 561 327.5 570 c 0,20,21
 238.469 590.812 238.469 590.812 185 624 c 1,22,-1
 199 712 l 1,23,24
 301.6 655 301.6 655 448 655 c 0,25,26
 577.141 655 577.141 655 680.5 718 c 0,27,28
 806.302 794.679 806.302 794.679 806.302 925.72 c 0,29,30
 806.302 990.472 806.302 990.472 759.151 1034.74 c 128,-1,31
 712 1079 712 1079 614 1080 c 1,32,-1
 399 1030 l 1,33,-1
 415 1131 l 1,34,35
 580.256 1164.05 580.256 1164.05 656.628 1211.53 c 128,-1,36
 733 1259 733 1259 770.5 1308 c 128,-1,37
 808 1357 808 1357 813.5 1404.5 c 128,-1,38
 819 1452 819 1452 810 1477 c 0,39,40
 781.527 1556.09 781.527 1556.09 642.149 1556.09 c 0,41,42
 516.856 1556.09 516.856 1556.09 387.5 1494 c 0,43,44
 350 1476 350 1476 319 1455 c 1,45,-1
 290 1538 l 1,0,1
EndSplineSet
EndChar

StartChar: grave.cap
Encoding: 65537 -1 266
Width: 522
Flags: HW
LayerCount: 2
Fore
SplineSet
408 1614 m 1,0,1
 131.273 1775.42 131.273 1775.42 77 1890 c 1,2,-1
 183 2000 l 1,3,-1
 454 1651 l 1,4,-1
 408 1614 l 1,0,1
EndSplineSet
EndChar

StartChar: dieresis.cap
Encoding: 65538 -1 267
Width: 806
Flags: HW
LayerCount: 2
Fore
SplineSet
502 1808.88 m 128,-1,1
 502 1843 502 1843 513.5 1865 c 128,-1,2
 525 1887 525 1887 542 1903.5 c 0,3,4
 577.545 1938 577.545 1938 621.773 1938 c 128,-1,5
 666 1938 666 1938 690.573 1911.5 c 128,-1,6
 715.145 1885 715.145 1885 715.145 1846.17 c 0,7,8
 715.145 1792.82 715.145 1792.82 676.5 1753 c 0,9,10
 641.559 1717 641.559 1717 607.779 1717 c 0,11,12
 553.333 1717 553.333 1717 527.667 1745.88 c 128,-1,0
 502 1774.75 502 1774.75 502 1808.88 c 128,-1,1
137 1725 m 0,13,14
 83.8667 1750 83.8667 1750 83.8667 1812.44 c 0,15,16
 83.8667 1864.87 83.8667 1864.87 122.5 1903.5 c 0,17,18
 157 1938 157 1938 201.5 1938 c 128,-1,19
 246 1938 246 1938 270.573 1911.5 c 128,-1,20
 295.145 1885 295.145 1885 295.145 1846.17 c 0,21,22
 295.145 1792.82 295.145 1792.82 256.5 1753 c 0,23,24
 221.559 1717 221.559 1717 187.779 1717 c 128,-1,25
 154 1717 154 1717 137 1725 c 0,13,14
EndSplineSet
EndChar

StartChar: commaaccent
Encoding: 63171 63171 268
Width: 367
Flags: HW
LayerCount: 2
Fore
SplineSet
160 -52 m 1,0,1
 253.385 -79.1118 253.385 -79.1118 277 -195.5 c 0,2,3
 281.9 -219.65 281.9 -219.65 281.9 -237.775 c 128,-1,4
 281.9 -255.9 281.9 -255.9 278.95 -290.45 c 128,-1,5
 276 -325 276 -325 252.5 -375.5 c 128,-1,6
 229 -426 229 -426 196.5 -464.5 c 0,7,8
 129.579 -543.776 129.579 -543.776 67 -560 c 1,9,-1
 34 -527 l 1,10,-1
 36 -507 l 1,11,12
 121.523 -446.233 121.523 -446.233 129 -321 c 0,13,14
 132.283 -252.049 132.283 -252.049 87 -210 c 0,15,16
 73 -197 73 -197 57 -191 c 1,17,-1
 62 -147 l 1,18,-1
 160 -52 l 1,0,1
EndSplineSet
EndChar

StartChar: acute.cap
Encoding: 65539 -1 269
Width: 527
Flags: HW
LayerCount: 2
Fore
SplineSet
71 1651 m 1,0,-1
 353 2000 l 1,1,-1
 452 1890 l 1,2,3
 400.587 1789.74 400.587 1789.74 201 1666 c 1,4,-1
 115 1614 l 1,5,-1
 71 1651 l 1,0,-1
EndSplineSet
EndChar

StartChar: circumflex.cap
Encoding: 65540 -1 270
Width: 794
Flags: HW
LayerCount: 2
Fore
SplineSet
55 1666 m 1,0,-1
 376 2000 l 1,1,-1
 518 2000 l 1,2,-1
 737 1665 l 1,3,-1
 682 1617 l 1,4,-1
 440 1873 l 1,5,-1
 105 1619 l 1,6,-1
 55 1666 l 1,0,-1
EndSplineSet
EndChar

StartChar: caron.cap
Encoding: 65541 -1 271
Width: 792
Flags: HW
LayerCount: 2
Fore
SplineSet
82 1953 m 1,0,-1
 135 2000 l 1,1,-1
 377 1736 l 1,2,-1
 700 2000 l 1,3,-1
 750 1954 l 1,4,-1
 445 1614 l 1,5,-1
 304 1614 l 1,6,-1
 82 1953 l 1,0,-1
EndSplineSet
EndChar

StartChar: breve.cap
Encoding: 65542 -1 272
Width: 715
Flags: HW
LayerCount: 2
Fore
SplineSet
467.5 1663 m 128,-1,1
 411 1635 411 1635 344.5 1635 c 128,-1,2
 278 1635 278 1635 224 1663 c 128,-1,3
 170 1691 170 1691 133.5 1737 c 0,4,5
 59 1830.89 59 1830.89 59 1959 c 0,6,7
 59 1964 59 1964 59 1969 c 128,-1,8
 59 1974 59 1974 60 1979 c 1,9,-1
 145 1979 l 1,10,11
 146 1973 146 1973 146 1965 c 128,-1,12
 146 1957 146 1957 149 1936 c 128,-1,13
 152 1915 152 1915 166 1880 c 128,-1,14
 180 1845 180 1845 204.5 1816.5 c 0,15,16
 259.947 1752 259.947 1752 352 1752 c 0,17,18
 451.437 1752 451.437 1752 522 1835.5 c 0,19,20
 578.725 1902.62 578.725 1902.62 594 1979 c 1,21,-1
 676 1979 l 1,22,23
 676.25 1975.5 676.25 1975.5 676.25 1968 c 128,-1,24
 676.25 1960.5 676.25 1960.5 672.125 1926.25 c 128,-1,25
 668 1892 668 1892 639.5 1836.5 c 128,-1,26
 611 1781 611 1781 567.5 1736 c 128,-1,0
 524 1691 524 1691 467.5 1663 c 128,-1,1
EndSplineSet
EndChar

StartChar: dotaccent.cap
Encoding: 65543 -1 273
Width: 389
Flags: HW
LayerCount: 2
Fore
SplineSet
141 1709 m 0,0,1
 87.5556 1734.15 87.5556 1734.15 87.5556 1792.79 c 0,2,3
 87.5556 1797.33 87.5556 1797.33 88.2778 1812.17 c 128,-1,4
 89 1827 89 1827 100 1849 c 128,-1,5
 111 1871 111 1871 127.5 1887.5 c 0,6,7
 162 1922 162 1922 206 1922 c 128,-1,8
 250 1922 250 1922 275.57 1895.46 c 128,-1,9
 301.14 1868.93 301.14 1868.93 301.14 1829.96 c 0,10,11
 301.14 1777.84 301.14 1777.84 261.5 1737 c 0,12,13
 226.559 1701 226.559 1701 192.279 1701 c 128,-1,14
 158 1701 158 1701 141 1709 c 0,0,1
EndSplineSet
EndChar

StartChar: ring.cap
Encoding: 65544 -1 274
Width: 722
Flags: HW
LayerCount: 2
Fore
SplineSet
330.5 1481 m 0,0,1
 267 1481 267 1481 214 1499 c 0,2,3
 67.2857 1548.83 67.2857 1548.83 67.2857 1704.71 c 0,4,5
 67.2857 1853.53 67.2857 1853.53 190 1931.5 c 0,6,7
 282.066 1990 282.066 1990 406 1990 c 0,8,9
 538.857 1990 538.857 1990 609.5 1925.5 c 0,10,11
 671.219 1869.15 671.219 1869.15 671.219 1772.55 c 0,12,13
 671.219 1626.78 671.219 1626.78 553.5 1544.5 c 0,14,15
 462.646 1481 462.646 1481 330.5 1481 c 0,0,1
184 1662 m 0,16,17
 223.804 1545.9 223.804 1545.9 356.596 1545.9 c 0,18,19
 489.086 1545.9 489.086 1545.9 541 1647 c 0,20,21
 564.621 1693 564.621 1693 564.621 1740.52 c 128,-1,22
 564.621 1788.03 564.621 1788.03 554.31 1818.52 c 128,-1,23
 544 1849 544 1849 521.5 1873 c 0,24,25
 473.688 1924 473.688 1924 394 1924 c 256,26,27
 253.155 1924 253.155 1924 198.5 1824.5 c 0,28,29
 174.4 1780.63 174.4 1780.63 174.4 1735.31 c 128,-1,30
 174.4 1690 174.4 1690 184 1662 c 0,16,17
EndSplineSet
EndChar

StartChar: tilde.cap
Encoding: 65545 -1 275
Width: 813
Flags: HW
LayerCount: 2
Fore
SplineSet
253 1835 m 1,0,1
 184 1835 184 1835 93 1731 c 1,2,-1
 54 1800 l 1,3,4
 110.075 1908.65 110.075 1908.65 220.5 1951 c 0,5,6
 257 1965 257 1965 292 1965 c 128,-1,7
 327 1965 327 1965 352.5 1954 c 128,-1,8
 378 1943 378 1943 398.5 1927 c 128,-1,9
 419 1911 419 1911 436.5 1892 c 128,-1,10
 454 1873 454 1873 472 1857 c 0,11,12
 514.75 1819 514.75 1819 548.875 1819 c 128,-1,13
 583 1819 583 1819 607 1831 c 128,-1,14
 631 1843 631 1843 650.5 1861 c 128,-1,15
 670 1879 670 1879 685.5 1900 c 2,16,-1
 713 1938 l 1,17,-1
 761 1863 l 1,18,19
 736.937 1790.81 736.937 1790.81 669.5 1740.5 c 0,20,21
 600.468 1689 600.468 1689 523 1689 c 0,22,23
 434.026 1689 434.026 1689 371.5 1761 c 0,24,25
 332.889 1805.46 332.889 1805.46 306.945 1819.73 c 128,-1,26
 281 1834 281 1834 253 1835 c 1,0,1
EndSplineSet
EndChar

StartChar: hungarumlaut.cap
Encoding: 65546 -1 276
Width: 922
Flags: HW
LayerCount: 2
Fore
SplineSet
479 1621 m 1,0,-1
 791 1996 l 1,1,-1
 899 1902 l 1,2,3
 854.443 1825.88 854.443 1825.88 734.5 1726.5 c 0,4,5
 625.696 1636.35 625.696 1636.35 523 1585 c 1,6,-1
 479 1621 l 1,0,-1
66 1620 m 1,7,-1
 378 1995 l 1,8,-1
 483 1901 l 1,9,10
 446.671 1826.53 446.671 1826.53 324 1727 c 0,11,12
 228.633 1649.63 228.633 1649.63 110 1584 c 1,13,-1
 66 1620 l 1,7,-1
EndSplineSet
EndChar

StartChar: aogonek
Encoding: 261 261 277
Width: 1138
Flags: HW
LayerCount: 2
Fore
SplineSet
790 -17 m 1,0,1
 707.091 -1.20779 707.091 -1.20779 707.091 95.1322 c 0,2,3
 707.091 105.545 707.091 105.545 708 117 c 2,4,-1
 718 190 l 1,5,6
 622.254 50.0633 622.254 50.0633 481.5 -1.5 c 0,7,8
 431 -20 431 -20 363 -20 c 128,-1,9
 295 -20 295 -20 237 10.5 c 128,-1,10
 179 41 179 41 141 96 c 0,11,12
 66 204.553 66 204.553 66 399 c 0,13,14
 66 562.12 66 562.12 142.5 734.5 c 0,15,16
 273.057 1028.69 273.057 1028.69 518.5 1128 c 0,17,18
 605 1163 605 1163 698 1163 c 128,-1,19
 791 1163 791 1163 899 1127 c 1,20,-1
 900 1128 l 1,21,-1
 1018 1162 l 1,22,-1
 868 173 l 2,23,24
 857.468 104.544 857.468 104.544 890.5 89 c 0,25,26
 899 85 899 85 912.5 85 c 0,27,28
 930.192 85 930.192 85 996 144 c 1,29,-1
 1023 100 l 1,30,31
 1002.52 63.1346 1002.52 63.1346 957.76 30.5673 c 2,32,-1
 871 -33 l 2,33,34
 718 -145.929 718 -145.929 718 -226 c 0,35,36
 717.814 -230.186 717.814 -230.186 717.814 -251.57 c 128,-1,37
 717.814 -272.953 717.814 -272.953 736.407 -292.977 c 128,-1,38
 755 -313 755 -313 783 -313 c 0,39,40
 856.25 -313 856.25 -313 937 -245 c 1,41,-1
 959 -322 l 1,42,43
 848.412 -416 848.412 -416 709 -416 c 0,44,45
 634.703 -416 634.703 -416 594.5 -373.5 c 0,46,47
 544.809 -320.97 544.809 -320.97 573 -227 c 0,48,49
 582 -197 582 -197 599 -175 c 1,50,51
 639 -117 639 -117 689 -81.5 c 128,-1,52
 739 -46 739 -46 790 -17 c 1,0,1
230 421 m 0,53,54
 230 94 230 94 407 94 c 0,55,56
 507.781 94 507.781 94 608.5 180.5 c 0,57,58
 685.248 246.413 685.248 246.413 739 336 c 1,59,-1
 842 1019 l 1,60,61
 782.6 1064 782.6 1064 695.3 1064 c 128,-1,62
 608 1064 608 1064 546 1035 c 128,-1,63
 484 1006 484 1006 434 957.5 c 128,-1,64
 384 909 384 909 346 844.5 c 128,-1,65
 308 780 308 780 282 708.5 c 0,66,67
 230 565.5 230 565.5 230 421 c 0,53,54
EndSplineSet
EndChar

StartChar: eogonek
Encoding: 281 281 279
Width: 1025
Flags: HW
LayerCount: 2
Fore
SplineSet
757 -318 m 1,0,1
 646.412 -412 646.412 -412 507 -412 c 0,2,3
 432.703 -412 432.703 -412 392.5 -369.5 c 0,4,5
 357.739 -332.752 357.739 -332.752 359.869 -292.876 c 0,6,7
 366.807 -163.046 366.807 -163.046 489 -72 c 0,8,9
 540 -34 540 -34 589 -4 c 1,10,11
 533 -20 533 -20 449 -20 c 128,-1,12
 365 -20 365 -20 289.5 19.5 c 0,13,14
 82.8182 127.632 82.8182 127.632 82.8182 421.57 c 0,15,16
 82.8182 615.558 82.8182 615.558 163.5 793.5 c 0,17,18
 281.397 1053.52 281.397 1053.52 502 1135.5 c 0,19,20
 576 1163 576 1163 652.5 1163 c 128,-1,21
 729 1163 729 1163 782 1144 c 128,-1,22
 835 1125 835 1125 870 1091 c 0,23,24
 940 1023 940 1023 940 929 c 128,-1,25
 940 835 940 835 902.5 771.5 c 128,-1,26
 865 708 865 708 805 659 c 128,-1,27
 745 610 745 610 669.5 574 c 128,-1,28
 594 538 594 538 517.5 515 c 0,29,30
 365.533 469.311 365.533 469.311 250 467 c 1,31,32
 248.2 444.2 248.2 444.2 248.2 423.7 c 128,-1,33
 248.2 403.2 248.2 403.2 249.6 373.1 c 128,-1,34
 251 343 251 343 260.5 301.5 c 128,-1,35
 270 260 270 260 288 222 c 128,-1,36
 306 184 306 184 334 155 c 0,37,38
 394.828 92 394.828 92 492 92 c 0,39,40
 671 92 671 92 833 254 c 1,41,-1
 871 186 l 1,42,43
 843.952 147.682 843.952 147.682 803 112 c 1,44,-1
 758 77 l 1,45,46
 682.273 20.746 682.273 20.746 589 -4 c 1,47,-1
 622.5 15.5 l 2,48,49
 639 25 639 25 654 35 c 2,50,-1
 700 63 l 1,51,-1
 802 111 l 1,52,53
 782 93 782 93 758 77 c 1,54,-1
 676 4.5 l 1,55,56
 514.818 -143.562 514.818 -143.562 514.818 -229.153 c 0,57,58
 514.818 -268.864 514.818 -268.864 533.909 -288.432 c 128,-1,59
 553 -308 553 -308 581 -308 c 0,60,61
 655.438 -308 655.438 -308 735 -241 c 1,62,-1
 757 -318 l 1,0,1
254 557 m 1,63,64
 436.564 563.762 436.564 563.762 596 651 c 0,65,66
 706.519 711.473 706.519 711.473 752.5 800.5 c 0,67,68
 776 846 776 846 776 915 c 128,-1,69
 776 984 776 984 734.5 1026.5 c 128,-1,70
 693 1069 693 1069 629.5 1069 c 128,-1,71
 566 1069 566 1069 518.5 1046 c 128,-1,72
 471 1023 471 1023 432 983.5 c 128,-1,73
 393 944 393 944 362.5 892.5 c 128,-1,74
 332 841 332 841 309.5 784.5 c 0,75,76
 264.896 672.493 264.896 672.493 254 557 c 1,63,64
EndSplineSet
EndChar

StartChar: lslash
Encoding: 322 322 281
Width: 598
Flags: HW
LayerCount: 2
Fore
SplineSet
234 -20 m 0,0,1
 132.855 -20 132.855 -20 132.855 92.601 c 0,2,3
 132.855 139.273 132.855 139.273 139 170 c 1,4,-1
 230 781 l 1,5,-1
 82 723 l 1,6,-1
 82 832 l 1,7,-1
 247 900 l 1,8,-1
 339 1515 l 1,9,-1
 220 1548 l 1,10,-1
 236 1615 l 1,11,-1
 465 1650 l 1,12,-1
 505 1627 l 1,13,-1
 408 965 l 1,14,-1
 616 1051 l 1,15,-1
 616 933 l 1,16,-1
 390 844 l 1,17,-1
 289 158 l 2,18,19
 284 122 284 122 292 103.5 c 128,-1,20
 300 85 300 85 314 85 c 0,21,22
 358.5 85 358.5 85 425 155 c 1,23,-1
 451 112 l 1,24,25
 431.484 76.2201 431.484 76.2201 390.742 44.6101 c 0,26,27
 307.467 -20 307.467 -20 234 -20 c 0,0,1
EndSplineSet
EndChar

StartChar: Aogonek
Encoding: 260 260 288
Width: 1264
Flags: HW
LayerCount: 2
Fore
SplineSet
1077 -343 m 1,0,1
 982.462 -396.178 982.462 -396.178 894.908 -396.178 c 0,2,3
 770.349 -396.178 770.349 -396.178 743.5 -311.5 c 0,4,5
 737 -291 737 -291 741 -270.5 c 128,-1,6
 745 -250 745 -250 756.5 -228.5 c 128,-1,7
 768 -207 768 -207 781.5 -187.5 c 0,8,9
 809.108 -147.622 809.108 -147.622 839 -122 c 1,10,11
 876 -74 876 -74 916 -48 c 128,-1,12
 956 -22 956 -22 994 0 c 1,13,-1
 801 0 l 1,14,-1
 806 69 l 1,15,-1
 971 93 l 1,16,-1
 919 449 l 1,17,-1
 319 449 l 1,18,-1
 148 94 l 1,19,-1
 321 69 l 1,20,-1
 316 0 l 1,21,-1
 -148 0 l 1,22,-1
 -140 69 l 1,23,-1
 4 93 l 1,24,-1
 726 1530 l 1,25,-1
 893 1530 l 1,26,-1
 1128 96 l 1,27,-1
 1295 69 l 1,28,-1
 1289 0 l 1,29,-1
 1053 0 l 1,30,-1
 1053 -38 l 1,31,32
 936.302 -144.089 936.302 -144.089 916.5 -200 c 0,33,34
 908 -224 908 -224 915 -244 c 128,-1,35
 922 -264 922 -264 934 -275 c 128,-1,36
 946 -286 946 -286 959.5 -290.5 c 0,37,38
 984.5 -298.833 984.5 -298.833 1008 -291 c 1,39,40
 1059.31 -291 1059.31 -291 1111 -249 c 1,41,42
 1107 -253 1107 -253 1104.5 -268 c 2,43,-1
 1099 -299.5 l 2,44,45
 1091.09 -343 1091.09 -343 1077 -343 c 1,0,1
905 547 m 1,46,-1
 781 1403 l 1,47,-1
 367 547 l 1,48,-1
 905 547 l 1,46,-1
1066 43 m 1,49,-1
 1070 46 l 1,50,-1
 1066 43 l 1,49,-1
EndSplineSet
EndChar

StartChar: caronvertical
Encoding: 65547 -1 291
Width: 315
Flags: HW
LayerCount: 2
Fore
SplineSet
375 1680 m 1,0,1
 407.571 1644.92 407.571 1644.92 407.571 1531.91 c 0,2,3
 407.571 1308.87 407.571 1308.87 295 1117.5 c 0,4,5
 270 1075 270 1075 245 1045 c 1,6,-1
 196 1069 l 1,7,-1
 191 1089 l 1,8,9
 267.25 1303.89 267.25 1303.89 267.25 1431.89 c 128,-1,10
 267.25 1559.89 267.25 1559.89 236 1609 c 1,11,-1
 251 1643 l 1,12,-1
 375 1680 l 1,0,1
EndSplineSet
EndChar

StartChar: kgreenlandic
Encoding: 312 312 299
Width: 1061
Flags: HW
LayerCount: 2
Fore
SplineSet
270 1015 m 1,0,-1
 158 1047 l 1,1,-1
 175 1115 l 1,2,-1
 399 1150 l 1,3,-1
 441 1127 l 1,4,-1
 293 0 l 1,5,-1
 140 0 l 1,6,-1
 270 1015 l 1,0,-1
805 181 m 1,7,8
 866.286 82 866.286 82 916.893 82 c 0,9,10
 943.786 82 943.786 82 992 109 c 1,11,-1
 1017 70 l 1,12,13
 977.113 15.6089 977.113 15.6089 886.5 -10.5 c 0,14,15
 857 -19 857 -19 821 -19 c 0,16,17
 740.034 -19 740.034 -19 682 88 c 1,18,-1
 392 582 l 1,19,-1
 394 584 l 1,20,-1
 393 584 l 1,21,-1
 901 1130 l 1,22,-1
 1087 1130 l 1,23,-1
 543 586 l 1,24,-1
 805 181 l 1,7,8
EndSplineSet
EndChar

StartChar: scedilla
Encoding: 351 351 301
Width: 834
Flags: HW
LayerCount: 2
Fore
SplineSet
69 -331 m 1,0,1
 100.571 -348 100.571 -348 163.786 -348 c 128,-1,2
 227 -348 227 -348 280.125 -292.614 c 128,-1,3
 333.25 -237.229 333.25 -237.229 333.25 -79 c 0,4,5
 333.25 -47.5 333.25 -47.5 327 -20 c 1,6,-1
 314 -20 l 2,7,8
 171.043 -20 171.043 -20 68 19.5 c 0,9,10
 38 31 38 31 25 43 c 1,11,-1
 54 164 l 1,12,13
 154 89 154 89 323 89 c 0,14,15
 484.164 89 484.164 89 537 177.5 c 0,16,17
 557 211 557 211 557 259 c 128,-1,18
 557 307 557 307 537.5 343 c 128,-1,19
 518 379 518 379 488 408.5 c 128,-1,20
 458 438 458 438 422.5 463.5 c 2,21,-1
 356 513 l 1,22,23
 265.906 583.073 265.906 583.073 226.453 632.537 c 0,24,25
 139 742.179 139 742.179 139 849 c 0,26,27
 139 991.859 139 991.859 255 1080.5 c 0,28,29
 362.963 1163 362.963 1163 523 1163 c 0,30,31
 630 1163 630 1163 692.5 1145.5 c 128,-1,32
 755 1128 755 1128 767 1122 c 1,33,-1
 734 987 l 1,34,35
 705.145 1027.4 705.145 1027.4 600.5 1050.5 c 0,36,37
 562 1059 562 1059 492.5 1059 c 128,-1,38
 423 1059 423 1059 362 1019 c 0,39,40
 292.179 973.216 292.179 973.216 292.179 879.833 c 0,41,42
 292.179 777.524 292.179 777.524 405.5 684.5 c 1,43,-1
 548.5 573 l 1,44,45
 709 445.374 709 445.374 709 292 c 256,46,47
 709 171.846 709 171.846 625 90 c 0,48,49
 548.55 15.5099 548.55 15.5099 421 -10 c 1,50,51
 438.778 -60.3704 438.778 -60.3704 438.778 -111.63 c 128,-1,52
 438.778 -162.889 438.778 -162.889 433.889 -218.944 c 128,-1,53
 429 -275 429 -275 408 -327.5 c 128,-1,54
 387 -380 387 -380 354 -410 c 0,55,56
 294.6 -464 294.6 -464 179 -464 c 0,57,58
 78.3333 -464 78.3333 -464 41 -436 c 1,59,-1
 69 -331 l 1,0,1
EndSplineSet
Substitution2: "'locl' Localized Forms lookup 7 subtable" uni0219
Substitution2: "'locl' Localized Forms lookup 6 subtable" uni0219
Substitution2: "'aalt' Access All Alternates in Latin lookup 0 subtable" uni0219
EndChar

StartChar: estimated
Encoding: 8494 8494 305
Width: 1367
Flags: HW
LayerCount: 2
Fore
SplineSet
1275 832 m 1,0,1
 1275 683.25 1275 683.25 1264 631 c 1,2,-1
 343 631 l 1,3,-1
 343 268 l 1,4,5
 465.277 78 465.277 78 751 78 c 0,6,7
 947.571 78 947.571 78 1124 173 c 1,8,-1
 1155 82 l 1,9,10
 1059.72 13.515 1059.72 13.515 845.5 -9.5 c 0,11,12
 785 -16 785 -16 733 -16 c 0,13,14
 440.503 -16 440.503 -16 274.5 166.5 c 0,15,16
 110 347.348 110 347.348 110 671 c 0,17,18
 110 975.42 110 975.42 267.5 1158 c 0,19,20
 438.394 1356.11 438.394 1356.11 748.486 1356.11 c 0,21,22
 962.812 1356.11 962.812 1356.11 1110 1219 c 0,23,24
 1267.18 1072.59 1267.18 1072.59 1275 832 c 1,0,1
727 1261 m 0,25,26
 467.235 1261 467.235 1261 343 1063 c 1,27,-1
 343 741 l 1,28,-1
 1059 742 l 1,29,-1
 1059 1115 l 1,30,31
 954.062 1261 954.062 1261 727 1261 c 0,25,26
EndSplineSet
EndChar

StartChar: afii61352
Encoding: 8470 8470 306
Width: 2496
Flags: HW
LayerCount: 2
Fore
SplineSet
1575.16 983.976 m 128,-1,1
 1575.16 1157.2 1575.16 1157.2 1632.58 1261.6 c 128,-1,2
 1690 1366 1690 1366 1758.5 1423 c 0,3,4
 1890.69 1533 1890.69 1533 2060 1533 c 0,5,6
 2254.65 1533 2254.65 1533 2355.5 1402 c 0,7,8
 2437.84 1295.04 2437.84 1295.04 2437.84 1123.9 c 0,9,10
 2437.84 953.105 2437.84 953.105 2380.42 847.052 c 128,-1,11
 2323 741 2323 741 2254.5 683 c 0,12,13
 2122.22 571 2122.22 571 1954 571 c 0,14,15
 1760.24 571 1760.24 571 1658 703.5 c 0,16,0
 1575.16 810.856 1575.16 810.856 1575.16 983.976 c 128,-1,1
33 69 m 1,17,-1
 195 92 l 1,18,-1
 333 1426 l 1,19,-1
 174 1445 l 1,20,-1
 180 1524 l 1,21,-1
 535 1524 l 1,22,-1
 1001 485 l 1,23,-1
 1124 166 l 1,24,-1
 1243 1426 l 1,25,-1
 1070 1445 l 1,26,-1
 1076 1524 l 1,27,-1
 1554 1524 l 1,28,-1
 1548 1445 l 1,29,-1
 1369 1426 l 1,30,-1
 1226 0 l 1,31,-1
 1047 0 l 1,32,-1
 565 1080 l 1,33,-1
 445 1342 l 1,34,-1
 326 92 l 1,35,-1
 524 69 l 1,36,-1
 519 0 l 1,37,-1
 28 0 l 1,38,-1
 33 69 l 1,17,-1
1843 1361 m 0,39,40
 1733.14 1237.75 1733.14 1237.75 1733.14 990.316 c 0,41,42
 1733.14 854.943 1733.14 854.943 1772.57 783.971 c 128,-1,43
 1812 713 1812 713 1859 683.5 c 128,-1,44
 1906 654 1906 654 1966.5 654.5 c 128,-1,45
 2027 655 2027 655 2079 677 c 128,-1,46
 2131 699 2131 699 2172 746 c 0,47,48
 2279.86 869.641 2279.86 869.641 2279.86 1116.5 c 0,49,50
 2279.86 1250.06 2279.86 1250.06 2240.43 1321.03 c 128,-1,51
 2201 1392 2201 1392 2154 1421 c 128,-1,52
 2107 1450 2107 1450 2047.5 1449.5 c 0,53,54
 1920.93 1448.44 1920.93 1448.44 1843 1361 c 0,39,40
1528 119 m 1,55,-1
 2301 119 l 1,56,-1
 2290 0 l 1,57,-1
 1517 0 l 1,58,-1
 1528 119 l 1,55,-1
EndSplineSet
EndChar

StartChar: minute
Encoding: 8242 8242 307
Width: 623
Flags: HW
LayerCount: 2
Fore
SplineSet
397 1782 m 1,0,-1
 561 1782 l 1,1,-1
 419 1190 l 1,2,-1
 308 1190 l 1,3,-1
 397 1782 l 1,0,-1
EndSplineSet
EndChar

StartChar: quotereversed
Encoding: 8219 8219 309
Width: 682
Flags: HW
LayerCount: 2
Fore
SplineSet
446 936 m 1,0,1
 303.492 1010.65 303.492 1010.65 254.5 1169.5 c 0,2,3
 238 1223 238 1223 238 1288.5 c 128,-1,4
 238 1354 238 1354 260.5 1423 c 128,-1,5
 283 1492 283 1492 325 1551 c 0,6,7
 416.255 1679.19 416.255 1679.19 562 1720 c 1,8,-1
 631 1602 l 1,9,-1
 623 1569 l 1,10,11
 516.688 1548.84 516.688 1548.84 449.5 1434.5 c 0,12,13
 392 1336.65 392 1336.65 392 1235 c 0,14,15
 392 1109.83 392 1109.83 462 1041.5 c 0,16,17
 483 1021 483 1021 506 1011 c 1,18,-1
 502 993 l 1,19,-1
 446 936 l 1,0,1
EndSplineSet
EndChar

StartChar: gcommaaccent
Encoding: 291 291 323
Width: 1144
Flags: HW
LayerCount: 2
Fore
SplineSet
702 1297 m 1,0,1
 636.628 1310.46 636.628 1310.46 598.5 1378 c 0,2,3
 568.609 1430.95 568.609 1430.95 568.609 1494.69 c 0,4,5
 568.609 1612.53 568.609 1612.53 661.5 1713.5 c 0,6,7
 731.73 1789.84 731.73 1789.84 801 1806 c 1,8,-1
 834 1772 l 1,9,-1
 831 1752 l 1,10,11
 735.534 1692.9 735.534 1692.9 721 1573 c 1,12,13
 714.166 1501.25 714.166 1501.25 768.5 1453.5 c 0,14,15
 785 1439 785 1439 805 1435 c 1,16,-1
 800 1392 l 1,17,-1
 702 1297 l 1,0,1
716.688 1163 m 0,18,19
 819.375 1163 819.375 1163 927 1122 c 1,20,-1
 1043 1163 l 1,21,-1
 850 -77 l 2,22,23
 816.85 -295.235 816.85 -295.235 641.5 -411 c 0,24,25
 494.574 -508 494.574 -508 320 -508 c 0,26,27
 188.5 -508 188.5 -508 101 -473 c 1,28,-1
 141 -325 l 1,29,30
 271.667 -381 271.667 -381 368.333 -381 c 128,-1,31
 465 -381 465 -381 515 -368.5 c 128,-1,32
 565 -356 565 -356 599.5 -327 c 0,33,34
 666.338 -270.817 666.338 -270.817 688 -131 c 2,35,-1
 732 150 l 1,36,37
 637.747 33.9965 637.747 33.9965 507 -5.5 c 0,38,39
 459 -20 459 -20 390.5 -20 c 128,-1,40
 322 -20 322 -20 259.5 12.5 c 128,-1,41
 197 45 197 45 156 102.5 c 0,42,43
 75 216.098 75 216.098 75 412 c 0,44,45
 75 575.757 75 575.757 150 744 c 0,46,47
 230.567 924.73 230.567 924.73 368 1037 c 0,48,49
 522.241 1163 522.241 1163 716.688 1163 c 0,18,19
861 1016 m 1,50,51
 797.482 1065 797.482 1065 706.241 1065 c 128,-1,52
 615 1065 615 1065 551.5 1035.5 c 128,-1,53
 488 1006 488 1006 437.5 956 c 128,-1,54
 387 906 387 906 350 840.5 c 128,-1,55
 313 775 313 775 288 704 c 0,56,57
 239 564.84 239 564.84 239 416.42 c 128,-1,58
 239 268 239 268 289 181 c 128,-1,59
 339 94 339 94 432 94 c 0,60,61
 570.397 94 570.397 94 697.5 223 c 0,62,63
 731 257 731 257 753 289 c 1,64,-1
 861 1016 l 1,50,51
EndSplineSet
EndChar

StartChar: macron.cap
Encoding: 65548 -1 347
Width: 614
Flags: HW
LayerCount: 2
Fore
SplineSet
54 1864 m 1,0,-1
 564 1864 l 1,1,-1
 559 1745 l 1,2,-1
 50 1745 l 1,3,-1
 54 1864 l 1,0,-1
EndSplineSet
EndChar

StartChar: hcircumflex
Encoding: 293 293 404
Width: 1250
Flags: HW
LayerCount: 2
Fore
SplineSet
901 -20 m 0,0,1
 791.536 -20 791.536 -20 791.536 81.6702 c 0,2,3
 791.536 88.5797 791.536 88.5797 792.268 109.79 c 128,-1,4
 793 131 793 131 799.5 176 c 128,-1,5
 806 221 806 221 814 269.5 c 128,-1,6
 822 318 822 318 831 366.5 c 128,-1,7
 840 415 840 415 847.5 458 c 128,-1,8
 855 501 855 501 865 551.5 c 128,-1,9
 875 602 875 602 883.5 655 c 0,10,11
 903 776.588 903 776.588 903 843.294 c 128,-1,12
 903 910 903 910 894.5 944.5 c 128,-1,13
 886 979 886 979 869 999 c 0,14,15
 837.55 1036 837.55 1036 780.275 1036 c 128,-1,16
 723 1036 723 1036 668.5 1012.5 c 128,-1,17
 614 989 614 989 559 948.5 c 0,18,19
 441.182 861.743 441.182 861.743 360 742 c 1,20,-1
 260 0 l 1,21,-1
 105 0 l 1,22,-1
 305 1515 l 1,23,-1
 190 1548 l 1,24,-1
 203 1615 l 1,25,-1
 435 1650 l 1,26,-1
 479 1627 l 1,27,-1
 462 1506 l 1,28,-1
 741 1796 l 1,29,-1
 883 1796 l 1,30,-1
 1102 1461 l 1,31,-1
 1047 1413 l 1,32,-1
 805 1669 l 1,33,-1
 470 1415 l 1,34,-1
 452 1431 l 1,35,-1
 377 873 l 1,36,37
 519.268 1069.47 519.268 1069.47 710 1139.5 c 0,38,39
 774 1163 774 1163 832 1163 c 128,-1,40
 890 1163 890 1163 932 1148 c 128,-1,41
 974 1133 974 1133 1003 1098.5 c 0,42,43
 1063 1027.12 1063 1027.12 1063 867 c 0,44,45
 1063 772 1063 772 1040.5 659.5 c 2,46,-1
 1010 505 l 1,47,48
 1004 467 1004 467 996 422 c 2,49,-1
 980.5 331 l 1,50,51
 957.727 191.327 957.727 191.327 957.727 137.664 c 128,-1,52
 957.727 84 957.727 84 982.864 84 c 128,-1,53
 1008 84 1008 84 1031.5 99.5 c 128,-1,54
 1055 115 1055 115 1093 147 c 1,55,-1
 1119 103 l 1,56,57
 1103.07 71.1333 1103.07 71.1333 1060.53 41.0667 c 0,58,59
 974.146 -20 974.146 -20 901 -20 c 0,0,1
EndSplineSet
EndChar

StartChar: Scedilla
Encoding: 350 350 415
Width: 1094
Flags: HW
LayerCount: 2
Fore
SplineSet
157 -331 m 1,0,1
 188.571 -348 188.571 -348 251.786 -348 c 128,-1,2
 315 -348 315 -348 362 -299 c 0,3,4
 421.25 -237.229 421.25 -237.229 421.25 -86.875 c 0,5,6
 421.25 -50.875 421.25 -50.875 416 -22 c 1,7,8
 225.285 -13.0603 225.285 -13.0603 101.5 37.5 c 0,9,10
 66 52 66 52 50 65 c 1,11,-1
 91 343 l 1,12,-1
 185 347 l 1,13,-1
 198 137 l 1,14,15
 262.934 93.7107 262.934 93.7107 388 78.5 c 0,16,17
 425 74 425 74 470.5 74 c 128,-1,18
 516 74 516 74 575.5 89 c 128,-1,19
 635 104 635 104 684 137 c 0,20,21
 796 212.429 796 212.429 796 354 c 0,22,23
 796 521.965 796 521.965 652 637.5 c 0,24,25
 609 672 609 672 555.5 705.5 c 128,-1,26
 502 739 502 739 442 781 c 128,-1,27
 382 823 382 823 333.5 875 c 0,28,29
 220.893 995.733 220.893 995.733 220.893 1148.18 c 0,30,31
 220.893 1328.31 220.893 1328.31 353 1440.5 c 0,32,33
 481.944 1550 481.944 1550 680 1550 c 0,34,35
 925.5 1550 925.5 1550 1053 1465 c 1,36,-1
 1007 1203 l 1,37,-1
 921 1203 l 1,38,-1
 907 1400 l 1,39,40
 825.81 1455 825.81 1455 677 1455 c 0,41,42
 483.485 1455 483.485 1455 407.5 1327.5 c 0,43,44
 378 1278 378 1278 378 1205 c 128,-1,45
 378 1132 378 1132 401 1079.5 c 128,-1,46
 424 1027 424 1027 462 984.5 c 0,47,48
 521.044 918.464 521.044 918.464 651 840 c 1,49,50
 789.681 753.324 789.681 753.324 844.341 689.662 c 0,51,52
 954.029 561.907 954.029 561.907 954.029 418.278 c 0,53,54
 954.029 230.7 954.029 230.7 828.5 111.5 c 0,55,56
 707.543 -3.35801 707.543 -3.35801 512 -20 c 1,57,58
 526.7 -67.6 526.7 -67.6 526.7 -114.9 c 128,-1,59
 526.7 -162.2 526.7 -162.2 521.85 -218.6 c 128,-1,60
 517 -275 517 -275 496 -327.5 c 128,-1,61
 475 -380 475 -380 442 -410 c 0,62,63
 382.6 -464 382.6 -464 267 -464 c 0,64,65
 166.333 -464 166.333 -464 129 -436 c 1,66,-1
 157 -331 l 1,0,1
EndSplineSet
Substitution2: "'locl' Localized Forms lookup 7 subtable" uni0218
Substitution2: "'locl' Localized Forms lookup 6 subtable" uni0218
Substitution2: "'aalt' Access All Alternates in Latin lookup 0 subtable" uni0218
EndChar

StartChar: uni0162
Encoding: 354 354 418
Width: 1235
Flags: HW
LayerCount: 2
Fore
SplineSet
234 -329 m 1,0,1
 265.571 -346 265.571 -346 328.786 -346 c 128,-1,2
 392 -346 392 -346 445.143 -290.596 c 128,-1,3
 498.286 -235.191 498.286 -235.191 498.286 -76 c 0,4,5
 498.286 -41.1428 498.286 -41.1428 488 0 c 1,6,-1
 221 0 l 1,7,-1
 228 75 l 1,8,-1
 469 94 l 1,9,-1
 659 1443 l 1,10,-1
 292 1422 l 1,11,-1
 198 1064 l 1,12,-1
 107 1064 l 1,13,-1
 188 1530 l 1,14,-1
 1318 1530 l 1,15,-1
 1243 1065 l 1,16,-1
 1155 1064 l 1,17,-1
 1185 1423 l 1,18,-1
 820 1443 l 1,19,-1
 630 94 l 1,20,-1
 879 75 l 1,21,-1
 873 0 l 1,22,-1
 583 0 l 1,23,24
 603.632 -51.579 603.632 -51.579 603.632 -106 c 128,-1,25
 603.632 -160.421 603.632 -160.421 598.816 -216.711 c 128,-1,26
 594 -273 594 -273 573 -325.5 c 128,-1,27
 552 -378 552 -378 519 -408 c 0,28,29
 459.6 -462 459.6 -462 344 -462 c 0,30,31
 243.333 -462 243.333 -462 206 -434 c 1,32,-1
 234 -329 l 1,0,1
EndSplineSet
Substitution2: "'locl' Localized Forms lookup 7 subtable" uni021A
Substitution2: "'aalt' Access All Alternates in Latin lookup 0 subtable" uni021A
EndChar

StartChar: uni0163
Encoding: 355 355 419
Width: 706
Flags: HW
LayerCount: 2
Fore
SplineSet
11 -331 m 1,0,1
 42.5714 -348 42.5714 -348 105.786 -348 c 128,-1,2
 169 -348 169 -348 216 -299 c 128,-1,3
 263 -250 263 -250 273 -142 c 0,4,5
 275 -112 275 -112 275 -94.5 c 0,6,7
 275 -46.2 275 -46.2 268 -14 c 1,8,9
 150 9.17857 150 9.17857 150 147 c 2,10,-1
 150 160 l 2,11,12
 150 178.6 150 178.6 153.5 207.3 c 2,13,-1
 262 1043 l 1,14,-1
 138 1043 l 1,15,-1
 154 1113 l 1,16,-1
 281 1151 l 1,17,18
 320.894 1206.24 320.894 1206.24 393 1416 c 1,19,-1
 469 1416 l 1,20,-1
 436 1155 l 1,21,-1
 697 1155 l 1,22,-1
 681 1043 l 1,23,-1
 422 1043 l 1,24,-1
 326 344 l 2,25,26
 312 240 312 240 312 200.5 c 128,-1,27
 312 161 312 161 316 142.5 c 128,-1,28
 320 124 320 124 331 113 c 0,29,30
 352 92 352 92 392 92 c 128,-1,31
 432 92 432 92 461 101.5 c 128,-1,32
 490 111 490 111 518.5 124.5 c 0,33,34
 568.824 148.338 568.824 148.338 612 180 c 1,35,-1
 626 116 l 1,36,37
 574.125 53.0094 574.125 53.0094 444.5 5 c 0,38,39
 404 -10 404 -10 365 -16 c 1,40,41
 380.941 -65.2727 380.941 -65.2727 380.941 -113.754 c 128,-1,42
 380.941 -162.235 380.941 -162.235 375.971 -218.618 c 128,-1,43
 371 -275 371 -275 350 -327.5 c 128,-1,44
 329 -380 329 -380 296 -410 c 0,45,46
 236.6 -464 236.6 -464 121 -464 c 0,47,48
 20.3333 -464 20.3333 -464 -17 -436 c 1,49,-1
 11 -331 l 1,0,1
EndSplineSet
Substitution2: "'locl' Localized Forms lookup 7 subtable" uni021B
Substitution2: "'aalt' Access All Alternates in Latin lookup 0 subtable" uni021B
EndChar

StartChar: lacute
Encoding: 314 314 422
Width: 599
Flags: HW
LayerCount: 2
Fore
SplineSet
237 -20 m 0,0,1
 135.219 -20 135.219 -20 135.219 82.3027 c 0,2,3
 135.219 91.6875 135.219 91.6875 136 102 c 2,4,-1
 141 170 l 1,5,-1
 313 1387 l 1,6,-1
 196 1421 l 1,7,-1
 213 1488 l 1,8,-1
 439 1522 l 1,9,-1
 480 1499 l 1,10,-1
 292 158 l 1,11,12
 285.917 84.9999 285.917 84.9999 317 85 c 128,-1,13
 348 85 348 85 397 124 c 1,14,-1
 423 80 l 1,15,16
 406.851 54.1622 406.851 54.1622 371.426 29.5811 c 0,17,18
 299.971 -20 299.971 -20 237 -20 c 0,0,1
369 1651 m 1,19,-1
 651 2000 l 1,20,-1
 750 1890 l 1,21,22
 698.586 1789.74 698.586 1789.74 499 1666 c 1,23,-1
 413 1614 l 1,24,-1
 369 1651 l 1,19,-1
EndSplineSet
EndChar

StartChar: iogonek
Encoding: 303 303 423
Width: 625
Flags: HW
LayerCount: 2
Fore
SplineSet
367.35 1448.07 m 128,-1,1
 341.7 1475.15 341.7 1475.15 341.7 1513.35 c 0,2,3
 341.7 1567.7 341.7 1567.7 381.5 1607.5 c 0,4,5
 416 1642 416 1642 460.5 1642 c 128,-1,6
 505 1642 505 1642 529.573 1615.02 c 128,-1,7
 554.145 1588.04 554.145 1588.04 554.145 1550.04 c 0,8,9
 554.145 1496.82 554.145 1496.82 515.5 1457 c 0,10,11
 480.559 1421 480.559 1421 436.779 1421 c 128,-1,0
 393 1421 393 1421 367.35 1448.07 c 128,-1,1
403 -322 m 1,12,13
 292.412 -416 292.412 -416 153 -416 c 0,14,15
 78.7027 -416 78.7027 -416 38.5 -373.5 c 0,16,17
 6.88235 -340.076 6.88235 -340.076 6.88235 -292.19 c 0,18,19
 6.88235 -171.589 6.88235 -171.589 132.5 -81.5 c 0,20,21
 182 -46 182 -46 233 -17 c 1,22,23
 155.074 -2.64523 155.074 -2.64523 155.074 79.2709 c 0,24,25
 155.074 123.519 155.074 123.519 175.037 263.259 c 2,26,-1
 285 1016 l 1,27,-1
 148 1056 l 1,28,-1
 162 1121 l 1,29,-1
 420 1163 l 1,30,-1
 461 1142 l 1,31,-1
 320 158 l 2,32,33
 315 120 315 120 324.5 102.5 c 128,-1,34
 334 85 334 85 348 85 c 0,35,36
 386.821 85 386.821 85 456 156 c 1,37,-1
 483 112 l 1,38,39
 475 98 475 98 447.5 69 c 128,-1,40
 420 40 420 40 379 15 c 1,41,-1
 301.5 -43 l 2,42,43
 162 -148.078 162 -148.078 162 -226 c 0,44,45
 161.609 -231.87 161.609 -231.87 161.609 -252.804 c 128,-1,46
 161.609 -273.739 161.609 -273.739 180.304 -293.37 c 128,-1,47
 199 -313 199 -313 227 -313 c 0,48,49
 300.25 -313 300.25 -313 381 -245 c 1,50,-1
 403 -322 l 1,12,13
EndSplineSet
EndChar

StartChar: uogonek
Encoding: 371 371 424
Width: 1204
Flags: HW
LayerCount: 2
Fore
SplineSet
779 169 m 1,0,1
 611.6 -20 611.6 -20 411 -20 c 0,2,3
 230 -20 230 -20 182.5 122.5 c 0,4,5
 165 175 165 175 165 231.5 c 128,-1,6
 165 288 165 288 168.5 331 c 128,-1,7
 172 374 172 374 177 420.5 c 128,-1,8
 182 467 182 467 188.5 514.5 c 2,9,-1
 255 1002 l 1,10,-1
 158 1049 l 1,11,-1
 172 1120 l 1,12,-1
 382 1163 l 1,13,-1
 422 1142 l 1,14,-1
 353 599 l 1,15,-1
 341.5 513.5 l 2,16,17
 321 362.545 321 362.545 321 291.273 c 128,-1,18
 321 220 321 220 332 183.5 c 128,-1,19
 343 147 343 147 363.5 126 c 0,20,21
 398.643 90 398.643 90 458.321 90 c 128,-1,22
 518 90 518 90 562 106.5 c 128,-1,23
 606 123 606 123 648 149.5 c 0,24,25
 729.577 200.971 729.577 200.971 792 279 c 1,26,-1
 907 1155 l 1,27,-1
 1062 1155 l 1,28,-1
 932 159 l 2,29,30
 922.526 86.9999 922.526 86.9999 956 87 c 0,31,32
 997.82 87 997.82 87 1067 158 c 1,33,-1
 1093 113 l 1,34,35
 1068.82 74.3199 1068.82 74.3199 1026.41 44.16 c 128,-1,36
 984 14 984 14 957 2 c 1,37,-1
 884.5 -53 l 1,38,39
 757 -153.563 757 -153.563 757 -226 c 0,40,41
 756.818 -230.091 756.818 -230.091 756.818 -251.5 c 128,-1,42
 756.818 -272.909 756.818 -272.909 775.909 -292.955 c 128,-1,43
 795 -313 795 -313 822 -313 c 0,44,45
 895.25 -313 895.25 -313 976 -245 c 1,46,-1
 998 -322 l 1,47,48
 887.412 -416 887.412 -416 748 -416 c 0,49,50
 674.703 -416 674.703 -416 634.5 -373.5 c 0,51,52
 599.739 -336.752 599.739 -336.752 601.869 -296.876 c 0,53,54
 606.181 -216.177 606.181 -216.177 643.091 -166.088 c 0,55,56
 699.462 -89.5883 699.462 -89.5883 835 -14 c 1,57,58
 771.434 3.92888 771.434 3.92888 771.434 77.6159 c 0,59,60
 771.434 96.5849 771.434 96.5849 774.217 110.292 c 128,-1,61
 777 124 777 124 777.5 138 c 128,-1,62
 778 152 778 152 779 169 c 1,0,1
EndSplineSet
EndChar

StartChar: Dcroat
Encoding: 272 272 425
Width: 1426
Flags: HW
LayerCount: 2
Fore
SplineSet
484 1532 m 1,0,-1
 805 1548 l 1,1,2
 1093.37 1548 1093.37 1548 1236 1376 c 0,3,4
 1371.15 1213.02 1371.15 1213.02 1371.15 906.132 c 0,5,6
 1371.15 517.374 1371.15 517.374 1157.5 253 c 0,7,8
 1015.4 77.1698 1015.4 77.1698 807.5 14.5 c 0,9,10
 712.087 -14.2609 712.087 -14.2609 606.253 -14.2609 c 0,11,12
 578.783 -14.2609 578.783 -14.2609 562.391 -13.1304 c 2,13,-1
 500 -9 l 2,14,15
 485 -8 485 -8 470.5 -7 c 128,-1,16
 456 -6 456 -6 429.5 -4 c 128,-1,17
 403 -2 403 -2 373.5 -1 c 2,18,-1
 315.5 1 l 2,19,20
 287 2 287 2 266 2 c 2,21,-1
 39 2 l 1,22,-1
 46 71 l 1,23,-1
 193 96 l 1,24,-1
 279 731 l 1,25,-1
 117 731 l 1,26,-1
 130 836 l 1,27,-1
 293 836 l 1,28,-1
 374 1432 l 1,29,-1
 242 1451 l 1,30,-1
 252 1532 l 1,31,-1
 484 1532 l 1,0,-1
355 108 m 1,32,33
 485.5 81 485.5 81 631 81 c 1,34,35
 916.065 98.2767 916.065 98.2767 1070.5 353.5 c 0,36,37
 1209.06 582.496 1209.06 582.496 1209.06 899.974 c 0,38,39
 1209.06 1326.84 1209.06 1326.84 955.5 1422.5 c 0,40,41
 872 1454 872 1454 760 1454 c 0,42,43
 673.333 1454 673.333 1454 534 1435 c 1,44,-1
 452 836 l 1,45,-1
 869 836 l 1,46,-1
 856 731 l 1,47,-1
 438 731 l 1,48,-1
 354 107 l 1,49,-1
 355 108 l 1,32,33
EndSplineSet
EndChar

StartChar: Iogonek
Encoding: 302 302 426
Width: 717
Flags: HW
LayerCount: 2
Fore
SplineSet
380 -322 m 1,0,1
 269.412 -416 269.412 -416 130 -416 c 0,2,3
 55.7027 -416 55.7027 -416 15.5 -373.5 c 0,4,5
 -16.1176 -340.076 -16.1176 -340.076 -16.1176 -292.19 c 0,6,7
 -16.1176 -220.74 -16.1176 -220.74 13.9412 -180.87 c 128,-1,8
 44 -141 44 -141 71 -115 c 128,-1,9
 98 -89 98 -89 126.5 -68.5 c 128,-1,10
 155 -48 155 -48 183.5 -31.5 c 2,11,-1
 239 0 l 1,12,-1
 54 0 l 1,13,-1
 61 69 l 1,14,-1
 210 94 l 1,15,-1
 390 1430 l 1,16,-1
 255 1449 l 1,17,-1
 265 1530 l 1,18,-1
 710 1530 l 1,19,-1
 702 1449 l 1,20,-1
 551 1430 l 1,21,-1
 371 94 l 1,22,-1
 527 70 l 1,23,-1
 520 0 l 1,24,-1
 334 0 l 1,25,-1
 263 -54.5 l 1,26,27
 139 -151.929 139 -151.929 139 -226 c 0,28,29
 138.818 -230.091 138.818 -230.091 138.818 -251.5 c 128,-1,30
 138.818 -272.909 138.818 -272.909 157.909 -292.955 c 128,-1,31
 177 -313 177 -313 204 -313 c 0,32,33
 278.25 -313 278.25 -313 359 -245 c 1,34,-1
 380 -322 l 1,0,1
EndSplineSet
EndChar

StartChar: Uogonek
Encoding: 370 370 427
Width: 1396
Flags: HW
LayerCount: 2
Fore
SplineSet
664 -19 m 1,0,-1
 628 -20 l 1,1,2
 416.461 -20 416.461 -20 298 99.5 c 0,3,4
 177.667 220.889 177.667 220.889 177.667 452.278 c 0,5,6
 177.667 518 177.667 518 186 593 c 1,7,-1
 311 1431 l 1,8,-1
 172 1450 l 1,9,-1
 182 1530 l 1,10,-1
 637 1530 l 1,11,-1
 628 1450 l 1,12,-1
 474 1429 l 1,13,-1
 351 607 l 1,14,15
 340.714 512.714 340.714 512.714 340.714 471.5 c 128,-1,16
 340.714 430.286 340.714 430.286 341.357 383.643 c 128,-1,17
 342 337 342 337 362 272.5 c 128,-1,18
 382 208 382 208 420.5 162.5 c 0,19,20
 499.615 69 499.615 69 651 69 c 0,21,22
 839 69 839 69 946.5 206 c 128,-1,23
 1054 343 1054 343 1088 627 c 1,24,-1
 1207 1429 l 1,25,-1
 1072 1449 l 1,26,-1
 1081 1530 l 1,27,-1
 1485 1530 l 1,28,-1
 1476 1449 l 1,29,-1
 1347 1431 l 1,30,-1
 1227 627 l 1,31,32
 1169.43 180.794 1169.43 180.794 931 48 c 0,33,34
 852 4 852 4 752 -11 c 1,35,36
 599 -153.8 599 -153.8 599 -226 c 0,37,38
 598.818 -230.091 598.818 -230.091 598.818 -251.5 c 128,-1,39
 598.818 -272.909 598.818 -272.909 617.909 -292.955 c 128,-1,40
 637 -313 637 -313 664 -313 c 0,41,42
 737.25 -313 737.25 -313 818 -245 c 1,43,-1
 840 -322 l 1,44,45
 729.412 -416 729.412 -416 590 -416 c 0,46,47
 515.703 -416 515.703 -416 475.5 -373.5 c 0,48,49
 426.505 -321.705 426.505 -321.705 454 -227 c 0,50,51
 463 -196 463 -196 480 -174 c 1,52,53
 520 -117 520 -117 568.5 -81.5 c 128,-1,54
 617 -46 617 -46 664 -19 c 1,0,-1
EndSplineSet
EndChar

StartChar: Hbar
Encoding: 294 294 428
Width: 1534
Flags: HW
LayerCount: 2
Fore
SplineSet
48 69 m 1,0,-1
 197 94 l 1,1,-1
 322 1026 l 1,2,-1
 100 1026 l 1,3,-1
 112 1130 l 1,4,-1
 336 1130 l 1,5,-1
 377 1430 l 1,6,-1
 242 1449 l 1,7,-1
 252 1530 l 1,8,-1
 697 1530 l 1,9,-1
 689 1449 l 1,10,-1
 538 1430 l 1,11,-1
 497 1130 l 1,12,-1
 1196 1130 l 1,13,-1
 1236 1430 l 1,14,-1
 1088 1449 l 1,15,-1
 1095 1530 l 1,16,-1
 1545 1530 l 1,17,-1
 1536 1449 l 1,18,-1
 1396 1430 l 1,19,-1
 1356 1130 l 1,20,-1
 1561 1130 l 1,21,-1
 1549 1026 l 1,22,-1
 1342 1026 l 1,23,-1
 1217 95 l 1,24,-1
 1371 69 l 1,25,-1
 1363 0 l 1,26,-1
 890 0 l 1,27,-1
 897 70 l 1,28,-1
 1057 95 l 1,29,-1
 1132 655 l 1,30,-1
 433 655 l 1,31,-1
 358 94 l 1,32,-1
 514 70 l 1,33,-1
 507 0 l 1,34,-1
 41 0 l 1,35,-1
 48 69 l 1,0,-1
1146 759 m 1,36,-1
 1182 1026 l 1,37,-1
 483 1026 l 1,38,-1
 447 759 l 1,39,-1
 1146 759 l 1,36,-1
EndSplineSet
EndChar

StartChar: Tbar
Encoding: 358 358 431
Width: 1235
Flags: HW
LayerCount: 2
Fore
SplineSet
228 75 m 1,0,-1
 469 94 l 1,1,-1
 558 731 l 1,2,-1
 280 731 l 1,3,-1
 294 836 l 1,4,-1
 573 836 l 1,5,-1
 659 1443 l 1,6,-1
 292 1422 l 1,7,-1
 198 1064 l 1,8,-1
 107 1064 l 1,9,-1
 188 1530 l 1,10,-1
 1318 1530 l 1,11,-1
 1243 1065 l 1,12,-1
 1155 1064 l 1,13,-1
 1185 1423 l 1,14,-1
 820 1443 l 1,15,-1
 734 836 l 1,16,-1
 1036 836 l 1,17,-1
 1022 731 l 1,18,-1
 719 731 l 1,19,-1
 630 94 l 1,20,-1
 879 75 l 1,21,-1
 873 0 l 1,22,-1
 221 0 l 1,23,-1
 228 75 l 1,0,-1
EndSplineSet
EndChar

StartChar: tbar
Encoding: 359 359 432
Width: 706
Flags: HW
LayerCount: 2
Fore
SplineSet
326 -20 m 0,0,1
 150 -20 150 -20 150 147 c 2,2,-1
 150 160 l 2,3,4
 150 178.6 150 178.6 153.5 207.3 c 2,5,-1
 208 634 l 1,6,-1
 81 634 l 1,7,-1
 93 739 l 1,8,-1
 222 739 l 1,9,-1
 262 1043 l 1,10,-1
 138 1043 l 1,11,-1
 154 1113 l 1,12,-1
 281 1151 l 1,13,14
 320.894 1206.24 320.894 1206.24 393 1416 c 1,15,-1
 469 1416 l 1,16,-1
 436 1155 l 1,17,-1
 697 1155 l 1,18,-1
 681 1043 l 1,19,-1
 422 1043 l 1,20,-1
 380 739 l 1,21,-1
 675 739 l 1,22,-1
 663 634 l 1,23,-1
 366 634 l 1,24,-1
 326 344 l 2,25,26
 312 240 312 240 312 200.5 c 128,-1,27
 312 161 312 161 316 142.5 c 128,-1,28
 320 124 320 124 331 113 c 0,29,30
 352 92 352 92 392 92 c 128,-1,31
 432 92 432 92 461 101.5 c 128,-1,32
 490 111 490 111 518.5 124.5 c 0,33,34
 568.824 148.338 568.824 148.338 612 180 c 1,35,-1
 626 116 l 1,36,37
 589.636 72.8182 589.636 72.8182 524.818 40.4091 c 0,38,39
 404 -20 404 -20 326 -20 c 0,0,1
EndSplineSet
EndChar

StartChar: dcroat
Encoding: 273 273 434
Width: 1170
Flags: HW
LayerCount: 2
Fore
SplineSet
738.71 89.5817 m 0,0,1
 738.71 95.6129 738.71 95.6129 738.855 102.056 c 128,-1,2
 739 108.5 739 108.5 739 120.25 c 128,-1,3
 739 132 739 132 739.5 141.5 c 128,-1,4
 740 151 740 151 740 158 c 1,5,6
 644.874 37.2637 644.874 37.2637 511.5 -4.5 c 0,7,8
 462 -20 462 -20 392.5 -20 c 128,-1,9
 323 -20 323 -20 260.5 12.5 c 128,-1,10
 198 45 198 45 157 102.5 c 0,11,12
 76 216.098 76 216.098 76 412 c 0,13,14
 76 575.757 76 575.757 151 744 c 0,15,16
 231.567 924.73 231.567 924.73 369 1037 c 0,17,18
 523.241 1163 523.241 1163 717 1163 c 0,19,20
 789.273 1163 789.273 1163 885 1136 c 1,21,-1
 908 1287 l 1,22,-1
 628 1287 l 1,23,-1
 641 1392 l 1,24,-1
 924 1392 l 1,25,-1
 943 1515 l 1,26,-1
 815 1548 l 1,27,-1
 832 1615 l 1,28,-1
 1071 1650 l 1,29,-1
 1115 1627 l 1,30,-1
 1081 1392 l 1,31,-1
 1223 1392 l 1,32,-1
 1210 1287 l 1,33,-1
 1065 1287 l 1,34,-1
 901 158 l 2,35,36
 896 121 896 121 903.5 103 c 128,-1,37
 911 85 911 85 924 85 c 0,38,39
 958.889 85 958.889 85 1020 140 c 1,40,-1
 1047 96 l 1,41,42
 1003.79 31.1879 1003.79 31.1879 916.5 -5.5 c 0,43,44
 882 -20 882 -20 843 -20 c 0,45,46
 738.71 -20 738.71 -20 738.71 89.5817 c 0,0,1
867 1012 m 1,47,48
 803.034 1065 803.034 1065 709.517 1065 c 128,-1,49
 616 1065 616 1065 552.5 1035.5 c 128,-1,50
 489 1006 489 1006 438.5 956 c 128,-1,51
 388 906 388 906 351 840.5 c 128,-1,52
 314 775 314 775 289 704 c 0,53,54
 240 564.84 240 564.84 240 416.42 c 128,-1,55
 240 268 240 268 290 181 c 128,-1,56
 340 94 340 94 433 94 c 0,57,58
 529.75 94 529.75 94 627.5 163 c 0,59,60
 708.017 219.836 708.017 219.836 758 296 c 1,61,-1
 867 1012 l 1,47,48
EndSplineSet
EndChar

